<svg width="1366" height="768" viewBox="0 0 1366 768" fill="none" xmlns="http://www.w3.org/2000/svg">
<rect width="1365.33" height="768" fill="white"/>
<path opacity="0.8" d="M98.84 306.76C99.6613 306.76 100.307 307.024 100.776 307.552C101.275 308.051 101.524 308.725 101.524 309.576V335.404C101.524 336.255 101.275 336.944 100.776 337.472C100.277 338 99.632 338.264 98.84 338.264C97.9013 338.264 97.1827 337.927 96.684 337.252L80.624 316.352V335.404C80.624 336.255 80.3893 336.944 79.92 337.472C79.4507 338 78.8053 338.264 77.984 338.264C77.1627 338.264 76.5173 338 76.048 337.472C75.5787 336.944 75.344 336.255 75.344 335.404V309.576C75.344 308.725 75.5933 308.051 76.092 307.552C76.5907 307.024 77.2507 306.76 78.072 306.76C78.9813 306.76 79.6853 307.097 80.184 307.772L96.2 328.584V309.576C96.2 308.725 96.4347 308.051 96.904 307.552C97.4027 307.024 98.048 306.76 98.84 306.76ZM118.423 338.352C116.223 338.352 114.287 337.897 112.615 336.988C110.972 336.079 109.696 334.773 108.787 333.072C107.878 331.371 107.423 329.391 107.423 327.132C107.423 324.873 107.878 322.908 108.787 321.236C109.696 319.535 110.972 318.229 112.615 317.32C114.287 316.411 116.223 315.956 118.423 315.956C120.623 315.956 122.544 316.411 124.187 317.32C125.859 318.229 127.135 319.535 128.015 321.236C128.924 322.908 129.379 324.873 129.379 327.132C129.379 329.391 128.924 331.371 128.015 333.072C127.135 334.773 125.859 336.079 124.187 336.988C122.544 337.897 120.623 338.352 118.423 338.352ZM118.379 334.084C120.168 334.084 121.532 333.497 122.471 332.324C123.41 331.151 123.879 329.42 123.879 327.132C123.879 324.873 123.41 323.157 122.471 321.984C121.532 320.781 120.183 320.18 118.423 320.18C116.663 320.18 115.299 320.781 114.331 321.984C113.392 323.157 112.923 324.873 112.923 327.132C112.923 329.42 113.392 331.151 114.331 332.324C115.27 333.497 116.619 334.084 118.379 334.084ZM145.847 334.172C147.313 334.26 148.047 334.92 148.047 336.152C148.047 336.856 147.753 337.399 147.167 337.78C146.609 338.132 145.803 338.279 144.747 338.22L143.559 338.132C138.631 337.78 136.167 335.14 136.167 330.212V320.62H133.967C133.175 320.62 132.559 320.444 132.119 320.092C131.708 319.74 131.503 319.227 131.503 318.552C131.503 317.877 131.708 317.364 132.119 317.012C132.559 316.66 133.175 316.484 133.967 316.484H136.167V312.436C136.167 311.644 136.416 311.013 136.915 310.544C137.413 310.075 138.088 309.84 138.939 309.84C139.76 309.84 140.42 310.075 140.919 310.544C141.417 311.013 141.667 311.644 141.667 312.436V316.484H145.407C146.199 316.484 146.8 316.66 147.211 317.012C147.651 317.364 147.871 317.877 147.871 318.552C147.871 319.227 147.651 319.74 147.211 320.092C146.8 320.444 146.199 320.62 145.407 320.62H141.667V330.608C141.667 332.779 142.664 333.937 144.659 334.084L145.847 334.172ZM167.346 338.264C166.554 338.264 165.894 338.044 165.366 337.604C164.868 337.135 164.618 336.475 164.618 335.624V318.64C164.618 317.789 164.868 317.144 165.366 316.704C165.894 316.264 166.554 316.044 167.346 316.044C168.138 316.044 168.798 316.264 169.326 316.704C169.854 317.144 170.118 317.789 170.118 318.64V335.624C170.118 336.475 169.854 337.135 169.326 337.604C168.798 338.044 168.138 338.264 167.346 338.264ZM167.346 312.128C166.349 312.128 165.557 311.864 164.97 311.336C164.384 310.779 164.09 310.06 164.09 309.18C164.09 308.3 164.384 307.596 164.97 307.068C165.557 306.54 166.349 306.276 167.346 306.276C168.314 306.276 169.092 306.54 169.678 307.068C170.294 307.596 170.602 308.3 170.602 309.18C170.602 310.06 170.309 310.779 169.722 311.336C169.136 311.864 168.344 312.128 167.346 312.128ZM189.166 315.956C191.747 315.956 193.669 316.689 194.93 318.156C196.191 319.623 196.822 321.837 196.822 324.8V335.624C196.822 336.445 196.573 337.091 196.074 337.56C195.605 338.029 194.945 338.264 194.094 338.264C193.243 338.264 192.569 338.029 192.07 337.56C191.571 337.091 191.322 336.445 191.322 335.624V325.108C191.322 323.436 190.999 322.219 190.354 321.456C189.738 320.693 188.755 320.312 187.406 320.312C185.822 320.312 184.546 320.811 183.578 321.808C182.639 322.805 182.17 324.14 182.17 325.812V335.624C182.17 336.445 181.921 337.091 181.422 337.56C180.923 338.029 180.249 338.264 179.398 338.264C178.547 338.264 177.873 338.029 177.374 337.56C176.905 337.091 176.67 336.445 176.67 335.624V318.596C176.67 317.833 176.919 317.217 177.418 316.748C177.917 316.279 178.591 316.044 179.442 316.044C180.205 316.044 180.821 316.279 181.29 316.748C181.789 317.188 182.038 317.775 182.038 318.508V319.696C182.771 318.493 183.754 317.569 184.986 316.924C186.218 316.279 187.611 315.956 189.166 315.956ZM214.464 334.172C215.931 334.26 216.664 334.92 216.664 336.152C216.664 336.856 216.371 337.399 215.784 337.78C215.227 338.132 214.42 338.279 213.364 338.22L212.176 338.132C207.248 337.78 204.784 335.14 204.784 330.212V320.62H202.584C201.792 320.62 201.176 320.444 200.736 320.092C200.326 319.74 200.12 319.227 200.12 318.552C200.12 317.877 200.326 317.364 200.736 317.012C201.176 316.66 201.792 316.484 202.584 316.484H204.784V312.436C204.784 311.644 205.034 311.013 205.532 310.544C206.031 310.075 206.706 309.84 207.556 309.84C208.378 309.84 209.038 310.075 209.536 310.544C210.035 311.013 210.284 311.644 210.284 312.436V316.484H214.024C214.816 316.484 215.418 316.66 215.828 317.012C216.268 317.364 216.488 317.877 216.488 318.552C216.488 319.227 216.268 319.74 215.828 320.092C215.418 320.444 214.816 320.62 214.024 320.62H210.284V330.608C210.284 332.779 211.282 333.937 213.276 334.084L214.464 334.172ZM237.439 332.104C237.937 332.104 238.333 332.295 238.627 332.676C238.949 333.057 239.111 333.571 239.111 334.216C239.111 335.125 238.568 335.888 237.483 336.504C236.485 337.061 235.356 337.516 234.095 337.868C232.833 338.191 231.631 338.352 230.487 338.352C227.025 338.352 224.283 337.355 222.259 335.36C220.235 333.365 219.223 330.637 219.223 327.176C219.223 324.976 219.663 323.025 220.543 321.324C221.423 319.623 222.655 318.303 224.239 317.364C225.852 316.425 227.671 315.956 229.695 315.956C231.631 315.956 233.317 316.381 234.755 317.232C236.192 318.083 237.307 319.285 238.099 320.84C238.891 322.395 239.287 324.228 239.287 326.34C239.287 327.601 238.729 328.232 237.615 328.232H224.635C224.811 330.256 225.383 331.752 226.351 332.72C227.319 333.659 228.727 334.128 230.575 334.128C231.513 334.128 232.335 334.011 233.039 333.776C233.772 333.541 234.593 333.219 235.503 332.808C236.383 332.339 237.028 332.104 237.439 332.104ZM229.827 319.828C228.331 319.828 227.128 320.297 226.219 321.236C225.339 322.175 224.811 323.524 224.635 325.284H234.579C234.52 323.495 234.08 322.145 233.259 321.236C232.437 320.297 231.293 319.828 229.827 319.828ZM256.678 316.044C257.44 315.985 258.042 316.147 258.482 316.528C258.922 316.909 259.142 317.481 259.142 318.244C259.142 319.036 258.951 319.623 258.57 320.004C258.188 320.385 257.499 320.635 256.502 320.752L255.182 320.884C253.451 321.06 252.175 321.647 251.354 322.644C250.562 323.641 250.166 324.888 250.166 326.384V335.624C250.166 336.475 249.902 337.135 249.374 337.604C248.846 338.044 248.186 338.264 247.394 338.264C246.602 338.264 245.942 338.044 245.414 337.604C244.915 337.135 244.666 336.475 244.666 335.624V318.596C244.666 317.775 244.915 317.144 245.414 316.704C245.942 316.264 246.587 316.044 247.35 316.044C248.112 316.044 248.728 316.264 249.198 316.704C249.667 317.115 249.902 317.716 249.902 318.508V320.268C250.459 318.977 251.28 317.98 252.366 317.276C253.48 316.572 254.712 316.176 256.062 316.088L256.678 316.044ZM271.631 315.956C274.623 315.956 276.838 316.704 278.275 318.2C279.742 319.667 280.475 321.911 280.475 324.932V335.668C280.475 336.46 280.241 337.091 279.771 337.56C279.302 338 278.657 338.22 277.835 338.22C277.073 338.22 276.442 337.985 275.943 337.516C275.474 337.047 275.239 336.431 275.239 335.668V334.7C274.741 335.844 273.949 336.739 272.863 337.384C271.807 338.029 270.575 338.352 269.167 338.352C267.73 338.352 266.425 338.059 265.251 337.472C264.078 336.885 263.154 336.079 262.479 335.052C261.805 334.025 261.467 332.881 261.467 331.62C261.467 330.036 261.863 328.789 262.655 327.88C263.477 326.971 264.797 326.311 266.615 325.9C268.434 325.489 270.942 325.284 274.139 325.284H275.239V324.272C275.239 322.835 274.931 321.793 274.315 321.148C273.699 320.473 272.702 320.136 271.323 320.136C270.473 320.136 269.607 320.268 268.727 320.532C267.847 320.767 266.806 321.119 265.603 321.588C264.841 321.969 264.283 322.16 263.931 322.16C263.403 322.16 262.963 321.969 262.611 321.588C262.289 321.207 262.127 320.708 262.127 320.092C262.127 319.593 262.245 319.168 262.479 318.816C262.743 318.435 263.169 318.083 263.755 317.76C264.782 317.203 265.999 316.763 267.407 316.44C268.845 316.117 270.253 315.956 271.631 315.956ZM270.267 334.392C271.734 334.392 272.922 333.908 273.831 332.94C274.77 331.943 275.239 330.667 275.239 329.112V328.188H274.447C272.482 328.188 270.957 328.276 269.871 328.452C268.786 328.628 268.009 328.936 267.539 329.376C267.07 329.816 266.835 330.417 266.835 331.18C266.835 332.119 267.158 332.896 267.803 333.512C268.478 334.099 269.299 334.392 270.267 334.392ZM296.493 338.352C294.352 338.352 292.46 337.897 290.817 336.988C289.204 336.079 287.957 334.788 287.077 333.116C286.197 331.444 285.757 329.493 285.757 327.264C285.757 325.035 286.212 323.069 287.121 321.368C288.06 319.637 289.365 318.303 291.037 317.364C292.709 316.425 294.63 315.956 296.801 315.956C297.945 315.956 299.089 316.117 300.233 316.44C301.406 316.763 302.433 317.203 303.313 317.76C304.252 318.376 304.721 319.153 304.721 320.092C304.721 320.737 304.56 321.265 304.237 321.676C303.944 322.057 303.548 322.248 303.049 322.248C302.726 322.248 302.389 322.175 302.037 322.028C301.685 321.881 301.333 321.705 300.981 321.5C300.336 321.119 299.72 320.825 299.133 320.62C298.546 320.385 297.872 320.268 297.109 320.268C295.29 320.268 293.882 320.869 292.885 322.072C291.917 323.245 291.433 324.947 291.433 327.176C291.433 329.376 291.917 331.077 292.885 332.28C293.882 333.453 295.29 334.04 297.109 334.04C297.842 334.04 298.488 333.937 299.045 333.732C299.632 333.497 300.277 333.189 300.981 332.808C301.421 332.544 301.802 332.353 302.125 332.236C302.448 332.089 302.77 332.016 303.093 332.016C303.562 332.016 303.958 332.221 304.281 332.632C304.604 333.043 304.765 333.556 304.765 334.172C304.765 334.671 304.648 335.111 304.413 335.492C304.208 335.844 303.856 336.167 303.357 336.46C302.448 337.047 301.392 337.516 300.189 337.868C298.986 338.191 297.754 338.352 296.493 338.352ZM320.614 334.172C322.081 334.26 322.814 334.92 322.814 336.152C322.814 336.856 322.521 337.399 321.934 337.78C321.377 338.132 320.57 338.279 319.514 338.22L318.326 338.132C313.398 337.78 310.934 335.14 310.934 330.212V320.62H308.734C307.942 320.62 307.326 320.444 306.886 320.092C306.476 319.74 306.27 319.227 306.27 318.552C306.27 317.877 306.476 317.364 306.886 317.012C307.326 316.66 307.942 316.484 308.734 316.484H310.934V312.436C310.934 311.644 311.184 311.013 311.682 310.544C312.181 310.075 312.856 309.84 313.706 309.84C314.528 309.84 315.188 310.075 315.686 310.544C316.185 311.013 316.434 311.644 316.434 312.436V316.484H320.174C320.966 316.484 321.568 316.66 321.978 317.012C322.418 317.364 322.638 317.877 322.638 318.552C322.638 319.227 322.418 319.74 321.978 320.092C321.568 320.444 320.966 320.62 320.174 320.62H316.434V330.608C316.434 332.779 317.432 333.937 319.426 334.084L320.614 334.172ZM329.289 338.264C328.497 338.264 327.837 338.044 327.309 337.604C326.81 337.135 326.561 336.475 326.561 335.624V318.64C326.561 317.789 326.81 317.144 327.309 316.704C327.837 316.264 328.497 316.044 329.289 316.044C330.081 316.044 330.741 316.264 331.269 316.704C331.797 317.144 332.061 317.789 332.061 318.64V335.624C332.061 336.475 331.797 337.135 331.269 337.604C330.741 338.044 330.081 338.264 329.289 338.264ZM329.289 312.128C328.291 312.128 327.499 311.864 326.913 311.336C326.326 310.779 326.033 310.06 326.033 309.18C326.033 308.3 326.326 307.596 326.913 307.068C327.499 306.54 328.291 306.276 329.289 306.276C330.257 306.276 331.034 306.54 331.621 307.068C332.237 307.596 332.545 308.3 332.545 309.18C332.545 310.06 332.251 310.779 331.665 311.336C331.078 311.864 330.286 312.128 329.289 312.128ZM353.617 317.628C353.851 317.1 354.159 316.704 354.541 316.44C354.951 316.176 355.391 316.044 355.861 316.044C356.535 316.044 357.137 316.279 357.665 316.748C358.222 317.188 358.501 317.745 358.501 318.42C358.501 318.772 358.413 319.124 358.237 319.476L350.097 336.504C349.833 337.061 349.451 337.487 348.953 337.78C348.483 338.073 347.955 338.22 347.369 338.22C346.811 338.22 346.269 338.073 345.741 337.78C345.242 337.487 344.861 337.061 344.597 336.504L336.413 319.476C336.266 319.183 336.193 318.845 336.193 318.464C336.193 317.789 336.471 317.217 337.029 316.748C337.615 316.279 338.275 316.044 339.009 316.044C340.065 316.044 340.842 316.557 341.341 317.584L347.501 331.18L353.617 317.628ZM379.337 332.104C379.836 332.104 380.232 332.295 380.525 332.676C380.848 333.057 381.009 333.571 381.009 334.216C381.009 335.125 380.466 335.888 379.381 336.504C378.384 337.061 377.254 337.516 375.993 337.868C374.732 338.191 373.529 338.352 372.385 338.352C368.924 338.352 366.181 337.355 364.157 335.36C362.133 333.365 361.121 330.637 361.121 327.176C361.121 324.976 361.561 323.025 362.441 321.324C363.321 319.623 364.553 318.303 366.137 317.364C367.75 316.425 369.569 315.956 371.593 315.956C373.529 315.956 375.216 316.381 376.653 317.232C378.09 318.083 379.205 319.285 379.997 320.84C380.789 322.395 381.185 324.228 381.185 326.34C381.185 327.601 380.628 328.232 379.513 328.232H366.533C366.709 330.256 367.281 331.752 368.249 332.72C369.217 333.659 370.625 334.128 372.473 334.128C373.412 334.128 374.233 334.011 374.937 333.776C375.67 333.541 376.492 333.219 377.401 332.808C378.281 332.339 378.926 332.104 379.337 332.104ZM371.725 319.828C370.229 319.828 369.026 320.297 368.117 321.236C367.237 322.175 366.709 323.524 366.533 325.284H376.477C376.418 323.495 375.978 322.145 375.157 321.236C374.336 320.297 373.192 319.828 371.725 319.828ZM86.08 438.396C83.8213 438.396 81.68 438.103 79.656 437.516C77.6613 436.9 76.0333 436.079 74.772 435.052C74.0973 434.553 73.76 433.849 73.76 432.94C73.76 432.324 73.936 431.796 74.288 431.356C74.6693 430.887 75.1093 430.652 75.608 430.652C76.136 430.652 76.7373 430.857 77.412 431.268C78.6733 432.177 79.9933 432.837 81.372 433.248C82.7507 433.659 84.276 433.864 85.948 433.864C88.0893 433.864 89.732 433.497 90.876 432.764C92.02 432.001 92.592 430.901 92.592 429.464C92.592 428.349 92.0493 427.499 90.964 426.912C89.908 426.296 88.1333 425.709 85.64 425.152C83.0587 424.595 80.9613 423.949 79.348 423.216C77.7347 422.483 76.5173 421.544 75.696 420.4C74.8747 419.256 74.464 417.804 74.464 416.044C74.464 414.225 74.9773 412.597 76.004 411.16C77.0307 409.723 78.4533 408.608 80.272 407.816C82.12 406.995 84.188 406.584 86.476 406.584C90.6707 406.584 94.088 407.699 96.728 409.928C97.1093 410.251 97.3733 410.573 97.52 410.896C97.696 411.189 97.784 411.571 97.784 412.04C97.784 412.656 97.5933 413.199 97.212 413.668C96.86 414.108 96.4347 414.328 95.936 414.328C95.6427 414.328 95.364 414.284 95.1 414.196C94.8653 414.108 94.5427 413.947 94.132 413.712C92.9293 412.832 91.756 412.187 90.612 411.776C89.4973 411.336 88.1187 411.116 86.476 411.116C84.4813 411.116 82.8973 411.527 81.724 412.348C80.58 413.14 80.008 414.255 80.008 415.692C80.008 416.895 80.5213 417.819 81.548 418.464C82.5747 419.109 84.32 419.711 86.784 420.268C89.3947 420.855 91.5067 421.515 93.12 422.248C94.7627 422.952 96.0093 423.861 96.86 424.976C97.74 426.091 98.18 427.484 98.18 429.156C98.18 430.975 97.6667 432.588 96.64 433.996C95.6427 435.375 94.22 436.46 92.372 437.252C90.5533 438.015 88.456 438.396 86.08 438.396ZM120.827 432.104C121.325 432.104 121.721 432.295 122.015 432.676C122.337 433.057 122.499 433.571 122.499 434.216C122.499 435.125 121.956 435.888 120.871 436.504C119.873 437.061 118.744 437.516 117.483 437.868C116.221 438.191 115.019 438.352 113.875 438.352C110.413 438.352 107.671 437.355 105.647 435.36C103.623 433.365 102.611 430.637 102.611 427.176C102.611 424.976 103.051 423.025 103.931 421.324C104.811 419.623 106.043 418.303 107.627 417.364C109.24 416.425 111.059 415.956 113.083 415.956C115.019 415.956 116.705 416.381 118.143 417.232C119.58 418.083 120.695 419.285 121.487 420.84C122.279 422.395 122.675 424.228 122.675 426.34C122.675 427.601 122.117 428.232 121.003 428.232H108.023C108.199 430.256 108.771 431.752 109.739 432.72C110.707 433.659 112.115 434.128 113.963 434.128C114.901 434.128 115.723 434.011 116.427 433.776C117.16 433.541 117.981 433.219 118.891 432.808C119.771 432.339 120.416 432.104 120.827 432.104ZM113.215 419.828C111.719 419.828 110.516 420.297 109.607 421.236C108.727 422.175 108.199 423.524 108.023 425.284H117.967C117.908 423.495 117.468 422.145 116.647 421.236C115.825 420.297 114.681 419.828 113.215 419.828ZM140.066 416.044C140.828 415.985 141.43 416.147 141.87 416.528C142.31 416.909 142.53 417.481 142.53 418.244C142.53 419.036 142.339 419.623 141.958 420.004C141.576 420.385 140.887 420.635 139.89 420.752L138.57 420.884C136.839 421.06 135.563 421.647 134.742 422.644C133.95 423.641 133.554 424.888 133.554 426.384V435.624C133.554 436.475 133.29 437.135 132.762 437.604C132.234 438.044 131.574 438.264 130.782 438.264C129.99 438.264 129.33 438.044 128.802 437.604C128.303 437.135 128.054 436.475 128.054 435.624V418.596C128.054 417.775 128.303 417.144 128.802 416.704C129.33 416.264 129.975 416.044 130.738 416.044C131.5 416.044 132.116 416.264 132.586 416.704C133.055 417.115 133.29 417.716 133.29 418.508V420.268C133.847 418.977 134.668 417.98 135.754 417.276C136.868 416.572 138.1 416.176 139.45 416.088L140.066 416.044ZM162.113 417.628C162.348 417.1 162.656 416.704 163.037 416.44C163.448 416.176 163.888 416.044 164.357 416.044C165.032 416.044 165.633 416.279 166.161 416.748C166.719 417.188 166.997 417.745 166.997 418.42C166.997 418.772 166.909 419.124 166.733 419.476L158.593 436.504C158.329 437.061 157.948 437.487 157.449 437.78C156.98 438.073 156.452 438.22 155.865 438.22C155.308 438.22 154.765 438.073 154.237 437.78C153.739 437.487 153.357 437.061 153.093 436.504L144.909 419.476C144.763 419.183 144.689 418.845 144.689 418.464C144.689 417.789 144.968 417.217 145.525 416.748C146.112 416.279 146.772 416.044 147.505 416.044C148.561 416.044 149.339 416.557 149.837 417.584L155.997 431.18L162.113 417.628ZM187.834 432.104C188.332 432.104 188.728 432.295 189.022 432.676C189.344 433.057 189.506 433.571 189.506 434.216C189.506 435.125 188.963 435.888 187.878 436.504C186.88 437.061 185.751 437.516 184.49 437.868C183.228 438.191 182.026 438.352 180.882 438.352C177.42 438.352 174.678 437.355 172.654 435.36C170.63 433.365 169.618 430.637 169.618 427.176C169.618 424.976 170.058 423.025 170.938 421.324C171.818 419.623 173.05 418.303 174.634 417.364C176.247 416.425 178.066 415.956 180.09 415.956C182.026 415.956 183.712 416.381 185.15 417.232C186.587 418.083 187.702 419.285 188.494 420.84C189.286 422.395 189.682 424.228 189.682 426.34C189.682 427.601 189.124 428.232 188.01 428.232H175.03C175.206 430.256 175.778 431.752 176.746 432.72C177.714 433.659 179.122 434.128 180.97 434.128C181.908 434.128 182.73 434.011 183.434 433.776C184.167 433.541 184.988 433.219 185.898 432.808C186.778 432.339 187.423 432.104 187.834 432.104ZM180.222 419.828C178.726 419.828 177.523 420.297 176.614 421.236C175.734 422.175 175.206 423.524 175.03 425.284H184.974C184.915 423.495 184.475 422.145 183.654 421.236C182.832 420.297 181.688 419.828 180.222 419.828ZM202.849 438.352C199.651 438.352 197.07 437.721 195.105 436.46C194.166 435.903 193.697 435.111 193.697 434.084C193.697 433.497 193.858 433.028 194.181 432.676C194.503 432.295 194.899 432.104 195.369 432.104C195.867 432.104 196.557 432.339 197.437 432.808C198.375 433.248 199.226 433.585 199.989 433.82C200.781 434.055 201.778 434.172 202.981 434.172C204.213 434.172 205.166 433.967 205.841 433.556C206.545 433.145 206.897 432.573 206.897 431.84C206.897 431.341 206.75 430.945 206.457 430.652C206.193 430.359 205.694 430.095 204.961 429.86C204.257 429.596 203.171 429.303 201.705 428.98C199.094 428.452 197.217 427.704 196.073 426.736C194.958 425.768 194.401 424.433 194.401 422.732C194.401 421.441 194.782 420.283 195.545 419.256C196.307 418.2 197.349 417.393 198.669 416.836C200.018 416.249 201.543 415.956 203.245 415.956C204.477 415.956 205.665 416.117 206.809 416.44C207.953 416.733 208.979 417.173 209.889 417.76C210.827 418.347 211.297 419.124 211.297 420.092C211.297 420.679 211.135 421.177 210.813 421.588C210.49 421.969 210.094 422.16 209.625 422.16C209.302 422.16 208.979 422.101 208.657 421.984C208.363 421.837 207.982 421.632 207.513 421.368C206.662 420.928 205.929 420.605 205.313 420.4C204.697 420.165 203.934 420.048 203.025 420.048C201.939 420.048 201.074 420.268 200.429 420.708C199.813 421.148 199.505 421.749 199.505 422.512C199.505 423.245 199.827 423.803 200.473 424.184C201.118 424.565 202.365 424.947 204.213 425.328C206.178 425.739 207.718 426.208 208.833 426.736C209.947 427.264 210.739 427.924 211.209 428.716C211.707 429.508 211.957 430.52 211.957 431.752C211.957 433.747 211.121 435.345 209.449 436.548C207.806 437.751 205.606 438.352 202.849 438.352ZM239.934 438.352C237.734 438.352 235.798 437.897 234.126 436.988C232.483 436.079 231.207 434.773 230.298 433.072C229.388 431.371 228.934 429.391 228.934 427.132C228.934 424.873 229.388 422.908 230.298 421.236C231.207 419.535 232.483 418.229 234.126 417.32C235.798 416.411 237.734 415.956 239.934 415.956C242.134 415.956 244.055 416.411 245.698 417.32C247.37 418.229 248.646 419.535 249.526 421.236C250.435 422.908 250.89 424.873 250.89 427.132C250.89 429.391 250.435 431.371 249.526 433.072C248.646 434.773 247.37 436.079 245.698 436.988C244.055 437.897 242.134 438.352 239.934 438.352ZM239.89 434.084C241.679 434.084 243.043 433.497 243.982 432.324C244.92 431.151 245.39 429.42 245.39 427.132C245.39 424.873 244.92 423.157 243.982 421.984C243.043 420.781 241.694 420.18 239.934 420.18C238.174 420.18 236.81 420.781 235.842 421.984C234.903 423.157 234.434 424.873 234.434 427.132C234.434 429.42 234.903 431.151 235.842 432.324C236.78 433.497 238.13 434.084 239.89 434.084ZM268.806 415.956C271.387 415.956 273.309 416.689 274.57 418.156C275.831 419.623 276.462 421.837 276.462 424.8V435.624C276.462 436.445 276.213 437.091 275.714 437.56C275.245 438.029 274.585 438.264 273.734 438.264C272.883 438.264 272.209 438.029 271.71 437.56C271.211 437.091 270.962 436.445 270.962 435.624V425.108C270.962 423.436 270.639 422.219 269.994 421.456C269.378 420.693 268.395 420.312 267.046 420.312C265.462 420.312 264.186 420.811 263.218 421.808C262.279 422.805 261.81 424.14 261.81 425.812V435.624C261.81 436.445 261.561 437.091 261.062 437.56C260.563 438.029 259.889 438.264 259.038 438.264C258.187 438.264 257.513 438.029 257.014 437.56C256.545 437.091 256.31 436.445 256.31 435.624V418.596C256.31 417.833 256.559 417.217 257.058 416.748C257.557 416.279 258.231 416.044 259.082 416.044C259.845 416.044 260.461 416.279 260.93 416.748C261.429 417.188 261.678 417.775 261.678 418.508V419.696C262.411 418.493 263.394 417.569 264.626 416.924C265.858 416.279 267.251 415.956 268.806 415.956ZM285.656 438.264C284.864 438.264 284.204 438.044 283.676 437.604C283.178 437.135 282.928 436.475 282.928 435.624V409.356C282.928 408.505 283.178 407.86 283.676 407.42C284.204 406.98 284.864 406.76 285.656 406.76C286.448 406.76 287.108 406.98 287.636 407.42C288.164 407.86 288.428 408.505 288.428 409.356V435.624C288.428 436.475 288.164 437.135 287.636 437.604C287.108 438.044 286.448 438.264 285.656 438.264ZM309.984 417.628C310.219 417.1 310.527 416.719 310.908 416.484C311.319 416.22 311.759 416.088 312.228 416.088C312.903 416.088 313.504 416.323 314.032 416.792C314.59 417.232 314.868 417.789 314.868 418.464C314.868 418.787 314.78 419.124 314.604 419.476L302.592 444.644C302.094 445.641 301.316 446.14 300.26 446.14C299.586 446.14 298.984 445.92 298.456 445.48C297.958 445.069 297.708 444.541 297.708 443.896C297.708 443.573 297.796 443.207 297.972 442.796L300.964 436.504L292.78 419.476C292.634 419.183 292.56 418.845 292.56 418.464C292.56 417.789 292.839 417.217 293.396 416.748C293.983 416.279 294.643 416.044 295.376 416.044C295.875 416.044 296.33 416.176 296.74 416.44C297.151 416.675 297.474 417.056 297.708 417.584L303.868 431.18L309.984 417.628ZM341.174 415.956C344.166 415.956 346.38 416.704 347.818 418.2C349.284 419.667 350.018 421.911 350.018 424.932V435.668C350.018 436.46 349.783 437.091 349.314 437.56C348.844 438 348.199 438.22 347.378 438.22C346.615 438.22 345.984 437.985 345.486 437.516C345.016 437.047 344.782 436.431 344.782 435.668V434.7C344.283 435.844 343.491 436.739 342.406 437.384C341.35 438.029 340.118 438.352 338.71 438.352C337.272 438.352 335.967 438.059 334.794 437.472C333.62 436.885 332.696 436.079 332.022 435.052C331.347 434.025 331.01 432.881 331.01 431.62C331.01 430.036 331.406 428.789 332.198 427.88C333.019 426.971 334.339 426.311 336.158 425.9C337.976 425.489 340.484 425.284 343.682 425.284H344.782V424.272C344.782 422.835 344.474 421.793 343.858 421.148C343.242 420.473 342.244 420.136 340.866 420.136C340.015 420.136 339.15 420.268 338.27 420.532C337.39 420.767 336.348 421.119 335.146 421.588C334.383 421.969 333.826 422.16 333.474 422.16C332.946 422.16 332.506 421.969 332.154 421.588C331.831 421.207 331.67 420.708 331.67 420.092C331.67 419.593 331.787 419.168 332.022 418.816C332.286 418.435 332.711 418.083 333.298 417.76C334.324 417.203 335.542 416.763 336.95 416.44C338.387 416.117 339.795 415.956 341.174 415.956ZM339.81 434.392C341.276 434.392 342.464 433.908 343.374 432.94C344.312 431.943 344.782 430.667 344.782 429.112V428.188H343.99C342.024 428.188 340.499 428.276 339.414 428.452C338.328 428.628 337.551 428.936 337.082 429.376C336.612 429.816 336.378 430.417 336.378 431.18C336.378 432.119 336.7 432.896 337.346 433.512C338.02 434.099 338.842 434.392 339.81 434.392ZM364.276 438.352C361.078 438.352 358.497 437.721 356.532 436.46C355.593 435.903 355.124 435.111 355.124 434.084C355.124 433.497 355.285 433.028 355.608 432.676C355.93 432.295 356.326 432.104 356.796 432.104C357.294 432.104 357.984 432.339 358.864 432.808C359.802 433.248 360.653 433.585 361.416 433.82C362.208 434.055 363.205 434.172 364.408 434.172C365.64 434.172 366.593 433.967 367.268 433.556C367.972 433.145 368.324 432.573 368.324 431.84C368.324 431.341 368.177 430.945 367.884 430.652C367.62 430.359 367.121 430.095 366.388 429.86C365.684 429.596 364.598 429.303 363.132 428.98C360.521 428.452 358.644 427.704 357.5 426.736C356.385 425.768 355.828 424.433 355.828 422.732C355.828 421.441 356.209 420.283 356.972 419.256C357.734 418.2 358.776 417.393 360.096 416.836C361.445 416.249 362.97 415.956 364.672 415.956C365.904 415.956 367.092 416.117 368.236 416.44C369.38 416.733 370.406 417.173 371.316 417.76C372.254 418.347 372.724 419.124 372.724 420.092C372.724 420.679 372.562 421.177 372.24 421.588C371.917 421.969 371.521 422.16 371.052 422.16C370.729 422.16 370.406 422.101 370.084 421.984C369.79 421.837 369.409 421.632 368.94 421.368C368.089 420.928 367.356 420.605 366.74 420.4C366.124 420.165 365.361 420.048 364.452 420.048C363.366 420.048 362.501 420.268 361.856 420.708C361.24 421.148 360.932 421.749 360.932 422.512C360.932 423.245 361.254 423.803 361.9 424.184C362.545 424.565 363.792 424.947 365.64 425.328C367.605 425.739 369.145 426.208 370.26 426.736C371.374 427.264 372.166 427.924 372.636 428.716C373.134 429.508 373.384 430.52 373.384 431.752C373.384 433.747 372.548 435.345 370.876 436.548C369.233 437.751 367.033 438.352 364.276 438.352ZM400.876 415.956C403.868 415.956 406.083 416.704 407.52 418.2C408.987 419.667 409.72 421.911 409.72 424.932V435.668C409.72 436.46 409.486 437.091 409.016 437.56C408.547 438 407.902 438.22 407.08 438.22C406.318 438.22 405.687 437.985 405.188 437.516C404.719 437.047 404.484 436.431 404.484 435.668V434.7C403.986 435.844 403.194 436.739 402.108 437.384C401.052 438.029 399.82 438.352 398.412 438.352C396.975 438.352 395.67 438.059 394.496 437.472C393.323 436.885 392.399 436.079 391.724 435.052C391.05 434.025 390.712 432.881 390.712 431.62C390.712 430.036 391.108 428.789 391.9 427.88C392.722 426.971 394.042 426.311 395.86 425.9C397.679 425.489 400.187 425.284 403.384 425.284H404.484V424.272C404.484 422.835 404.176 421.793 403.56 421.148C402.944 420.473 401.947 420.136 400.568 420.136C399.718 420.136 398.852 420.268 397.972 420.532C397.092 420.767 396.051 421.119 394.848 421.588C394.086 421.969 393.528 422.16 393.176 422.16C392.648 422.16 392.208 421.969 391.856 421.588C391.534 421.207 391.372 420.708 391.372 420.092C391.372 419.593 391.49 419.168 391.724 418.816C391.988 418.435 392.414 418.083 393 417.76C394.027 417.203 395.244 416.763 396.652 416.44C398.09 416.117 399.498 415.956 400.876 415.956ZM399.512 434.392C400.979 434.392 402.167 433.908 403.076 432.94C404.015 431.943 404.484 430.667 404.484 429.112V428.188H403.692C401.727 428.188 400.202 428.276 399.116 428.452C398.031 428.628 397.254 428.936 396.784 429.376C396.315 429.816 396.08 430.417 396.08 431.18C396.08 432.119 396.403 432.896 397.048 433.512C397.723 434.099 398.544 434.392 399.512 434.392ZM436.803 438.352C433.606 438.352 431.025 437.721 429.059 436.46C428.121 435.903 427.651 435.111 427.651 434.084C427.651 433.497 427.813 433.028 428.135 432.676C428.458 432.295 428.854 432.104 429.323 432.104C429.822 432.104 430.511 432.339 431.391 432.808C432.33 433.248 433.181 433.585 433.943 433.82C434.735 434.055 435.733 434.172 436.935 434.172C438.167 434.172 439.121 433.967 439.795 433.556C440.499 433.145 440.851 432.573 440.851 431.84C440.851 431.341 440.705 430.945 440.411 430.652C440.147 430.359 439.649 430.095 438.915 429.86C438.211 429.596 437.126 429.303 435.659 428.98C433.049 428.452 431.171 427.704 430.027 426.736C428.913 425.768 428.355 424.433 428.355 422.732C428.355 421.441 428.737 420.283 429.499 419.256C430.262 418.2 431.303 417.393 432.623 416.836C433.973 416.249 435.498 415.956 437.199 415.956C438.431 415.956 439.619 416.117 440.763 416.44C441.907 416.733 442.934 417.173 443.843 417.76C444.782 418.347 445.251 419.124 445.251 420.092C445.251 420.679 445.09 421.177 444.767 421.588C444.445 421.969 444.049 422.16 443.579 422.16C443.257 422.16 442.934 422.101 442.611 421.984C442.318 421.837 441.937 421.632 441.467 421.368C440.617 420.928 439.883 420.605 439.267 420.4C438.651 420.165 437.889 420.048 436.979 420.048C435.894 420.048 435.029 420.268 434.383 420.708C433.767 421.148 433.459 421.749 433.459 422.512C433.459 423.245 433.782 423.803 434.427 424.184C435.073 424.565 436.319 424.947 438.167 425.328C440.133 425.739 441.673 426.208 442.787 426.736C443.902 427.264 444.694 427.924 445.163 428.716C445.662 429.508 445.911 430.52 445.911 431.752C445.911 433.747 445.075 435.345 443.403 436.548C441.761 437.751 439.561 438.352 436.803 438.352ZM462.212 434.172C463.679 434.26 464.412 434.92 464.412 436.152C464.412 436.856 464.119 437.399 463.532 437.78C462.975 438.132 462.168 438.279 461.112 438.22L459.924 438.132C454.996 437.78 452.532 435.14 452.532 430.212V420.62H450.332C449.54 420.62 448.924 420.444 448.484 420.092C448.073 419.74 447.868 419.227 447.868 418.552C447.868 417.877 448.073 417.364 448.484 417.012C448.924 416.66 449.54 416.484 450.332 416.484H452.532V412.436C452.532 411.644 452.781 411.013 453.28 410.544C453.779 410.075 454.453 409.84 455.304 409.84C456.125 409.84 456.785 410.075 457.284 410.544C457.783 411.013 458.032 411.644 458.032 412.436V416.484H461.772C462.564 416.484 463.165 416.66 463.576 417.012C464.016 417.364 464.236 417.877 464.236 418.552C464.236 419.227 464.016 419.74 463.576 420.092C463.165 420.444 462.564 420.62 461.772 420.62H458.032V430.608C458.032 432.779 459.029 433.937 461.024 434.084L462.212 434.172ZM477.486 415.956C480.478 415.956 482.693 416.704 484.13 418.2C485.597 419.667 486.33 421.911 486.33 424.932V435.668C486.33 436.46 486.095 437.091 485.626 437.56C485.157 438 484.511 438.22 483.69 438.22C482.927 438.22 482.297 437.985 481.798 437.516C481.329 437.047 481.094 436.431 481.094 435.668V434.7C480.595 435.844 479.803 436.739 478.718 437.384C477.662 438.029 476.43 438.352 475.022 438.352C473.585 438.352 472.279 438.059 471.106 437.472C469.933 436.885 469.009 436.079 468.334 435.052C467.659 434.025 467.322 432.881 467.322 431.62C467.322 430.036 467.718 428.789 468.51 427.88C469.331 426.971 470.651 426.311 472.47 425.9C474.289 425.489 476.797 425.284 479.994 425.284H481.094V424.272C481.094 422.835 480.786 421.793 480.17 421.148C479.554 420.473 478.557 420.136 477.178 420.136C476.327 420.136 475.462 420.268 474.582 420.532C473.702 420.767 472.661 421.119 471.458 421.588C470.695 421.969 470.138 422.16 469.786 422.16C469.258 422.16 468.818 421.969 468.466 421.588C468.143 421.207 467.982 420.708 467.982 420.092C467.982 419.593 468.099 419.168 468.334 418.816C468.598 418.435 469.023 418.083 469.61 417.76C470.637 417.203 471.854 416.763 473.262 416.44C474.699 416.117 476.107 415.956 477.486 415.956ZM476.122 434.392C477.589 434.392 478.777 433.908 479.686 432.94C480.625 431.943 481.094 430.667 481.094 429.112V428.188H480.302C478.337 428.188 476.811 428.276 475.726 428.452C474.641 428.628 473.863 428.936 473.394 429.376C472.925 429.816 472.69 430.417 472.69 431.18C472.69 432.119 473.013 432.896 473.658 433.512C474.333 434.099 475.154 434.392 476.122 434.392ZM503.976 434.172C505.443 434.26 506.176 434.92 506.176 436.152C506.176 436.856 505.883 437.399 505.296 437.78C504.739 438.132 503.932 438.279 502.876 438.22L501.688 438.132C496.76 437.78 494.296 435.14 494.296 430.212V420.62H492.096C491.304 420.62 490.688 420.444 490.248 420.092C489.837 419.74 489.632 419.227 489.632 418.552C489.632 417.877 489.837 417.364 490.248 417.012C490.688 416.66 491.304 416.484 492.096 416.484H494.296V412.436C494.296 411.644 494.545 411.013 495.044 410.544C495.543 410.075 496.217 409.84 497.068 409.84C497.889 409.84 498.549 410.075 499.048 410.544C499.547 411.013 499.796 411.644 499.796 412.436V416.484H503.536C504.328 416.484 504.929 416.66 505.34 417.012C505.78 417.364 506 417.877 506 418.552C506 419.227 505.78 419.74 505.34 420.092C504.929 420.444 504.328 420.62 503.536 420.62H499.796V430.608C499.796 432.779 500.793 433.937 502.788 434.084L503.976 434.172ZM512.65 438.264C511.858 438.264 511.198 438.044 510.67 437.604C510.171 437.135 509.922 436.475 509.922 435.624V418.64C509.922 417.789 510.171 417.144 510.67 416.704C511.198 416.264 511.858 416.044 512.65 416.044C513.442 416.044 514.102 416.264 514.63 416.704C515.158 417.144 515.422 417.789 515.422 418.64V435.624C515.422 436.475 515.158 437.135 514.63 437.604C514.102 438.044 513.442 438.264 512.65 438.264ZM512.65 412.128C511.653 412.128 510.861 411.864 510.274 411.336C509.687 410.779 509.394 410.06 509.394 409.18C509.394 408.3 509.687 407.596 510.274 407.068C510.861 406.54 511.653 406.276 512.65 406.276C513.618 406.276 514.395 406.54 514.982 407.068C515.598 407.596 515.906 408.3 515.906 409.18C515.906 410.06 515.613 410.779 515.026 411.336C514.439 411.864 513.647 412.128 512.65 412.128ZM531.522 438.352C529.381 438.352 527.489 437.897 525.846 436.988C524.233 436.079 522.986 434.788 522.106 433.116C521.226 431.444 520.786 429.493 520.786 427.264C520.786 425.035 521.241 423.069 522.15 421.368C523.089 419.637 524.394 418.303 526.066 417.364C527.738 416.425 529.659 415.956 531.83 415.956C532.974 415.956 534.118 416.117 535.262 416.44C536.435 416.763 537.462 417.203 538.342 417.76C539.281 418.376 539.75 419.153 539.75 420.092C539.75 420.737 539.589 421.265 539.266 421.676C538.973 422.057 538.577 422.248 538.078 422.248C537.755 422.248 537.418 422.175 537.066 422.028C536.714 421.881 536.362 421.705 536.01 421.5C535.365 421.119 534.749 420.825 534.162 420.62C533.575 420.385 532.901 420.268 532.138 420.268C530.319 420.268 528.911 420.869 527.914 422.072C526.946 423.245 526.462 424.947 526.462 427.176C526.462 429.376 526.946 431.077 527.914 432.28C528.911 433.453 530.319 434.04 532.138 434.04C532.871 434.04 533.517 433.937 534.074 433.732C534.661 433.497 535.306 433.189 536.01 432.808C536.45 432.544 536.831 432.353 537.154 432.236C537.477 432.089 537.799 432.016 538.122 432.016C538.591 432.016 538.987 432.221 539.31 432.632C539.633 433.043 539.794 433.556 539.794 434.172C539.794 434.671 539.677 435.111 539.442 435.492C539.237 435.844 538.885 436.167 538.386 436.46C537.477 437.047 536.421 437.516 535.218 437.868C534.015 438.191 532.783 438.352 531.522 438.352ZM572.168 417.628C572.402 417.1 572.71 416.704 573.092 416.44C573.502 416.176 573.942 416.044 574.412 416.044C575.086 416.044 575.688 416.279 576.216 416.748C576.773 417.188 577.052 417.745 577.052 418.42C577.052 418.772 576.964 419.124 576.788 419.476L568.648 436.504C568.384 437.061 568.002 437.487 567.504 437.78C567.034 438.073 566.506 438.22 565.92 438.22C565.362 438.22 564.82 438.073 564.292 437.78C563.793 437.487 563.412 437.061 563.148 436.504L554.964 419.476C554.817 419.183 554.744 418.845 554.744 418.464C554.744 417.789 555.022 417.217 555.58 416.748C556.166 416.279 556.826 416.044 557.56 416.044C558.616 416.044 559.393 416.557 559.892 417.584L566.052 431.18L572.168 417.628ZM584.662 438.264C583.87 438.264 583.21 438.044 582.682 437.604C582.184 437.135 581.934 436.475 581.934 435.624V418.64C581.934 417.789 582.184 417.144 582.682 416.704C583.21 416.264 583.87 416.044 584.662 416.044C585.454 416.044 586.114 416.264 586.642 416.704C587.17 417.144 587.434 417.789 587.434 418.64V435.624C587.434 436.475 587.17 437.135 586.642 437.604C586.114 438.044 585.454 438.264 584.662 438.264ZM584.662 412.128C583.665 412.128 582.873 411.864 582.286 411.336C581.7 410.779 581.406 410.06 581.406 409.18C581.406 408.3 581.7 407.596 582.286 407.068C582.873 406.54 583.665 406.276 584.662 406.276C585.63 406.276 586.408 406.54 586.994 407.068C587.61 407.596 587.918 408.3 587.918 409.18C587.918 410.06 587.625 410.779 587.038 411.336C586.452 411.864 585.66 412.128 584.662 412.128ZM601.774 438.352C598.577 438.352 595.995 437.721 594.03 436.46C593.091 435.903 592.622 435.111 592.622 434.084C592.622 433.497 592.783 433.028 593.106 432.676C593.429 432.295 593.825 432.104 594.294 432.104C594.793 432.104 595.482 432.339 596.362 432.808C597.301 433.248 598.151 433.585 598.914 433.82C599.706 434.055 600.703 434.172 601.906 434.172C603.138 434.172 604.091 433.967 604.766 433.556C605.47 433.145 605.822 432.573 605.822 431.84C605.822 431.341 605.675 430.945 605.382 430.652C605.118 430.359 604.619 430.095 603.886 429.86C603.182 429.596 602.097 429.303 600.63 428.98C598.019 428.452 596.142 427.704 594.998 426.736C593.883 425.768 593.326 424.433 593.326 422.732C593.326 421.441 593.707 420.283 594.47 419.256C595.233 418.2 596.274 417.393 597.594 416.836C598.943 416.249 600.469 415.956 602.17 415.956C603.402 415.956 604.59 416.117 605.734 416.44C606.878 416.733 607.905 417.173 608.814 417.76C609.753 418.347 610.222 419.124 610.222 420.092C610.222 420.679 610.061 421.177 609.738 421.588C609.415 421.969 609.019 422.16 608.55 422.16C608.227 422.16 607.905 422.101 607.582 421.984C607.289 421.837 606.907 421.632 606.438 421.368C605.587 420.928 604.854 420.605 604.238 420.4C603.622 420.165 602.859 420.048 601.95 420.048C600.865 420.048 599.999 420.268 599.354 420.708C598.738 421.148 598.43 421.749 598.43 422.512C598.43 423.245 598.753 423.803 599.398 424.184C600.043 424.565 601.29 424.947 603.138 425.328C605.103 425.739 606.643 426.208 607.758 426.736C608.873 427.264 609.665 427.924 610.134 428.716C610.633 429.508 610.882 430.52 610.882 431.752C610.882 433.747 610.046 435.345 608.374 436.548C606.731 437.751 604.531 438.352 601.774 438.352ZM633.206 416.044C634.056 416.044 634.731 416.279 635.23 416.748C635.728 417.217 635.978 417.848 635.978 418.64V435.712C635.978 436.475 635.714 437.091 635.186 437.56C634.687 438.029 634.027 438.264 633.206 438.264C632.414 438.264 631.783 438.044 631.314 437.604C630.844 437.164 630.61 436.563 630.61 435.8V434.7C629.935 435.873 629.026 436.783 627.882 437.428C626.738 438.044 625.447 438.352 624.01 438.352C618.73 438.352 616.09 435.389 616.09 429.464V418.64C616.09 417.848 616.339 417.217 616.838 416.748C617.336 416.279 617.996 416.044 618.818 416.044C619.668 416.044 620.343 416.279 620.842 416.748C621.34 417.217 621.59 417.848 621.59 418.64V429.508C621.59 431.033 621.898 432.163 622.514 432.896C623.13 433.629 624.098 433.996 625.418 433.996C626.943 433.996 628.16 433.497 629.07 432.5C630.008 431.473 630.478 430.124 630.478 428.452V418.64C630.478 417.848 630.727 417.217 631.226 416.748C631.724 416.279 632.384 416.044 633.206 416.044ZM651.91 415.956C654.902 415.956 657.117 416.704 658.554 418.2C660.021 419.667 660.754 421.911 660.754 424.932V435.668C660.754 436.46 660.519 437.091 660.05 437.56C659.581 438 658.935 438.22 658.114 438.22C657.351 438.22 656.721 437.985 656.222 437.516C655.753 437.047 655.518 436.431 655.518 435.668V434.7C655.019 435.844 654.227 436.739 653.142 437.384C652.086 438.029 650.854 438.352 649.446 438.352C648.009 438.352 646.703 438.059 645.53 437.472C644.357 436.885 643.433 436.079 642.758 435.052C642.083 434.025 641.746 432.881 641.746 431.62C641.746 430.036 642.142 428.789 642.934 427.88C643.755 426.971 645.075 426.311 646.894 425.9C648.713 425.489 651.221 425.284 654.418 425.284H655.518V424.272C655.518 422.835 655.21 421.793 654.594 421.148C653.978 420.473 652.981 420.136 651.602 420.136C650.751 420.136 649.886 420.268 649.006 420.532C648.126 420.767 647.085 421.119 645.882 421.588C645.119 421.969 644.562 422.16 644.21 422.16C643.682 422.16 643.242 421.969 642.89 421.588C642.567 421.207 642.406 420.708 642.406 420.092C642.406 419.593 642.523 419.168 642.758 418.816C643.022 418.435 643.447 418.083 644.034 417.76C645.061 417.203 646.278 416.763 647.686 416.44C649.123 416.117 650.531 415.956 651.91 415.956ZM650.546 434.392C652.013 434.392 653.201 433.908 654.11 432.94C655.049 431.943 655.518 430.667 655.518 429.112V428.188H654.726C652.761 428.188 651.235 428.276 650.15 428.452C649.065 428.628 648.287 428.936 647.818 429.376C647.349 429.816 647.114 430.417 647.114 431.18C647.114 432.119 647.437 432.896 648.082 433.512C648.757 434.099 649.578 434.392 650.546 434.392ZM669.952 438.264C669.16 438.264 668.5 438.044 667.972 437.604C667.473 437.135 667.224 436.475 667.224 435.624V409.356C667.224 408.505 667.473 407.86 667.972 407.42C668.5 406.98 669.16 406.76 669.952 406.76C670.744 406.76 671.404 406.98 671.932 407.42C672.46 407.86 672.724 408.505 672.724 409.356V435.624C672.724 436.475 672.46 437.135 671.932 437.604C671.404 438.044 670.744 438.264 669.952 438.264ZM681.784 431.664C682.781 431.664 683.588 432.031 684.204 432.764C684.82 433.497 685.128 434.568 685.128 435.976C685.128 438.763 684.16 441.168 682.224 443.192C681.842 443.573 681.432 443.764 680.992 443.764C680.552 443.764 680.17 443.617 679.848 443.324C679.525 443.031 679.364 442.679 679.364 442.268C679.364 441.916 679.51 441.579 679.804 441.256C680.684 440.317 681.256 439.261 681.52 438.088C680.669 438 679.965 437.677 679.408 437.12C678.88 436.533 678.616 435.815 678.616 434.964C678.616 434.025 678.909 433.248 679.496 432.632C680.112 431.987 680.874 431.664 681.784 431.664ZM716.391 415.956C718.972 415.956 720.894 416.689 722.155 418.156C723.416 419.623 724.047 421.837 724.047 424.8V435.624C724.047 436.445 723.798 437.091 723.299 437.56C722.83 438.029 722.17 438.264 721.319 438.264C720.468 438.264 719.794 438.029 719.295 437.56C718.796 437.091 718.547 436.445 718.547 435.624V425.108C718.547 423.436 718.224 422.219 717.579 421.456C716.963 420.693 715.98 420.312 714.631 420.312C713.047 420.312 711.771 420.811 710.803 421.808C709.864 422.805 709.395 424.14 709.395 425.812V435.624C709.395 436.445 709.146 437.091 708.647 437.56C708.148 438.029 707.474 438.264 706.623 438.264C705.772 438.264 705.098 438.029 704.599 437.56C704.13 437.091 703.895 436.445 703.895 435.624V418.596C703.895 417.833 704.144 417.217 704.643 416.748C705.142 416.279 705.816 416.044 706.667 416.044C707.43 416.044 708.046 416.279 708.515 416.748C709.014 417.188 709.263 417.775 709.263 418.508V419.696C709.996 418.493 710.979 417.569 712.211 416.924C713.443 416.279 714.836 415.956 716.391 415.956ZM740.325 438.352C738.125 438.352 736.189 437.897 734.517 436.988C732.875 436.079 731.599 434.773 730.689 433.072C729.78 431.371 729.325 429.391 729.325 427.132C729.325 424.873 729.78 422.908 730.689 421.236C731.599 419.535 732.875 418.229 734.517 417.32C736.189 416.411 738.125 415.956 740.325 415.956C742.525 415.956 744.447 416.411 746.089 417.32C747.761 418.229 749.037 419.535 749.917 421.236C750.827 422.908 751.281 424.873 751.281 427.132C751.281 429.391 750.827 431.371 749.917 433.072C749.037 434.773 747.761 436.079 746.089 436.988C744.447 437.897 742.525 438.352 740.325 438.352ZM740.281 434.084C742.071 434.084 743.435 433.497 744.373 432.324C745.312 431.151 745.781 429.42 745.781 427.132C745.781 424.873 745.312 423.157 744.373 421.984C743.435 420.781 742.085 420.18 740.325 420.18C738.565 420.18 737.201 420.781 736.233 421.984C735.295 423.157 734.825 424.873 734.825 427.132C734.825 429.42 735.295 431.151 736.233 432.324C737.172 433.497 738.521 434.084 740.281 434.084ZM780.395 411.072C779.046 411.16 778.063 411.571 777.447 412.304C776.831 413.037 776.523 414.093 776.523 415.472V416.484H780.263C781.906 416.484 782.727 417.173 782.727 418.552C782.727 419.931 781.906 420.62 780.263 420.62H776.523V435.624C776.523 436.475 776.259 437.12 775.731 437.56C775.233 438 774.587 438.22 773.795 438.22C773.003 438.22 772.343 438 771.815 437.56C771.287 437.12 771.023 436.475 771.023 435.624V420.62H768.823C767.181 420.62 766.359 419.931 766.359 418.552C766.359 417.173 767.181 416.484 768.823 416.484H771.023V416.176C771.023 413.419 771.742 411.263 773.179 409.708C774.646 408.124 776.699 407.229 779.339 407.024L780.483 406.936C781.657 406.848 782.478 406.98 782.947 407.332C783.446 407.655 783.695 408.168 783.695 408.872C783.695 410.133 782.977 410.837 781.539 410.984L780.395 411.072ZM803.161 416.044C804.011 416.044 804.686 416.279 805.185 416.748C805.683 417.217 805.933 417.848 805.933 418.64V435.712C805.933 436.475 805.669 437.091 805.141 437.56C804.642 438.029 803.982 438.264 803.161 438.264C802.369 438.264 801.738 438.044 801.269 437.604C800.799 437.164 800.565 436.563 800.565 435.8V434.7C799.89 435.873 798.981 436.783 797.837 437.428C796.693 438.044 795.402 438.352 793.965 438.352C788.685 438.352 786.045 435.389 786.045 429.464V418.64C786.045 417.848 786.294 417.217 786.793 416.748C787.291 416.279 787.951 416.044 788.773 416.044C789.623 416.044 790.298 416.279 790.797 416.748C791.295 417.217 791.545 417.848 791.545 418.64V429.508C791.545 431.033 791.853 432.163 792.469 432.896C793.085 433.629 794.053 433.996 795.373 433.996C796.898 433.996 798.115 433.497 799.025 432.5C799.963 431.473 800.433 430.124 800.433 428.452V418.64C800.433 417.848 800.682 417.217 801.181 416.748C801.679 416.279 802.339 416.044 803.161 416.044ZM825.033 415.956C827.615 415.956 829.536 416.689 830.797 418.156C832.059 419.623 832.689 421.837 832.689 424.8V435.624C832.689 436.445 832.44 437.091 831.941 437.56C831.472 438.029 830.812 438.264 829.961 438.264C829.111 438.264 828.436 438.029 827.937 437.56C827.439 437.091 827.189 436.445 827.189 435.624V425.108C827.189 423.436 826.867 422.219 826.221 421.456C825.605 420.693 824.623 420.312 823.273 420.312C821.689 420.312 820.413 420.811 819.445 421.808C818.507 422.805 818.037 424.14 818.037 425.812V435.624C818.037 436.445 817.788 437.091 817.289 437.56C816.791 438.029 816.116 438.264 815.265 438.264C814.415 438.264 813.74 438.029 813.241 437.56C812.772 437.091 812.537 436.445 812.537 435.624V418.596C812.537 417.833 812.787 417.217 813.285 416.748C813.784 416.279 814.459 416.044 815.309 416.044C816.072 416.044 816.688 416.279 817.157 416.748C817.656 417.188 817.905 417.775 817.905 418.508V419.696C818.639 418.493 819.621 417.569 820.853 416.924C822.085 416.279 823.479 415.956 825.033 415.956ZM848.703 438.352C846.562 438.352 844.67 437.897 843.027 436.988C841.414 436.079 840.167 434.788 839.287 433.116C838.407 431.444 837.967 429.493 837.967 427.264C837.967 425.035 838.422 423.069 839.331 421.368C840.27 419.637 841.575 418.303 843.247 417.364C844.919 416.425 846.841 415.956 849.011 415.956C850.155 415.956 851.299 416.117 852.443 416.44C853.617 416.763 854.643 417.203 855.523 417.76C856.462 418.376 856.931 419.153 856.931 420.092C856.931 420.737 856.77 421.265 856.447 421.676C856.154 422.057 855.758 422.248 855.259 422.248C854.937 422.248 854.599 422.175 854.247 422.028C853.895 421.881 853.543 421.705 853.191 421.5C852.546 421.119 851.93 420.825 851.343 420.62C850.757 420.385 850.082 420.268 849.319 420.268C847.501 420.268 846.093 420.869 845.095 422.072C844.127 423.245 843.643 424.947 843.643 427.176C843.643 429.376 844.127 431.077 845.095 432.28C846.093 433.453 847.501 434.04 849.319 434.04C850.053 434.04 850.698 433.937 851.255 433.732C851.842 433.497 852.487 433.189 853.191 432.808C853.631 432.544 854.013 432.353 854.335 432.236C854.658 432.089 854.981 432.016 855.303 432.016C855.773 432.016 856.169 432.221 856.491 432.632C856.814 433.043 856.975 433.556 856.975 434.172C856.975 434.671 856.858 435.111 856.623 435.492C856.418 435.844 856.066 436.167 855.567 436.46C854.658 437.047 853.602 437.516 852.399 437.868C851.197 438.191 849.965 438.352 848.703 438.352ZM872.825 434.172C874.291 434.26 875.025 434.92 875.025 436.152C875.025 436.856 874.731 437.399 874.145 437.78C873.587 438.132 872.781 438.279 871.725 438.22L870.537 438.132C865.609 437.78 863.145 435.14 863.145 430.212V420.62H860.945C860.153 420.62 859.537 420.444 859.097 420.092C858.686 419.74 858.481 419.227 858.481 418.552C858.481 417.877 858.686 417.364 859.097 417.012C859.537 416.66 860.153 416.484 860.945 416.484H863.145V412.436C863.145 411.644 863.394 411.013 863.893 410.544C864.391 410.075 865.066 409.84 865.917 409.84C866.738 409.84 867.398 410.075 867.897 410.544C868.395 411.013 868.645 411.644 868.645 412.436V416.484H872.385C873.177 416.484 873.778 416.66 874.189 417.012C874.629 417.364 874.849 417.877 874.849 418.552C874.849 419.227 874.629 419.74 874.189 420.092C873.778 420.444 873.177 420.62 872.385 420.62H868.645V430.608C868.645 432.779 869.642 433.937 871.637 434.084L872.825 434.172ZM881.499 438.264C880.707 438.264 880.047 438.044 879.519 437.604C879.02 437.135 878.771 436.475 878.771 435.624V418.64C878.771 417.789 879.02 417.144 879.519 416.704C880.047 416.264 880.707 416.044 881.499 416.044C882.291 416.044 882.951 416.264 883.479 416.704C884.007 417.144 884.271 417.789 884.271 418.64V435.624C884.271 436.475 884.007 437.135 883.479 437.604C882.951 438.044 882.291 438.264 881.499 438.264ZM881.499 412.128C880.502 412.128 879.71 411.864 879.123 411.336C878.536 410.779 878.243 410.06 878.243 409.18C878.243 408.3 878.536 407.596 879.123 407.068C879.71 406.54 880.502 406.276 881.499 406.276C882.467 406.276 883.244 406.54 883.831 407.068C884.447 407.596 884.755 408.3 884.755 409.18C884.755 410.06 884.462 410.779 883.875 411.336C883.288 411.864 882.496 412.128 881.499 412.128ZM900.635 438.352C898.435 438.352 896.499 437.897 894.827 436.988C893.184 436.079 891.908 434.773 890.999 433.072C890.089 431.371 889.635 429.391 889.635 427.132C889.635 424.873 890.089 422.908 890.999 421.236C891.908 419.535 893.184 418.229 894.827 417.32C896.499 416.411 898.435 415.956 900.635 415.956C902.835 415.956 904.756 416.411 906.399 417.32C908.071 418.229 909.347 419.535 910.227 421.236C911.136 422.908 911.591 424.873 911.591 427.132C911.591 429.391 911.136 431.371 910.227 433.072C909.347 434.773 908.071 436.079 906.399 436.988C904.756 437.897 902.835 438.352 900.635 438.352ZM900.591 434.084C902.38 434.084 903.744 433.497 904.683 432.324C905.621 431.151 906.091 429.42 906.091 427.132C906.091 424.873 905.621 423.157 904.683 421.984C903.744 420.781 902.395 420.18 900.635 420.18C898.875 420.18 897.511 420.781 896.543 421.984C895.604 423.157 895.135 424.873 895.135 427.132C895.135 429.42 895.604 431.151 896.543 432.324C897.481 433.497 898.831 434.084 900.591 434.084ZM929.507 415.956C932.089 415.956 934.01 416.689 935.271 418.156C936.533 419.623 937.163 421.837 937.163 424.8V435.624C937.163 436.445 936.914 437.091 936.415 437.56C935.946 438.029 935.286 438.264 934.435 438.264C933.585 438.264 932.91 438.029 932.411 437.56C931.913 437.091 931.663 436.445 931.663 435.624V425.108C931.663 423.436 931.341 422.219 930.695 421.456C930.079 420.693 929.097 420.312 927.747 420.312C926.163 420.312 924.887 420.811 923.919 421.808C922.981 422.805 922.511 424.14 922.511 425.812V435.624C922.511 436.445 922.262 437.091 921.763 437.56C921.265 438.029 920.59 438.264 919.739 438.264C918.889 438.264 918.214 438.029 917.715 437.56C917.246 437.091 917.011 436.445 917.011 435.624V418.596C917.011 417.833 917.261 417.217 917.759 416.748C918.258 416.279 918.933 416.044 919.783 416.044C920.546 416.044 921.162 416.279 921.631 416.748C922.13 417.188 922.379 417.775 922.379 418.508V419.696C923.113 418.493 924.095 417.569 925.327 416.924C926.559 416.279 927.953 415.956 929.507 415.956ZM952.958 415.956C955.95 415.956 958.164 416.704 959.602 418.2C961.068 419.667 961.802 421.911 961.802 424.932V435.668C961.802 436.46 961.567 437.091 961.098 437.56C960.628 438 959.983 438.22 959.162 438.22C958.399 438.22 957.768 437.985 957.27 437.516C956.8 437.047 956.566 436.431 956.566 435.668V434.7C956.067 435.844 955.275 436.739 954.19 437.384C953.134 438.029 951.902 438.352 950.494 438.352C949.056 438.352 947.751 438.059 946.578 437.472C945.404 436.885 944.48 436.079 943.806 435.052C943.131 434.025 942.794 432.881 942.794 431.62C942.794 430.036 943.19 428.789 943.982 427.88C944.803 426.971 946.123 426.311 947.942 425.9C949.76 425.489 952.268 425.284 955.466 425.284H956.566V424.272C956.566 422.835 956.258 421.793 955.642 421.148C955.026 420.473 954.028 420.136 952.65 420.136C951.799 420.136 950.934 420.268 950.054 420.532C949.174 420.767 948.132 421.119 946.93 421.588C946.167 421.969 945.61 422.16 945.258 422.16C944.73 422.16 944.29 421.969 943.938 421.588C943.615 421.207 943.454 420.708 943.454 420.092C943.454 419.593 943.571 419.168 943.806 418.816C944.07 418.435 944.495 418.083 945.082 417.76C946.108 417.203 947.326 416.763 948.734 416.44C950.171 416.117 951.579 415.956 952.958 415.956ZM951.594 434.392C953.06 434.392 954.248 433.908 955.158 432.94C956.096 431.943 956.566 430.667 956.566 429.112V428.188H955.774C953.808 428.188 952.283 428.276 951.198 428.452C950.112 428.628 949.335 428.936 948.866 429.376C948.396 429.816 948.162 430.417 948.162 431.18C948.162 432.119 948.484 432.896 949.13 433.512C949.804 434.099 950.626 434.392 951.594 434.392ZM970.999 438.264C970.207 438.264 969.547 438.044 969.019 437.604C968.521 437.135 968.271 436.475 968.271 435.624V409.356C968.271 408.505 968.521 407.86 969.019 407.42C969.547 406.98 970.207 406.76 970.999 406.76C971.791 406.76 972.451 406.98 972.979 407.42C973.507 407.86 973.771 408.505 973.771 409.356V435.624C973.771 436.475 973.507 437.135 972.979 437.604C972.451 438.044 971.791 438.264 970.999 438.264ZM983.051 438.264C982.259 438.264 981.599 438.044 981.071 437.604C980.573 437.135 980.323 436.475 980.323 435.624V418.64C980.323 417.789 980.573 417.144 981.071 416.704C981.599 416.264 982.259 416.044 983.051 416.044C983.843 416.044 984.503 416.264 985.031 416.704C985.559 417.144 985.823 417.789 985.823 418.64V435.624C985.823 436.475 985.559 437.135 985.031 437.604C984.503 438.044 983.843 438.264 983.051 438.264ZM983.051 412.128C982.054 412.128 981.262 411.864 980.675 411.336C980.089 410.779 979.795 410.06 979.795 409.18C979.795 408.3 980.089 407.596 980.675 407.068C981.262 406.54 982.054 406.276 983.051 406.276C984.019 406.276 984.797 406.54 985.383 407.068C985.999 407.596 986.307 408.3 986.307 409.18C986.307 410.06 986.014 410.779 985.427 411.336C984.841 411.864 984.049 412.128 983.051 412.128ZM1004.5 434.172C1005.96 434.26 1006.7 434.92 1006.7 436.152C1006.7 436.856 1006.4 437.399 1005.82 437.78C1005.26 438.132 1004.45 438.279 1003.4 438.22L1002.21 438.132C997.28 437.78 994.816 435.14 994.816 430.212V420.62H992.616C991.824 420.62 991.208 420.444 990.768 420.092C990.358 419.74 990.152 419.227 990.152 418.552C990.152 417.877 990.358 417.364 990.768 417.012C991.208 416.66 991.824 416.484 992.616 416.484H994.816V412.436C994.816 411.644 995.066 411.013 995.564 410.544C996.063 410.075 996.738 409.84 997.588 409.84C998.41 409.84 999.07 410.075 999.568 410.544C1000.07 411.013 1000.32 411.644 1000.32 412.436V416.484H1004.06C1004.85 416.484 1005.45 416.66 1005.86 417.012C1006.3 417.364 1006.52 417.877 1006.52 418.552C1006.52 419.227 1006.3 419.74 1005.86 420.092C1005.45 420.444 1004.85 420.62 1004.06 420.62H1000.32V430.608C1000.32 432.779 1001.31 433.937 1003.31 434.084L1004.5 434.172ZM1025.79 417.628C1026.03 417.1 1026.33 416.719 1026.71 416.484C1027.13 416.22 1027.57 416.088 1028.03 416.088C1028.71 416.088 1029.31 416.323 1029.84 416.792C1030.4 417.232 1030.67 417.789 1030.67 418.464C1030.67 418.787 1030.59 419.124 1030.41 419.476L1018.4 444.644C1017.9 445.641 1017.12 446.14 1016.07 446.14C1015.39 446.14 1014.79 445.92 1014.26 445.48C1013.76 445.069 1013.51 444.541 1013.51 443.896C1013.51 443.573 1013.6 443.207 1013.78 442.796L1016.77 436.504L1008.59 419.476C1008.44 419.183 1008.37 418.845 1008.37 418.464C1008.37 417.789 1008.65 417.217 1009.2 416.748C1009.79 416.279 1010.45 416.044 1011.18 416.044C1011.68 416.044 1012.14 416.176 1012.55 416.44C1012.96 416.675 1013.28 417.056 1013.51 417.584L1019.67 431.18L1025.79 417.628Z" fill="black"/>
<path opacity="0.8" d="M115.2 207.805C115.41 207.205 115.74 206.755 116.19 206.455C116.67 206.155 117.195 206.005 117.765 206.005C118.485 206.005 119.1 206.23 119.61 206.68C120.15 207.13 120.42 207.73 120.42 208.48C120.42 208.75 120.345 209.14 120.195 209.65L110.52 236.425C110.28 237.025 109.875 237.49 109.305 237.82C108.765 238.15 108.165 238.315 107.505 238.315C106.845 238.315 106.23 238.15 105.66 237.82C105.09 237.49 104.7 237.025 104.49 236.425L97.02 215.23L89.415 236.425C89.175 237.025 88.77 237.49 88.2 237.82C87.66 238.15 87.06 238.315 86.4 238.315C85.74 238.315 85.125 238.15 84.555 237.82C84.015 237.49 83.64 237.025 83.43 236.425L73.755 209.65C73.605 209.2 73.53 208.81 73.53 208.48C73.53 207.73 73.8 207.13 74.34 206.68C74.91 206.23 75.57 206.005 76.32 206.005C76.92 206.005 77.46 206.155 77.94 206.455C78.42 206.755 78.765 207.205 78.975 207.805L86.625 229.81L94.5 207.94C94.71 207.34 95.055 206.875 95.535 206.545C96.015 206.185 96.54 206.005 97.11 206.005C97.68 206.005 98.205 206.185 98.685 206.545C99.195 206.875 99.555 207.355 99.765 207.985L107.415 230.08L115.2 207.805ZM140.726 215.455C145.886 215.455 148.466 218.47 148.466 224.5V235.57C148.466 236.41 148.211 237.07 147.701 237.55C147.221 238.03 146.546 238.27 145.676 238.27C144.806 238.27 144.116 238.03 143.606 237.55C143.096 237.07 142.841 236.41 142.841 235.57V224.5C142.841 222.91 142.511 221.755 141.851 221.035C141.221 220.285 140.216 219.91 138.836 219.91C137.216 219.91 135.911 220.42 134.921 221.44C133.961 222.46 133.481 223.825 133.481 225.535V235.57C133.481 236.41 133.226 237.07 132.716 237.55C132.206 238.03 131.516 238.27 130.646 238.27C129.776 238.27 129.086 238.03 128.576 237.55C128.096 237.07 127.856 236.41 127.856 235.57V208.66C127.856 207.88 128.111 207.25 128.621 206.77C129.161 206.29 129.851 206.05 130.691 206.05C131.531 206.05 132.206 206.275 132.716 206.725C133.226 207.175 133.481 207.79 133.481 208.57V219.055C134.231 217.885 135.221 217 136.451 216.4C137.711 215.77 139.136 215.455 140.726 215.455ZM170.424 217.165C170.664 216.625 170.979 216.235 171.369 215.995C171.789 215.725 172.239 215.59 172.719 215.59C173.409 215.59 174.024 215.83 174.564 216.31C175.134 216.76 175.419 217.33 175.419 218.02C175.419 218.35 175.329 218.695 175.149 219.055L162.864 244.795C162.354 245.815 161.559 246.325 160.479 246.325C159.789 246.325 159.174 246.1 158.634 245.65C158.124 245.23 157.869 244.69 157.869 244.03C157.869 243.7 157.959 243.325 158.139 242.905L161.199 236.47L152.829 219.055C152.679 218.755 152.604 218.41 152.604 218.02C152.604 217.33 152.889 216.745 153.459 216.265C154.059 215.785 154.734 215.545 155.484 215.545C155.994 215.545 156.459 215.68 156.879 215.95C157.299 216.19 157.629 216.58 157.869 217.12L164.169 231.025L170.424 217.165ZM211.143 206.05C211.983 206.05 212.673 206.29 213.213 206.77C213.753 207.25 214.023 207.88 214.023 208.66V235.57C214.023 236.38 213.768 237.025 213.258 237.505C212.748 237.985 212.073 238.225 211.233 238.225C210.393 238.225 209.718 237.985 209.208 237.505C208.698 237.025 208.443 236.38 208.443 235.57V234.445C207.783 235.675 206.823 236.635 205.563 237.325C204.333 238.015 202.923 238.36 201.333 238.36C199.443 238.36 197.748 237.88 196.248 236.92C194.778 235.96 193.623 234.61 192.783 232.87C191.973 231.1 191.568 229.075 191.568 226.795C191.568 224.515 191.973 222.52 192.783 220.81C193.623 219.1 194.778 217.78 196.248 216.85C197.718 215.92 199.413 215.455 201.333 215.455C202.923 215.455 204.333 215.785 205.563 216.445C206.793 217.105 207.738 218.035 208.398 219.235V208.57C208.398 207.82 208.638 207.22 209.118 206.77C209.628 206.29 210.303 206.05 211.143 206.05ZM202.818 233.995C204.618 233.995 205.998 233.38 206.958 232.15C207.948 230.92 208.443 229.165 208.443 226.885C208.443 224.605 207.948 222.865 206.958 221.665C205.998 220.435 204.633 219.82 202.863 219.82C201.063 219.82 199.668 220.42 198.678 221.62C197.688 222.82 197.193 224.545 197.193 226.795C197.193 229.075 197.688 230.845 198.678 232.105C199.668 233.365 201.048 233.995 202.818 233.995ZM223.499 238.27C222.689 238.27 222.014 238.045 221.474 237.595C220.964 237.115 220.709 236.44 220.709 235.57V218.2C220.709 217.33 220.964 216.67 221.474 216.22C222.014 215.77 222.689 215.545 223.499 215.545C224.309 215.545 224.984 215.77 225.524 216.22C226.064 216.67 226.334 217.33 226.334 218.2V235.57C226.334 236.44 226.064 237.115 225.524 237.595C224.984 238.045 224.309 238.27 223.499 238.27ZM223.499 211.54C222.479 211.54 221.669 211.27 221.069 210.73C220.469 210.16 220.169 209.425 220.169 208.525C220.169 207.625 220.469 206.905 221.069 206.365C221.669 205.825 222.479 205.555 223.499 205.555C224.489 205.555 225.284 205.825 225.884 206.365C226.514 206.905 226.829 207.625 226.829 208.525C226.829 209.425 226.529 210.16 225.929 210.73C225.329 211.27 224.519 211.54 223.499 211.54ZM251.395 206.05C252.235 206.05 252.925 206.29 253.465 206.77C254.005 207.25 254.275 207.88 254.275 208.66V235.57C254.275 236.38 254.02 237.025 253.51 237.505C253 237.985 252.325 238.225 251.485 238.225C250.645 238.225 249.97 237.985 249.46 237.505C248.95 237.025 248.695 236.38 248.695 235.57V234.445C248.035 235.675 247.075 236.635 245.815 237.325C244.585 238.015 243.175 238.36 241.585 238.36C239.695 238.36 238 237.88 236.5 236.92C235.03 235.96 233.875 234.61 233.035 232.87C232.225 231.1 231.82 229.075 231.82 226.795C231.82 224.515 232.225 222.52 233.035 220.81C233.875 219.1 235.03 217.78 236.5 216.85C237.97 215.92 239.665 215.455 241.585 215.455C243.175 215.455 244.585 215.785 245.815 216.445C247.045 217.105 247.99 218.035 248.65 219.235V208.57C248.65 207.82 248.89 207.22 249.37 206.77C249.88 206.29 250.555 206.05 251.395 206.05ZM243.07 233.995C244.87 233.995 246.25 233.38 247.21 232.15C248.2 230.92 248.695 229.165 248.695 226.885C248.695 224.605 248.2 222.865 247.21 221.665C246.25 220.435 244.885 219.82 243.115 219.82C241.315 219.82 239.92 220.42 238.93 221.62C237.94 222.82 237.445 224.545 237.445 226.795C237.445 229.075 237.94 230.845 238.93 232.105C239.92 233.365 241.3 233.995 243.07 233.995ZM273.741 215.455C276.381 215.455 278.346 216.205 279.636 217.705C280.926 219.205 281.571 221.47 281.571 224.5V235.57C281.571 236.41 281.316 237.07 280.806 237.55C280.326 238.03 279.651 238.27 278.781 238.27C277.911 238.27 277.221 238.03 276.711 237.55C276.201 237.07 275.946 236.41 275.946 235.57V224.815C275.946 223.105 275.616 221.86 274.956 221.08C274.326 220.3 273.321 219.91 271.941 219.91C270.321 219.91 269.016 220.42 268.026 221.44C267.066 222.46 266.586 223.825 266.586 225.535V235.57C266.586 236.41 266.331 237.07 265.821 237.55C265.311 238.03 264.621 238.27 263.751 238.27C262.881 238.27 262.191 238.03 261.681 237.55C261.201 237.07 260.961 236.41 260.961 235.57V218.155C260.961 217.375 261.216 216.745 261.726 216.265C262.236 215.785 262.926 215.545 263.796 215.545C264.576 215.545 265.206 215.785 265.686 216.265C266.196 216.715 266.451 217.315 266.451 218.065V219.28C267.201 218.05 268.206 217.105 269.466 216.445C270.726 215.785 272.151 215.455 273.741 215.455ZM290.002 206.05C291.022 206.05 291.847 206.425 292.477 207.175C293.107 207.925 293.422 209.02 293.422 210.46C293.422 213.28 292.432 215.755 290.452 217.885C290.092 218.275 289.672 218.47 289.192 218.47C288.772 218.47 288.382 218.32 288.022 218.02C287.692 217.69 287.527 217.315 287.527 216.895C287.527 216.535 287.677 216.19 287.977 215.86C288.877 214.9 289.462 213.82 289.732 212.62C288.862 212.53 288.142 212.2 287.572 211.63C287.032 211.03 286.762 210.295 286.762 209.425C286.762 208.465 287.062 207.67 287.662 207.04C288.292 206.38 289.072 206.05 290.002 206.05ZM311.237 234.085C312.737 234.175 313.487 234.85 313.487 236.11C313.487 236.83 313.187 237.385 312.587 237.775C312.017 238.135 311.192 238.285 310.112 238.225L308.897 238.135C303.857 237.775 301.337 235.075 301.337 230.035V220.225H299.087C298.277 220.225 297.647 220.045 297.197 219.685C296.777 219.325 296.567 218.8 296.567 218.11C296.567 217.42 296.777 216.895 297.197 216.535C297.647 216.175 298.277 215.995 299.087 215.995H301.337V211.855C301.337 211.045 301.592 210.4 302.102 209.92C302.612 209.44 303.302 209.2 304.172 209.2C305.012 209.2 305.687 209.44 306.197 209.92C306.707 210.4 306.962 211.045 306.962 211.855V215.995H310.787C311.597 215.995 312.212 216.175 312.632 216.535C313.082 216.895 313.307 217.42 313.307 218.11C313.307 218.8 313.082 219.325 312.632 219.685C312.212 220.045 311.597 220.225 310.787 220.225H306.962V230.44C306.962 232.66 307.982 233.845 310.022 233.995L311.237 234.085ZM333.225 238.27C332.415 238.27 331.74 238.045 331.2 237.595C330.69 237.115 330.435 236.44 330.435 235.57V218.2C330.435 217.33 330.69 216.67 331.2 216.22C331.74 215.77 332.415 215.545 333.225 215.545C334.035 215.545 334.71 215.77 335.25 216.22C335.79 216.67 336.06 217.33 336.06 218.2V235.57C336.06 236.44 335.79 237.115 335.25 237.595C334.71 238.045 334.035 238.27 333.225 238.27ZM333.225 211.54C332.205 211.54 331.395 211.27 330.795 210.73C330.195 210.16 329.895 209.425 329.895 208.525C329.895 207.625 330.195 206.905 330.795 206.365C331.395 205.825 332.205 205.555 333.225 205.555C334.215 205.555 335.01 205.825 335.61 206.365C336.24 206.905 336.555 207.625 336.555 208.525C336.555 209.425 336.255 210.16 335.655 210.73C335.055 211.27 334.245 211.54 333.225 211.54ZM355.158 234.085C356.658 234.175 357.408 234.85 357.408 236.11C357.408 236.83 357.108 237.385 356.508 237.775C355.938 238.135 355.113 238.285 354.033 238.225L352.818 238.135C347.778 237.775 345.258 235.075 345.258 230.035V220.225H343.008C342.198 220.225 341.568 220.045 341.118 219.685C340.698 219.325 340.488 218.8 340.488 218.11C340.488 217.42 340.698 216.895 341.118 216.535C341.568 216.175 342.198 215.995 343.008 215.995H345.258V211.855C345.258 211.045 345.513 210.4 346.023 209.92C346.533 209.44 347.223 209.2 348.093 209.2C348.933 209.2 349.608 209.44 350.118 209.92C350.628 210.4 350.883 211.045 350.883 211.855V215.995H354.708C355.518 215.995 356.133 216.175 356.553 216.535C357.003 216.895 357.228 217.42 357.228 218.11C357.228 218.8 357.003 219.325 356.553 219.685C356.133 220.045 355.518 220.225 354.708 220.225H350.883V230.44C350.883 232.66 351.903 233.845 353.943 233.995L355.158 234.085ZM404.101 217.21C404.311 216.67 404.611 216.265 405.001 215.995C405.421 215.725 405.871 215.59 406.351 215.59C407.041 215.59 407.656 215.83 408.196 216.31C408.766 216.76 409.051 217.33 409.051 218.02C409.051 218.41 408.976 218.755 408.826 219.055L401.401 236.47C401.161 237.04 400.786 237.475 400.276 237.775C399.796 238.075 399.256 238.225 398.656 238.225C398.086 238.225 397.546 238.075 397.036 237.775C396.556 237.475 396.196 237.04 395.956 236.47L390.601 223.6L385.426 236.47C385.186 237.04 384.811 237.475 384.301 237.775C383.821 238.075 383.281 238.225 382.681 238.225C382.111 238.225 381.571 238.075 381.061 237.775C380.551 237.475 380.176 237.04 379.936 236.47L372.556 219.055C372.406 218.665 372.331 218.335 372.331 218.065C372.331 217.375 372.631 216.79 373.231 216.31C373.831 215.8 374.491 215.545 375.211 215.545C375.721 215.545 376.186 215.68 376.606 215.95C377.026 216.22 377.341 216.625 377.551 217.165L382.861 230.89L388.306 217.3C388.546 216.73 388.891 216.31 389.341 216.04C389.791 215.74 390.286 215.59 390.826 215.59C391.366 215.59 391.861 215.74 392.311 216.04C392.761 216.31 393.106 216.73 393.346 217.3L398.836 230.935L404.101 217.21ZM423.48 238.36C421.23 238.36 419.25 237.895 417.54 236.965C415.86 236.035 414.555 234.7 413.625 232.96C412.695 231.22 412.23 229.195 412.23 226.885C412.23 224.575 412.695 222.565 413.625 220.855C414.555 219.115 415.86 217.78 417.54 216.85C419.25 215.92 421.23 215.455 423.48 215.455C425.73 215.455 427.695 215.92 429.375 216.85C431.085 217.78 432.39 219.115 433.29 220.855C434.22 222.565 434.685 224.575 434.685 226.885C434.685 229.195 434.22 231.22 433.29 232.96C432.39 234.7 431.085 236.035 429.375 236.965C427.695 237.895 425.73 238.36 423.48 238.36ZM423.435 233.995C425.265 233.995 426.66 233.395 427.62 232.195C428.58 230.995 429.06 229.225 429.06 226.885C429.06 224.575 428.58 222.82 427.62 221.62C426.66 220.39 425.28 219.775 423.48 219.775C421.68 219.775 420.285 220.39 419.295 221.62C418.335 222.82 417.855 224.575 417.855 226.885C417.855 229.225 418.335 230.995 419.295 232.195C420.255 233.395 421.635 233.995 423.435 233.995ZM452.513 215.545C453.293 215.485 453.908 215.65 454.358 216.04C454.808 216.43 455.033 217.015 455.033 217.795C455.033 218.605 454.838 219.205 454.448 219.595C454.058 219.985 453.353 220.24 452.333 220.36L450.983 220.495C449.213 220.675 447.908 221.275 447.068 222.295C446.258 223.315 445.853 224.59 445.853 226.12V235.57C445.853 236.44 445.583 237.115 445.043 237.595C444.503 238.045 443.828 238.27 443.018 238.27C442.208 238.27 441.533 238.045 440.993 237.595C440.483 237.115 440.228 236.44 440.228 235.57V218.155C440.228 217.315 440.483 216.67 440.993 216.22C441.533 215.77 442.193 215.545 442.973 215.545C443.753 215.545 444.383 215.77 444.863 216.22C445.343 216.64 445.583 217.255 445.583 218.065V219.865C446.153 218.545 446.993 217.525 448.103 216.805C449.243 216.085 450.503 215.68 451.883 215.59L452.513 215.545ZM477.93 233.635C478.53 234.205 478.83 234.85 478.83 235.57C478.83 236.26 478.575 236.875 478.065 237.415C477.585 237.955 477.015 238.225 476.355 238.225C475.695 238.225 475.08 237.955 474.51 237.415L463.98 227.875V235.57C463.98 236.44 463.71 237.1 463.17 237.55C462.63 238 461.955 238.225 461.145 238.225C460.335 238.225 459.66 238 459.12 237.55C458.61 237.1 458.355 236.44 458.355 235.57V208.705C458.355 207.835 458.61 207.175 459.12 206.725C459.66 206.275 460.335 206.05 461.145 206.05C461.955 206.05 462.63 206.275 463.17 206.725C463.71 207.175 463.98 207.835 463.98 208.705V225.625L473.61 216.4C474.15 215.86 474.765 215.59 475.455 215.59C476.145 215.59 476.745 215.845 477.255 216.355C477.765 216.865 478.02 217.465 478.02 218.155C478.02 218.845 477.735 219.475 477.165 220.045L470.1 226.615L477.93 233.635ZM489.564 228.82C489.054 228.82 488.634 228.64 488.304 228.28C488.004 227.92 487.854 227.425 487.854 226.795C487.854 225.145 488.154 223.75 488.754 222.61C489.354 221.47 490.224 220.225 491.364 218.875C492.264 217.795 492.924 216.895 493.344 216.175C493.764 215.455 493.974 214.645 493.974 213.745C493.974 212.755 493.599 211.975 492.849 211.405C492.129 210.805 491.139 210.505 489.879 210.505C488.799 210.505 487.764 210.745 486.774 211.225C485.784 211.675 484.629 212.335 483.309 213.205C482.559 213.625 481.944 213.835 481.464 213.835C480.954 213.835 480.504 213.61 480.114 213.16C479.754 212.68 479.574 212.125 479.574 211.495C479.574 210.625 479.934 209.92 480.654 209.38C481.914 208.3 483.399 207.46 485.109 206.86C486.819 206.23 488.544 205.915 490.284 205.915C492.114 205.915 493.734 206.23 495.144 206.86C496.584 207.49 497.694 208.36 498.474 209.47C499.284 210.58 499.689 211.855 499.689 213.295C499.689 214.855 499.314 216.22 498.564 217.39C497.814 218.53 496.719 219.82 495.279 221.26C494.049 222.52 493.119 223.585 492.489 224.455C491.889 225.295 491.514 226.255 491.364 227.335C491.274 227.815 491.064 228.19 490.734 228.46C490.434 228.7 490.044 228.82 489.564 228.82ZM489.654 238.27C488.694 238.27 487.899 237.955 487.269 237.325C486.639 236.665 486.324 235.855 486.324 234.895C486.324 233.935 486.639 233.14 487.269 232.51C487.899 231.85 488.694 231.52 489.654 231.52C490.614 231.52 491.409 231.85 492.039 232.51C492.669 233.14 492.984 233.935 492.984 234.895C492.984 235.855 492.654 236.665 491.994 237.325C491.364 237.955 490.584 238.27 489.654 238.27Z" fill="#F05930"/>
</svg>
