<svg width="1366" height="768" viewBox="0 0 1366 768" fill="none" xmlns="http://www.w3.org/2000/svg">
<rect width="1365.33" height="768" fill="white"/>
<path opacity="0.8" d="M103.46 334.612C103.636 334.993 103.724 335.375 103.724 335.756C103.724 336.431 103.445 337.003 102.888 337.472C102.36 337.941 101.744 338.176 101.04 338.176C100.571 338.176 100.131 338.059 99.72 337.824C99.3093 337.56 98.9867 337.164 98.752 336.636L96.112 330.74H80.624L77.984 336.636C77.7493 337.164 77.4267 337.56 77.016 337.824C76.6053 338.059 76.1507 338.176 75.652 338.176C74.9773 338.176 74.3613 337.941 73.804 337.472C73.2467 337.003 72.968 336.431 72.968 335.756C72.968 335.375 73.056 334.993 73.232 334.612L85.376 308.52C85.64 307.933 86.036 307.493 86.564 307.2C87.1213 306.877 87.708 306.716 88.324 306.716C88.94 306.716 89.512 306.877 90.04 307.2C90.5973 307.493 91.008 307.933 91.272 308.52L103.46 334.612ZM82.56 326.34H94.176L88.368 313.272L82.56 326.34ZM120.892 315.956C123.474 315.956 125.395 316.689 126.656 318.156C127.918 319.623 128.548 321.837 128.548 324.8V335.624C128.548 336.445 128.299 337.091 127.8 337.56C127.331 338.029 126.671 338.264 125.82 338.264C124.97 338.264 124.295 338.029 123.796 337.56C123.298 337.091 123.048 336.445 123.048 335.624V325.108C123.048 323.436 122.726 322.219 122.08 321.456C121.464 320.693 120.482 320.312 119.132 320.312C117.548 320.312 116.272 320.811 115.304 321.808C114.366 322.805 113.896 324.14 113.896 325.812V335.624C113.896 336.445 113.647 337.091 113.148 337.56C112.65 338.029 111.975 338.264 111.124 338.264C110.274 338.264 109.599 338.029 109.1 337.56C108.631 337.091 108.396 336.445 108.396 335.624V318.596C108.396 317.833 108.646 317.217 109.144 316.748C109.643 316.279 110.318 316.044 111.168 316.044C111.931 316.044 112.547 316.279 113.016 316.748C113.515 317.188 113.764 317.775 113.764 318.508V319.696C114.498 318.493 115.48 317.569 116.712 316.924C117.944 316.279 119.338 315.956 120.892 315.956ZM144.827 338.352C142.627 338.352 140.691 337.897 139.019 336.988C137.376 336.079 136.1 334.773 135.191 333.072C134.281 331.371 133.827 329.391 133.827 327.132C133.827 324.873 134.281 322.908 135.191 321.236C136.1 319.535 137.376 318.229 139.019 317.32C140.691 316.411 142.627 315.956 144.827 315.956C147.027 315.956 148.948 316.411 150.591 317.32C152.263 318.229 153.539 319.535 154.419 321.236C155.328 322.908 155.783 324.873 155.783 327.132C155.783 329.391 155.328 331.371 154.419 333.072C153.539 334.773 152.263 336.079 150.591 336.988C148.948 337.897 147.027 338.352 144.827 338.352ZM144.783 334.084C146.572 334.084 147.936 333.497 148.875 332.324C149.813 331.151 150.283 329.42 150.283 327.132C150.283 324.873 149.813 323.157 148.875 321.984C147.936 320.781 146.587 320.18 144.827 320.18C143.067 320.18 141.703 320.781 140.735 321.984C139.796 323.157 139.327 324.873 139.327 327.132C139.327 329.42 139.796 331.151 140.735 332.324C141.673 333.497 143.023 334.084 144.783 334.084ZM172.25 334.172C173.717 334.26 174.45 334.92 174.45 336.152C174.45 336.856 174.157 337.399 173.57 337.78C173.013 338.132 172.206 338.279 171.15 338.22L169.962 338.132C165.034 337.78 162.57 335.14 162.57 330.212V320.62H160.37C159.578 320.62 158.962 320.444 158.522 320.092C158.112 319.74 157.906 319.227 157.906 318.552C157.906 317.877 158.112 317.364 158.522 317.012C158.962 316.66 159.578 316.484 160.37 316.484H162.57V312.436C162.57 311.644 162.82 311.013 163.318 310.544C163.817 310.075 164.492 309.84 165.342 309.84C166.164 309.84 166.824 310.075 167.322 310.544C167.821 311.013 168.07 311.644 168.07 312.436V316.484H171.81C172.602 316.484 173.204 316.66 173.614 317.012C174.054 317.364 174.274 317.877 174.274 318.552C174.274 319.227 174.054 319.74 173.614 320.092C173.204 320.444 172.602 320.62 171.81 320.62H168.07V330.608C168.07 332.779 169.068 333.937 171.062 334.084L172.25 334.172ZM190.78 315.956C195.826 315.956 198.348 318.904 198.348 324.8V335.624C198.348 336.445 198.099 337.091 197.6 337.56C197.131 338.029 196.471 338.264 195.62 338.264C194.77 338.264 194.095 338.029 193.596 337.56C193.098 337.091 192.848 336.445 192.848 335.624V324.8C192.848 323.245 192.526 322.116 191.88 321.412C191.264 320.679 190.282 320.312 188.932 320.312C187.348 320.312 186.072 320.811 185.104 321.808C184.166 322.805 183.696 324.14 183.696 325.812V335.624C183.696 336.445 183.447 337.091 182.948 337.56C182.45 338.029 181.775 338.264 180.924 338.264C180.074 338.264 179.399 338.029 178.9 337.56C178.431 337.091 178.196 336.445 178.196 335.624V309.312C178.196 308.549 178.446 307.933 178.944 307.464C179.472 306.995 180.147 306.76 180.968 306.76C181.79 306.76 182.45 306.98 182.948 307.42C183.447 307.86 183.696 308.461 183.696 309.224V319.476C184.43 318.332 185.398 317.467 186.6 316.88C187.832 316.264 189.226 315.956 190.78 315.956ZM221.843 332.104C222.341 332.104 222.737 332.295 223.031 332.676C223.353 333.057 223.515 333.571 223.515 334.216C223.515 335.125 222.972 335.888 221.887 336.504C220.889 337.061 219.76 337.516 218.499 337.868C217.237 338.191 216.035 338.352 214.891 338.352C211.429 338.352 208.687 337.355 206.663 335.36C204.639 333.365 203.627 330.637 203.627 327.176C203.627 324.976 204.067 323.025 204.947 321.324C205.827 319.623 207.059 318.303 208.643 317.364C210.256 316.425 212.075 315.956 214.099 315.956C216.035 315.956 217.721 316.381 219.159 317.232C220.596 318.083 221.711 319.285 222.503 320.84C223.295 322.395 223.691 324.228 223.691 326.34C223.691 327.601 223.133 328.232 222.019 328.232H209.039C209.215 330.256 209.787 331.752 210.755 332.72C211.723 333.659 213.131 334.128 214.979 334.128C215.917 334.128 216.739 334.011 217.443 333.776C218.176 333.541 218.997 333.219 219.907 332.808C220.787 332.339 221.432 332.104 221.843 332.104ZM214.231 319.828C212.735 319.828 211.532 320.297 210.623 321.236C209.743 322.175 209.215 323.524 209.039 325.284H218.983C218.924 323.495 218.484 322.145 217.663 321.236C216.841 320.297 215.697 319.828 214.231 319.828ZM241.082 316.044C241.844 315.985 242.446 316.147 242.886 316.528C243.326 316.909 243.546 317.481 243.546 318.244C243.546 319.036 243.355 319.623 242.974 320.004C242.592 320.385 241.903 320.635 240.906 320.752L239.586 320.884C237.855 321.06 236.579 321.647 235.758 322.644C234.966 323.641 234.57 324.888 234.57 326.384V335.624C234.57 336.475 234.306 337.135 233.778 337.604C233.25 338.044 232.59 338.264 231.798 338.264C231.006 338.264 230.346 338.044 229.818 337.604C229.319 337.135 229.07 336.475 229.07 335.624V318.596C229.07 317.775 229.319 317.144 229.818 316.704C230.346 316.264 230.991 316.044 231.754 316.044C232.516 316.044 233.132 316.264 233.602 316.704C234.071 317.115 234.306 317.716 234.306 318.508V320.268C234.863 318.977 235.684 317.98 236.77 317.276C237.884 316.572 239.116 316.176 240.466 316.088L241.082 316.044ZM269.167 338.352C267.025 338.352 265.133 337.897 263.491 336.988C261.877 336.079 260.631 334.788 259.751 333.116C258.871 331.444 258.431 329.493 258.431 327.264C258.431 325.035 258.885 323.069 259.795 321.368C260.733 319.637 262.039 318.303 263.711 317.364C265.383 316.425 267.304 315.956 269.475 315.956C270.619 315.956 271.763 316.117 272.907 316.44C274.08 316.763 275.107 317.203 275.987 317.76C276.925 318.376 277.395 319.153 277.395 320.092C277.395 320.737 277.233 321.265 276.911 321.676C276.617 322.057 276.221 322.248 275.723 322.248C275.4 322.248 275.063 322.175 274.711 322.028C274.359 321.881 274.007 321.705 273.655 321.5C273.009 321.119 272.393 320.825 271.807 320.62C271.22 320.385 270.545 320.268 269.783 320.268C267.964 320.268 266.556 320.869 265.559 322.072C264.591 323.245 264.107 324.947 264.107 327.176C264.107 329.376 264.591 331.077 265.559 332.28C266.556 333.453 267.964 334.04 269.783 334.04C270.516 334.04 271.161 333.937 271.719 333.732C272.305 333.497 272.951 333.189 273.655 332.808C274.095 332.544 274.476 332.353 274.799 332.236C275.121 332.089 275.444 332.016 275.767 332.016C276.236 332.016 276.632 332.221 276.955 332.632C277.277 333.043 277.439 333.556 277.439 334.172C277.439 334.671 277.321 335.111 277.087 335.492C276.881 335.844 276.529 336.167 276.031 336.46C275.121 337.047 274.065 337.516 272.863 337.868C271.66 338.191 270.428 338.352 269.167 338.352ZM291.795 338.352C289.595 338.352 287.659 337.897 285.987 336.988C284.344 336.079 283.068 334.773 282.159 333.072C281.25 331.371 280.795 329.391 280.795 327.132C280.795 324.873 281.25 322.908 282.159 321.236C283.068 319.535 284.344 318.229 285.987 317.32C287.659 316.411 289.595 315.956 291.795 315.956C293.995 315.956 295.916 316.411 297.559 317.32C299.231 318.229 300.507 319.535 301.387 321.236C302.296 322.908 302.751 324.873 302.751 327.132C302.751 329.391 302.296 331.371 301.387 333.072C300.507 334.773 299.231 336.079 297.559 336.988C295.916 337.897 293.995 338.352 291.795 338.352ZM291.751 334.084C293.54 334.084 294.904 333.497 295.843 332.324C296.782 331.151 297.251 329.42 297.251 327.132C297.251 324.873 296.782 323.157 295.843 321.984C294.904 320.781 293.555 320.18 291.795 320.18C290.035 320.18 288.671 320.781 287.703 321.984C286.764 323.157 286.295 324.873 286.295 327.132C286.295 329.42 286.764 331.151 287.703 332.324C288.642 333.497 289.991 334.084 291.751 334.084ZM320.668 315.956C323.249 315.956 325.17 316.689 326.432 318.156C327.693 319.623 328.324 321.837 328.324 324.8V335.624C328.324 336.445 328.074 337.091 327.576 337.56C327.106 338.029 326.446 338.264 325.596 338.264C324.745 338.264 324.07 338.029 323.572 337.56C323.073 337.091 322.824 336.445 322.824 335.624V325.108C322.824 323.436 322.501 322.219 321.856 321.456C321.24 320.693 320.257 320.312 318.908 320.312C317.324 320.312 316.048 320.811 315.08 321.808C314.141 322.805 313.672 324.14 313.672 325.812V335.624C313.672 336.445 313.422 337.091 312.924 337.56C312.425 338.029 311.75 338.264 310.9 338.264C310.049 338.264 309.374 338.029 308.876 337.56C308.406 337.091 308.172 336.445 308.172 335.624V318.596C308.172 317.833 308.421 317.217 308.92 316.748C309.418 316.279 310.093 316.044 310.944 316.044C311.706 316.044 312.322 316.279 312.792 316.748C313.29 317.188 313.54 317.775 313.54 318.508V319.696C314.273 318.493 315.256 317.569 316.488 316.924C317.72 316.279 319.113 315.956 320.668 315.956ZM353.006 316.044C353.827 316.044 354.487 316.279 354.986 316.748C355.485 317.217 355.734 317.848 355.734 318.64V336.02C355.734 339.393 354.795 341.945 352.918 343.676C351.041 345.407 348.269 346.272 344.602 346.272C341.405 346.272 338.735 345.671 336.594 344.468C335.509 343.823 334.966 343.045 334.966 342.136C334.966 341.491 335.113 340.977 335.406 340.596C335.729 340.215 336.139 340.024 336.638 340.024C336.902 340.024 337.225 340.083 337.606 340.2C337.987 340.347 338.383 340.508 338.794 340.684C339.85 341.124 340.789 341.461 341.61 341.696C342.461 341.931 343.429 342.048 344.514 342.048C348.357 342.048 350.278 340.171 350.278 336.416V333.6C349.633 334.803 348.694 335.741 347.462 336.416C346.23 337.061 344.822 337.384 343.238 337.384C341.361 337.384 339.689 336.944 338.222 336.064C336.785 335.155 335.655 333.893 334.834 332.28C334.013 330.667 333.602 328.804 333.602 326.692C333.602 324.58 333.998 322.717 334.79 321.104C335.611 319.461 336.755 318.2 338.222 317.32C339.689 316.411 341.361 315.956 343.238 315.956C344.822 315.956 346.23 316.293 347.462 316.968C348.694 317.613 349.633 318.537 350.278 319.74V318.596C350.278 317.833 350.527 317.217 351.026 316.748C351.525 316.279 352.185 316.044 353.006 316.044ZM344.69 333.116C346.45 333.116 347.814 332.544 348.782 331.4C349.779 330.256 350.278 328.687 350.278 326.692C350.278 324.668 349.779 323.084 348.782 321.94C347.814 320.796 346.45 320.224 344.69 320.224C342.959 320.224 341.595 320.796 340.598 321.94C339.601 323.084 339.102 324.668 339.102 326.692C339.102 328.687 339.601 330.256 340.598 331.4C341.595 332.544 342.959 333.116 344.69 333.116ZM379.339 332.104C379.837 332.104 380.233 332.295 380.527 332.676C380.849 333.057 381.011 333.571 381.011 334.216C381.011 335.125 380.468 335.888 379.383 336.504C378.385 337.061 377.256 337.516 375.995 337.868C374.733 338.191 373.531 338.352 372.387 338.352C368.925 338.352 366.183 337.355 364.159 335.36C362.135 333.365 361.123 330.637 361.123 327.176C361.123 324.976 361.563 323.025 362.443 321.324C363.323 319.623 364.555 318.303 366.139 317.364C367.752 316.425 369.571 315.956 371.595 315.956C373.531 315.956 375.217 316.381 376.655 317.232C378.092 318.083 379.207 319.285 379.999 320.84C380.791 322.395 381.187 324.228 381.187 326.34C381.187 327.601 380.629 328.232 379.515 328.232H366.535C366.711 330.256 367.283 331.752 368.251 332.72C369.219 333.659 370.627 334.128 372.475 334.128C373.413 334.128 374.235 334.011 374.939 333.776C375.672 333.541 376.493 333.219 377.403 332.808C378.283 332.339 378.928 332.104 379.339 332.104ZM371.727 319.828C370.231 319.828 369.028 320.297 368.119 321.236C367.239 322.175 366.711 323.524 366.535 325.284H376.479C376.42 323.495 375.98 322.145 375.159 321.236C374.337 320.297 373.193 319.828 371.727 319.828ZM394.354 338.352C391.156 338.352 388.575 337.721 386.61 336.46C385.671 335.903 385.202 335.111 385.202 334.084C385.202 333.497 385.363 333.028 385.686 332.676C386.008 332.295 386.404 332.104 386.874 332.104C387.372 332.104 388.062 332.339 388.942 332.808C389.88 333.248 390.731 333.585 391.494 333.82C392.286 334.055 393.283 334.172 394.486 334.172C395.718 334.172 396.671 333.967 397.346 333.556C398.05 333.145 398.402 332.573 398.402 331.84C398.402 331.341 398.255 330.945 397.962 330.652C397.698 330.359 397.199 330.095 396.466 329.86C395.762 329.596 394.676 329.303 393.21 328.98C390.599 328.452 388.722 327.704 387.578 326.736C386.463 325.768 385.906 324.433 385.906 322.732C385.906 321.441 386.287 320.283 387.05 319.256C387.812 318.2 388.854 317.393 390.174 316.836C391.523 316.249 393.048 315.956 394.75 315.956C395.982 315.956 397.17 316.117 398.314 316.44C399.458 316.733 400.484 317.173 401.394 317.76C402.332 318.347 402.802 319.124 402.802 320.092C402.802 320.679 402.64 321.177 402.318 321.588C401.995 321.969 401.599 322.16 401.13 322.16C400.807 322.16 400.484 322.101 400.162 321.984C399.868 321.837 399.487 321.632 399.018 321.368C398.167 320.928 397.434 320.605 396.818 320.4C396.202 320.165 395.439 320.048 394.53 320.048C393.444 320.048 392.579 320.268 391.934 320.708C391.318 321.148 391.01 321.749 391.01 322.512C391.01 323.245 391.332 323.803 391.978 324.184C392.623 324.565 393.87 324.947 395.718 325.328C397.683 325.739 399.223 326.208 400.338 326.736C401.452 327.264 402.244 327.924 402.714 328.716C403.212 329.508 403.462 330.52 403.462 331.752C403.462 333.747 402.626 335.345 400.954 336.548C399.311 337.751 397.111 338.352 394.354 338.352ZM419.762 334.172C421.229 334.26 421.962 334.92 421.962 336.152C421.962 336.856 421.669 337.399 421.082 337.78C420.525 338.132 419.718 338.279 418.662 338.22L417.474 338.132C412.546 337.78 410.082 335.14 410.082 330.212V320.62H407.882C407.09 320.62 406.474 320.444 406.034 320.092C405.624 319.74 405.418 319.227 405.418 318.552C405.418 317.877 405.624 317.364 406.034 317.012C406.474 316.66 407.09 316.484 407.882 316.484H410.082V312.436C410.082 311.644 410.332 311.013 410.83 310.544C411.329 310.075 412.004 309.84 412.854 309.84C413.676 309.84 414.336 310.075 414.834 310.544C415.333 311.013 415.582 311.644 415.582 312.436V316.484H419.322C420.114 316.484 420.716 316.66 421.126 317.012C421.566 317.364 421.786 317.877 421.786 318.552C421.786 319.227 421.566 319.74 421.126 320.092C420.716 320.444 420.114 320.62 419.322 320.62H415.582V330.608C415.582 332.779 416.58 333.937 418.574 334.084L419.762 334.172ZM428.436 338.264C427.644 338.264 426.984 338.044 426.456 337.604C425.958 337.135 425.708 336.475 425.708 335.624V318.64C425.708 317.789 425.958 317.144 426.456 316.704C426.984 316.264 427.644 316.044 428.436 316.044C429.228 316.044 429.888 316.264 430.416 316.704C430.944 317.144 431.208 317.789 431.208 318.64V335.624C431.208 336.475 430.944 337.135 430.416 337.604C429.888 338.044 429.228 338.264 428.436 338.264ZM428.436 312.128C427.439 312.128 426.647 311.864 426.06 311.336C425.474 310.779 425.18 310.06 425.18 309.18C425.18 308.3 425.474 307.596 426.06 307.068C426.647 306.54 427.439 306.276 428.436 306.276C429.404 306.276 430.182 306.54 430.768 307.068C431.384 307.596 431.692 308.3 431.692 309.18C431.692 310.06 431.399 310.779 430.812 311.336C430.226 311.864 429.434 312.128 428.436 312.128ZM447.572 338.352C445.372 338.352 443.436 337.897 441.764 336.988C440.122 336.079 438.846 334.773 437.936 333.072C437.027 331.371 436.572 329.391 436.572 327.132C436.572 324.873 437.027 322.908 437.936 321.236C438.846 319.535 440.122 318.229 441.764 317.32C443.436 316.411 445.372 315.956 447.572 315.956C449.772 315.956 451.694 316.411 453.336 317.32C455.008 318.229 456.284 319.535 457.164 321.236C458.074 322.908 458.528 324.873 458.528 327.132C458.528 329.391 458.074 331.371 457.164 333.072C456.284 334.773 455.008 336.079 453.336 336.988C451.694 337.897 449.772 338.352 447.572 338.352ZM447.528 334.084C449.318 334.084 450.682 333.497 451.62 332.324C452.559 331.151 453.028 329.42 453.028 327.132C453.028 324.873 452.559 323.157 451.62 321.984C450.682 320.781 449.332 320.18 447.572 320.18C445.812 320.18 444.448 320.781 443.48 321.984C442.542 323.157 442.072 324.873 442.072 327.132C442.072 329.42 442.542 331.151 443.48 332.324C444.419 333.497 445.768 334.084 447.528 334.084ZM476.445 315.956C479.026 315.956 480.948 316.689 482.209 318.156C483.47 319.623 484.101 321.837 484.101 324.8V335.624C484.101 336.445 483.852 337.091 483.353 337.56C482.884 338.029 482.224 338.264 481.373 338.264C480.522 338.264 479.848 338.029 479.349 337.56C478.85 337.091 478.601 336.445 478.601 335.624V325.108C478.601 323.436 478.278 322.219 477.633 321.456C477.017 320.693 476.034 320.312 474.685 320.312C473.101 320.312 471.825 320.811 470.857 321.808C469.918 322.805 469.449 324.14 469.449 325.812V335.624C469.449 336.445 469.2 337.091 468.701 337.56C468.202 338.029 467.528 338.264 466.677 338.264C465.826 338.264 465.152 338.029 464.653 337.56C464.184 337.091 463.949 336.445 463.949 335.624V318.596C463.949 317.833 464.198 317.217 464.697 316.748C465.196 316.279 465.87 316.044 466.721 316.044C467.484 316.044 468.1 316.279 468.569 316.748C469.068 317.188 469.317 317.775 469.317 318.508V319.696C470.05 318.493 471.033 317.569 472.265 316.924C473.497 316.279 474.89 315.956 476.445 315.956ZM514.569 334.172C516.035 334.26 516.769 334.92 516.769 336.152C516.769 336.856 516.475 337.399 515.889 337.78C515.331 338.132 514.525 338.279 513.469 338.22L512.281 338.132C507.353 337.78 504.889 335.14 504.889 330.212V320.62H502.689C501.897 320.62 501.281 320.444 500.841 320.092C500.43 319.74 500.225 319.227 500.225 318.552C500.225 317.877 500.43 317.364 500.841 317.012C501.281 316.66 501.897 316.484 502.689 316.484H504.889V312.436C504.889 311.644 505.138 311.013 505.637 310.544C506.135 310.075 506.81 309.84 507.661 309.84C508.482 309.84 509.142 310.075 509.641 310.544C510.139 311.013 510.389 311.644 510.389 312.436V316.484H514.129C514.921 316.484 515.522 316.66 515.933 317.012C516.373 317.364 516.593 317.877 516.593 318.552C516.593 319.227 516.373 319.74 515.933 320.092C515.522 320.444 514.921 320.62 514.129 320.62H510.389V330.608C510.389 332.779 511.386 333.937 513.381 334.084L514.569 334.172ZM530.327 338.352C528.127 338.352 526.191 337.897 524.519 336.988C522.876 336.079 521.6 334.773 520.691 333.072C519.781 331.371 519.327 329.391 519.327 327.132C519.327 324.873 519.781 322.908 520.691 321.236C521.6 319.535 522.876 318.229 524.519 317.32C526.191 316.411 528.127 315.956 530.327 315.956C532.527 315.956 534.448 316.411 536.091 317.32C537.763 318.229 539.039 319.535 539.919 321.236C540.828 322.908 541.283 324.873 541.283 327.132C541.283 329.391 540.828 331.371 539.919 333.072C539.039 334.773 537.763 336.079 536.091 336.988C534.448 337.897 532.527 338.352 530.327 338.352ZM530.283 334.084C532.072 334.084 533.436 333.497 534.375 332.324C535.313 331.151 535.783 329.42 535.783 327.132C535.783 324.873 535.313 323.157 534.375 321.984C533.436 320.781 532.087 320.18 530.327 320.18C528.567 320.18 527.203 320.781 526.235 321.984C525.296 323.157 524.827 324.873 524.827 327.132C524.827 329.42 525.296 331.151 526.235 332.324C527.173 333.497 528.523 334.084 530.283 334.084ZM570.705 334.172C572.171 334.26 572.905 334.92 572.905 336.152C572.905 336.856 572.611 337.399 572.025 337.78C571.467 338.132 570.661 338.279 569.605 338.22L568.417 338.132C563.489 337.78 561.025 335.14 561.025 330.212V320.62H558.825C558.033 320.62 557.417 320.444 556.977 320.092C556.566 319.74 556.361 319.227 556.361 318.552C556.361 317.877 556.566 317.364 556.977 317.012C557.417 316.66 558.033 316.484 558.825 316.484H561.025V312.436C561.025 311.644 561.274 311.013 561.773 310.544C562.271 310.075 562.946 309.84 563.797 309.84C564.618 309.84 565.278 310.075 565.777 310.544C566.275 311.013 566.525 311.644 566.525 312.436V316.484H570.265C571.057 316.484 571.658 316.66 572.069 317.012C572.509 317.364 572.729 317.877 572.729 318.552C572.729 319.227 572.509 319.74 572.069 320.092C571.658 320.444 571.057 320.62 570.265 320.62H566.525V330.608C566.525 332.779 567.522 333.937 569.517 334.084L570.705 334.172ZM589.235 315.956C594.28 315.956 596.803 318.904 596.803 324.8V335.624C596.803 336.445 596.553 337.091 596.055 337.56C595.585 338.029 594.925 338.264 594.075 338.264C593.224 338.264 592.549 338.029 592.051 337.56C591.552 337.091 591.303 336.445 591.303 335.624V324.8C591.303 323.245 590.98 322.116 590.335 321.412C589.719 320.679 588.736 320.312 587.387 320.312C585.803 320.312 584.527 320.811 583.559 321.808C582.62 322.805 582.151 324.14 582.151 325.812V335.624C582.151 336.445 581.901 337.091 581.403 337.56C580.904 338.029 580.229 338.264 579.379 338.264C578.528 338.264 577.853 338.029 577.355 337.56C576.885 337.091 576.651 336.445 576.651 335.624V309.312C576.651 308.549 576.9 307.933 577.399 307.464C577.927 306.995 578.601 306.76 579.423 306.76C580.244 306.76 580.904 306.98 581.403 307.42C581.901 307.86 582.151 308.461 582.151 309.224V319.476C582.884 318.332 583.852 317.467 585.055 316.88C586.287 316.264 587.68 315.956 589.235 315.956ZM620.297 332.104C620.796 332.104 621.192 332.295 621.485 332.676C621.808 333.057 621.969 333.571 621.969 334.216C621.969 335.125 621.426 335.888 620.341 336.504C619.344 337.061 618.214 337.516 616.953 337.868C615.692 338.191 614.489 338.352 613.345 338.352C609.884 338.352 607.141 337.355 605.117 335.36C603.093 333.365 602.081 330.637 602.081 327.176C602.081 324.976 602.521 323.025 603.401 321.324C604.281 319.623 605.513 318.303 607.097 317.364C608.71 316.425 610.529 315.956 612.553 315.956C614.489 315.956 616.176 316.381 617.613 317.232C619.05 318.083 620.165 319.285 620.957 320.84C621.749 322.395 622.145 324.228 622.145 326.34C622.145 327.601 621.588 328.232 620.473 328.232H607.493C607.669 330.256 608.241 331.752 609.209 332.72C610.177 333.659 611.585 334.128 613.433 334.128C614.372 334.128 615.193 334.011 615.897 333.776C616.63 333.541 617.452 333.219 618.361 332.808C619.241 332.339 619.886 332.104 620.297 332.104ZM612.685 319.828C611.189 319.828 609.986 320.297 609.077 321.236C608.197 322.175 607.669 323.524 607.493 325.284H617.437C617.378 323.495 616.938 322.145 616.117 321.236C615.296 320.297 614.152 319.828 612.685 319.828ZM648.137 338.352C644.94 338.352 642.359 337.721 640.393 336.46C639.455 335.903 638.985 335.111 638.985 334.084C638.985 333.497 639.147 333.028 639.469 332.676C639.792 332.295 640.188 332.104 640.657 332.104C641.156 332.104 641.845 332.339 642.725 332.808C643.664 333.248 644.515 333.585 645.277 333.82C646.069 334.055 647.067 334.172 648.269 334.172C649.501 334.172 650.455 333.967 651.129 333.556C651.833 333.145 652.185 332.573 652.185 331.84C652.185 331.341 652.039 330.945 651.745 330.652C651.481 330.359 650.983 330.095 650.249 329.86C649.545 329.596 648.46 329.303 646.993 328.98C644.383 328.452 642.505 327.704 641.361 326.736C640.247 325.768 639.689 324.433 639.689 322.732C639.689 321.441 640.071 320.283 640.833 319.256C641.596 318.2 642.637 317.393 643.957 316.836C645.307 316.249 646.832 315.956 648.533 315.956C649.765 315.956 650.953 316.117 652.097 316.44C653.241 316.733 654.268 317.173 655.177 317.76C656.116 318.347 656.585 319.124 656.585 320.092C656.585 320.679 656.424 321.177 656.101 321.588C655.779 321.969 655.383 322.16 654.913 322.16C654.591 322.16 654.268 322.101 653.945 321.984C653.652 321.837 653.271 321.632 652.801 321.368C651.951 320.928 651.217 320.605 650.601 320.4C649.985 320.165 649.223 320.048 648.313 320.048C647.228 320.048 646.363 320.268 645.717 320.708C645.101 321.148 644.793 321.749 644.793 322.512C644.793 323.245 645.116 323.803 645.761 324.184C646.407 324.565 647.653 324.947 649.501 325.328C651.467 325.739 653.007 326.208 654.121 326.736C655.236 327.264 656.028 327.924 656.497 328.716C656.996 329.508 657.245 330.52 657.245 331.752C657.245 333.747 656.409 335.345 654.737 336.548C653.095 337.751 650.895 338.352 648.137 338.352ZM665.313 338.264C664.521 338.264 663.861 338.044 663.333 337.604C662.834 337.135 662.585 336.475 662.585 335.624V318.64C662.585 317.789 662.834 317.144 663.333 316.704C663.861 316.264 664.521 316.044 665.313 316.044C666.105 316.044 666.765 316.264 667.293 316.704C667.821 317.144 668.085 317.789 668.085 318.64V335.624C668.085 336.475 667.821 337.135 667.293 337.604C666.765 338.044 666.105 338.264 665.313 338.264ZM665.313 312.128C664.316 312.128 663.524 311.864 662.937 311.336C662.35 310.779 662.057 310.06 662.057 309.18C662.057 308.3 662.35 307.596 662.937 307.068C663.524 306.54 664.316 306.276 665.313 306.276C666.281 306.276 667.058 306.54 667.645 307.068C668.261 307.596 668.569 308.3 668.569 309.18C668.569 310.06 668.276 310.779 667.689 311.336C667.102 311.864 666.31 312.128 665.313 312.128ZM686.758 334.172C688.225 334.26 688.958 334.92 688.958 336.152C688.958 336.856 688.665 337.399 688.078 337.78C687.521 338.132 686.714 338.279 685.658 338.22L684.47 338.132C679.542 337.78 677.078 335.14 677.078 330.212V320.62H674.878C674.086 320.62 673.47 320.444 673.03 320.092C672.619 319.74 672.414 319.227 672.414 318.552C672.414 317.877 672.619 317.364 673.03 317.012C673.47 316.66 674.086 316.484 674.878 316.484H677.078V312.436C677.078 311.644 677.327 311.013 677.826 310.544C678.325 310.075 678.999 309.84 679.85 309.84C680.671 309.84 681.331 310.075 681.83 310.544C682.329 311.013 682.578 311.644 682.578 312.436V316.484H686.318C687.11 316.484 687.711 316.66 688.122 317.012C688.562 317.364 688.782 317.877 688.782 318.552C688.782 319.227 688.562 319.74 688.122 320.092C687.711 320.444 687.11 320.62 686.318 320.62H682.578V330.608C682.578 332.779 683.575 333.937 685.57 334.084L686.758 334.172ZM709.732 332.104C710.231 332.104 710.627 332.295 710.92 332.676C711.243 333.057 711.404 333.571 711.404 334.216C711.404 335.125 710.862 335.888 709.776 336.504C708.779 337.061 707.65 337.516 706.388 337.868C705.127 338.191 703.924 338.352 702.78 338.352C699.319 338.352 696.576 337.355 694.552 335.36C692.528 333.365 691.516 330.637 691.516 327.176C691.516 324.976 691.956 323.025 692.836 321.324C693.716 319.623 694.948 318.303 696.532 317.364C698.146 316.425 699.964 315.956 701.988 315.956C703.924 315.956 705.611 316.381 707.048 317.232C708.486 318.083 709.6 319.285 710.392 320.84C711.184 322.395 711.58 324.228 711.58 326.34C711.58 327.601 711.023 328.232 709.908 328.232H696.928C697.104 330.256 697.676 331.752 698.644 332.72C699.612 333.659 701.02 334.128 702.868 334.128C703.807 334.128 704.628 334.011 705.332 333.776C706.066 333.541 706.887 333.219 707.796 332.808C708.676 332.339 709.322 332.104 709.732 332.104ZM702.12 319.828C700.624 319.828 699.422 320.297 698.512 321.236C697.632 322.175 697.104 323.524 696.928 325.284H706.872C706.814 323.495 706.374 322.145 705.552 321.236C704.731 320.297 703.587 319.828 702.12 319.828Z" fill="black"/>
<path opacity="0.8" d="M115.2 207.805C115.41 207.205 115.74 206.755 116.19 206.455C116.67 206.155 117.195 206.005 117.765 206.005C118.485 206.005 119.1 206.23 119.61 206.68C120.15 207.13 120.42 207.73 120.42 208.48C120.42 208.75 120.345 209.14 120.195 209.65L110.52 236.425C110.28 237.025 109.875 237.49 109.305 237.82C108.765 238.15 108.165 238.315 107.505 238.315C106.845 238.315 106.23 238.15 105.66 237.82C105.09 237.49 104.7 237.025 104.49 236.425L97.02 215.23L89.415 236.425C89.175 237.025 88.77 237.49 88.2 237.82C87.66 238.15 87.06 238.315 86.4 238.315C85.74 238.315 85.125 238.15 84.555 237.82C84.015 237.49 83.64 237.025 83.43 236.425L73.755 209.65C73.605 209.2 73.53 208.81 73.53 208.48C73.53 207.73 73.8 207.13 74.34 206.68C74.91 206.23 75.57 206.005 76.32 206.005C76.92 206.005 77.46 206.155 77.94 206.455C78.42 206.755 78.765 207.205 78.975 207.805L86.625 229.81L94.5 207.94C94.71 207.34 95.055 206.875 95.535 206.545C96.015 206.185 96.54 206.005 97.11 206.005C97.68 206.005 98.205 206.185 98.685 206.545C99.195 206.875 99.555 207.355 99.765 207.985L107.415 230.08L115.2 207.805ZM140.726 215.455C145.886 215.455 148.466 218.47 148.466 224.5V235.57C148.466 236.41 148.211 237.07 147.701 237.55C147.221 238.03 146.546 238.27 145.676 238.27C144.806 238.27 144.116 238.03 143.606 237.55C143.096 237.07 142.841 236.41 142.841 235.57V224.5C142.841 222.91 142.511 221.755 141.851 221.035C141.221 220.285 140.216 219.91 138.836 219.91C137.216 219.91 135.911 220.42 134.921 221.44C133.961 222.46 133.481 223.825 133.481 225.535V235.57C133.481 236.41 133.226 237.07 132.716 237.55C132.206 238.03 131.516 238.27 130.646 238.27C129.776 238.27 129.086 238.03 128.576 237.55C128.096 237.07 127.856 236.41 127.856 235.57V208.66C127.856 207.88 128.111 207.25 128.621 206.77C129.161 206.29 129.851 206.05 130.691 206.05C131.531 206.05 132.206 206.275 132.716 206.725C133.226 207.175 133.481 207.79 133.481 208.57V219.055C134.231 217.885 135.221 217 136.451 216.4C137.711 215.77 139.136 215.455 140.726 215.455ZM170.424 217.165C170.664 216.625 170.979 216.235 171.369 215.995C171.789 215.725 172.239 215.59 172.719 215.59C173.409 215.59 174.024 215.83 174.564 216.31C175.134 216.76 175.419 217.33 175.419 218.02C175.419 218.35 175.329 218.695 175.149 219.055L162.864 244.795C162.354 245.815 161.559 246.325 160.479 246.325C159.789 246.325 159.174 246.1 158.634 245.65C158.124 245.23 157.869 244.69 157.869 244.03C157.869 243.7 157.959 243.325 158.139 242.905L161.199 236.47L152.829 219.055C152.679 218.755 152.604 218.41 152.604 218.02C152.604 217.33 152.889 216.745 153.459 216.265C154.059 215.785 154.734 215.545 155.484 215.545C155.994 215.545 156.459 215.68 156.879 215.95C157.299 216.19 157.629 216.58 157.869 217.12L164.169 231.025L170.424 217.165ZM211.143 206.05C211.983 206.05 212.673 206.29 213.213 206.77C213.753 207.25 214.023 207.88 214.023 208.66V235.57C214.023 236.38 213.768 237.025 213.258 237.505C212.748 237.985 212.073 238.225 211.233 238.225C210.393 238.225 209.718 237.985 209.208 237.505C208.698 237.025 208.443 236.38 208.443 235.57V234.445C207.783 235.675 206.823 236.635 205.563 237.325C204.333 238.015 202.923 238.36 201.333 238.36C199.443 238.36 197.748 237.88 196.248 236.92C194.778 235.96 193.623 234.61 192.783 232.87C191.973 231.1 191.568 229.075 191.568 226.795C191.568 224.515 191.973 222.52 192.783 220.81C193.623 219.1 194.778 217.78 196.248 216.85C197.718 215.92 199.413 215.455 201.333 215.455C202.923 215.455 204.333 215.785 205.563 216.445C206.793 217.105 207.738 218.035 208.398 219.235V208.57C208.398 207.82 208.638 207.22 209.118 206.77C209.628 206.29 210.303 206.05 211.143 206.05ZM202.818 233.995C204.618 233.995 205.998 233.38 206.958 232.15C207.948 230.92 208.443 229.165 208.443 226.885C208.443 224.605 207.948 222.865 206.958 221.665C205.998 220.435 204.633 219.82 202.863 219.82C201.063 219.82 199.668 220.42 198.678 221.62C197.688 222.82 197.193 224.545 197.193 226.795C197.193 229.075 197.688 230.845 198.678 232.105C199.668 233.365 201.048 233.995 202.818 233.995ZM223.499 238.27C222.689 238.27 222.014 238.045 221.474 237.595C220.964 237.115 220.709 236.44 220.709 235.57V218.2C220.709 217.33 220.964 216.67 221.474 216.22C222.014 215.77 222.689 215.545 223.499 215.545C224.309 215.545 224.984 215.77 225.524 216.22C226.064 216.67 226.334 217.33 226.334 218.2V235.57C226.334 236.44 226.064 237.115 225.524 237.595C224.984 238.045 224.309 238.27 223.499 238.27ZM223.499 211.54C222.479 211.54 221.669 211.27 221.069 210.73C220.469 210.16 220.169 209.425 220.169 208.525C220.169 207.625 220.469 206.905 221.069 206.365C221.669 205.825 222.479 205.555 223.499 205.555C224.489 205.555 225.284 205.825 225.884 206.365C226.514 206.905 226.829 207.625 226.829 208.525C226.829 209.425 226.529 210.16 225.929 210.73C225.329 211.27 224.519 211.54 223.499 211.54ZM251.395 206.05C252.235 206.05 252.925 206.29 253.465 206.77C254.005 207.25 254.275 207.88 254.275 208.66V235.57C254.275 236.38 254.02 237.025 253.51 237.505C253 237.985 252.325 238.225 251.485 238.225C250.645 238.225 249.97 237.985 249.46 237.505C248.95 237.025 248.695 236.38 248.695 235.57V234.445C248.035 235.675 247.075 236.635 245.815 237.325C244.585 238.015 243.175 238.36 241.585 238.36C239.695 238.36 238 237.88 236.5 236.92C235.03 235.96 233.875 234.61 233.035 232.87C232.225 231.1 231.82 229.075 231.82 226.795C231.82 224.515 232.225 222.52 233.035 220.81C233.875 219.1 235.03 217.78 236.5 216.85C237.97 215.92 239.665 215.455 241.585 215.455C243.175 215.455 244.585 215.785 245.815 216.445C247.045 217.105 247.99 218.035 248.65 219.235V208.57C248.65 207.82 248.89 207.22 249.37 206.77C249.88 206.29 250.555 206.05 251.395 206.05ZM243.07 233.995C244.87 233.995 246.25 233.38 247.21 232.15C248.2 230.92 248.695 229.165 248.695 226.885C248.695 224.605 248.2 222.865 247.21 221.665C246.25 220.435 244.885 219.82 243.115 219.82C241.315 219.82 239.92 220.42 238.93 221.62C237.94 222.82 237.445 224.545 237.445 226.795C237.445 229.075 237.94 230.845 238.93 232.105C239.92 233.365 241.3 233.995 243.07 233.995ZM273.741 215.455C276.381 215.455 278.346 216.205 279.636 217.705C280.926 219.205 281.571 221.47 281.571 224.5V235.57C281.571 236.41 281.316 237.07 280.806 237.55C280.326 238.03 279.651 238.27 278.781 238.27C277.911 238.27 277.221 238.03 276.711 237.55C276.201 237.07 275.946 236.41 275.946 235.57V224.815C275.946 223.105 275.616 221.86 274.956 221.08C274.326 220.3 273.321 219.91 271.941 219.91C270.321 219.91 269.016 220.42 268.026 221.44C267.066 222.46 266.586 223.825 266.586 225.535V235.57C266.586 236.41 266.331 237.07 265.821 237.55C265.311 238.03 264.621 238.27 263.751 238.27C262.881 238.27 262.191 238.03 261.681 237.55C261.201 237.07 260.961 236.41 260.961 235.57V218.155C260.961 217.375 261.216 216.745 261.726 216.265C262.236 215.785 262.926 215.545 263.796 215.545C264.576 215.545 265.206 215.785 265.686 216.265C266.196 216.715 266.451 217.315 266.451 218.065V219.28C267.201 218.05 268.206 217.105 269.466 216.445C270.726 215.785 272.151 215.455 273.741 215.455ZM290.002 206.05C291.022 206.05 291.847 206.425 292.477 207.175C293.107 207.925 293.422 209.02 293.422 210.46C293.422 213.28 292.432 215.755 290.452 217.885C290.092 218.275 289.672 218.47 289.192 218.47C288.772 218.47 288.382 218.32 288.022 218.02C287.692 217.69 287.527 217.315 287.527 216.895C287.527 216.535 287.677 216.19 287.977 215.86C288.877 214.9 289.462 213.82 289.732 212.62C288.862 212.53 288.142 212.2 287.572 211.63C287.032 211.03 286.762 210.295 286.762 209.425C286.762 208.465 287.062 207.67 287.662 207.04C288.292 206.38 289.072 206.05 290.002 206.05ZM311.237 234.085C312.737 234.175 313.487 234.85 313.487 236.11C313.487 236.83 313.187 237.385 312.587 237.775C312.017 238.135 311.192 238.285 310.112 238.225L308.897 238.135C303.857 237.775 301.337 235.075 301.337 230.035V220.225H299.087C298.277 220.225 297.647 220.045 297.197 219.685C296.777 219.325 296.567 218.8 296.567 218.11C296.567 217.42 296.777 216.895 297.197 216.535C297.647 216.175 298.277 215.995 299.087 215.995H301.337V211.855C301.337 211.045 301.592 210.4 302.102 209.92C302.612 209.44 303.302 209.2 304.172 209.2C305.012 209.2 305.687 209.44 306.197 209.92C306.707 210.4 306.962 211.045 306.962 211.855V215.995H310.787C311.597 215.995 312.212 216.175 312.632 216.535C313.082 216.895 313.307 217.42 313.307 218.11C313.307 218.8 313.082 219.325 312.632 219.685C312.212 220.045 311.597 220.225 310.787 220.225H306.962V230.44C306.962 232.66 307.982 233.845 310.022 233.995L311.237 234.085ZM333.225 238.27C332.415 238.27 331.74 238.045 331.2 237.595C330.69 237.115 330.435 236.44 330.435 235.57V218.2C330.435 217.33 330.69 216.67 331.2 216.22C331.74 215.77 332.415 215.545 333.225 215.545C334.035 215.545 334.71 215.77 335.25 216.22C335.79 216.67 336.06 217.33 336.06 218.2V235.57C336.06 236.44 335.79 237.115 335.25 237.595C334.71 238.045 334.035 238.27 333.225 238.27ZM333.225 211.54C332.205 211.54 331.395 211.27 330.795 210.73C330.195 210.16 329.895 209.425 329.895 208.525C329.895 207.625 330.195 206.905 330.795 206.365C331.395 205.825 332.205 205.555 333.225 205.555C334.215 205.555 335.01 205.825 335.61 206.365C336.24 206.905 336.555 207.625 336.555 208.525C336.555 209.425 336.255 210.16 335.655 210.73C335.055 211.27 334.245 211.54 333.225 211.54ZM355.158 234.085C356.658 234.175 357.408 234.85 357.408 236.11C357.408 236.83 357.108 237.385 356.508 237.775C355.938 238.135 355.113 238.285 354.033 238.225L352.818 238.135C347.778 237.775 345.258 235.075 345.258 230.035V220.225H343.008C342.198 220.225 341.568 220.045 341.118 219.685C340.698 219.325 340.488 218.8 340.488 218.11C340.488 217.42 340.698 216.895 341.118 216.535C341.568 216.175 342.198 215.995 343.008 215.995H345.258V211.855C345.258 211.045 345.513 210.4 346.023 209.92C346.533 209.44 347.223 209.2 348.093 209.2C348.933 209.2 349.608 209.44 350.118 209.92C350.628 210.4 350.883 211.045 350.883 211.855V215.995H354.708C355.518 215.995 356.133 216.175 356.553 216.535C357.003 216.895 357.228 217.42 357.228 218.11C357.228 218.8 357.003 219.325 356.553 219.685C356.133 220.045 355.518 220.225 354.708 220.225H350.883V230.44C350.883 232.66 351.903 233.845 353.943 233.995L355.158 234.085ZM404.101 217.21C404.311 216.67 404.611 216.265 405.001 215.995C405.421 215.725 405.871 215.59 406.351 215.59C407.041 215.59 407.656 215.83 408.196 216.31C408.766 216.76 409.051 217.33 409.051 218.02C409.051 218.41 408.976 218.755 408.826 219.055L401.401 236.47C401.161 237.04 400.786 237.475 400.276 237.775C399.796 238.075 399.256 238.225 398.656 238.225C398.086 238.225 397.546 238.075 397.036 237.775C396.556 237.475 396.196 237.04 395.956 236.47L390.601 223.6L385.426 236.47C385.186 237.04 384.811 237.475 384.301 237.775C383.821 238.075 383.281 238.225 382.681 238.225C382.111 238.225 381.571 238.075 381.061 237.775C380.551 237.475 380.176 237.04 379.936 236.47L372.556 219.055C372.406 218.665 372.331 218.335 372.331 218.065C372.331 217.375 372.631 216.79 373.231 216.31C373.831 215.8 374.491 215.545 375.211 215.545C375.721 215.545 376.186 215.68 376.606 215.95C377.026 216.22 377.341 216.625 377.551 217.165L382.861 230.89L388.306 217.3C388.546 216.73 388.891 216.31 389.341 216.04C389.791 215.74 390.286 215.59 390.826 215.59C391.366 215.59 391.861 215.74 392.311 216.04C392.761 216.31 393.106 216.73 393.346 217.3L398.836 230.935L404.101 217.21ZM423.48 238.36C421.23 238.36 419.25 237.895 417.54 236.965C415.86 236.035 414.555 234.7 413.625 232.96C412.695 231.22 412.23 229.195 412.23 226.885C412.23 224.575 412.695 222.565 413.625 220.855C414.555 219.115 415.86 217.78 417.54 216.85C419.25 215.92 421.23 215.455 423.48 215.455C425.73 215.455 427.695 215.92 429.375 216.85C431.085 217.78 432.39 219.115 433.29 220.855C434.22 222.565 434.685 224.575 434.685 226.885C434.685 229.195 434.22 231.22 433.29 232.96C432.39 234.7 431.085 236.035 429.375 236.965C427.695 237.895 425.73 238.36 423.48 238.36ZM423.435 233.995C425.265 233.995 426.66 233.395 427.62 232.195C428.58 230.995 429.06 229.225 429.06 226.885C429.06 224.575 428.58 222.82 427.62 221.62C426.66 220.39 425.28 219.775 423.48 219.775C421.68 219.775 420.285 220.39 419.295 221.62C418.335 222.82 417.855 224.575 417.855 226.885C417.855 229.225 418.335 230.995 419.295 232.195C420.255 233.395 421.635 233.995 423.435 233.995ZM452.513 215.545C453.293 215.485 453.908 215.65 454.358 216.04C454.808 216.43 455.033 217.015 455.033 217.795C455.033 218.605 454.838 219.205 454.448 219.595C454.058 219.985 453.353 220.24 452.333 220.36L450.983 220.495C449.213 220.675 447.908 221.275 447.068 222.295C446.258 223.315 445.853 224.59 445.853 226.12V235.57C445.853 236.44 445.583 237.115 445.043 237.595C444.503 238.045 443.828 238.27 443.018 238.27C442.208 238.27 441.533 238.045 440.993 237.595C440.483 237.115 440.228 236.44 440.228 235.57V218.155C440.228 217.315 440.483 216.67 440.993 216.22C441.533 215.77 442.193 215.545 442.973 215.545C443.753 215.545 444.383 215.77 444.863 216.22C445.343 216.64 445.583 217.255 445.583 218.065V219.865C446.153 218.545 446.993 217.525 448.103 216.805C449.243 216.085 450.503 215.68 451.883 215.59L452.513 215.545ZM477.93 233.635C478.53 234.205 478.83 234.85 478.83 235.57C478.83 236.26 478.575 236.875 478.065 237.415C477.585 237.955 477.015 238.225 476.355 238.225C475.695 238.225 475.08 237.955 474.51 237.415L463.98 227.875V235.57C463.98 236.44 463.71 237.1 463.17 237.55C462.63 238 461.955 238.225 461.145 238.225C460.335 238.225 459.66 238 459.12 237.55C458.61 237.1 458.355 236.44 458.355 235.57V208.705C458.355 207.835 458.61 207.175 459.12 206.725C459.66 206.275 460.335 206.05 461.145 206.05C461.955 206.05 462.63 206.275 463.17 206.725C463.71 207.175 463.98 207.835 463.98 208.705V225.625L473.61 216.4C474.15 215.86 474.765 215.59 475.455 215.59C476.145 215.59 476.745 215.845 477.255 216.355C477.765 216.865 478.02 217.465 478.02 218.155C478.02 218.845 477.735 219.475 477.165 220.045L470.1 226.615L477.93 233.635ZM489.564 228.82C489.054 228.82 488.634 228.64 488.304 228.28C488.004 227.92 487.854 227.425 487.854 226.795C487.854 225.145 488.154 223.75 488.754 222.61C489.354 221.47 490.224 220.225 491.364 218.875C492.264 217.795 492.924 216.895 493.344 216.175C493.764 215.455 493.974 214.645 493.974 213.745C493.974 212.755 493.599 211.975 492.849 211.405C492.129 210.805 491.139 210.505 489.879 210.505C488.799 210.505 487.764 210.745 486.774 211.225C485.784 211.675 484.629 212.335 483.309 213.205C482.559 213.625 481.944 213.835 481.464 213.835C480.954 213.835 480.504 213.61 480.114 213.16C479.754 212.68 479.574 212.125 479.574 211.495C479.574 210.625 479.934 209.92 480.654 209.38C481.914 208.3 483.399 207.46 485.109 206.86C486.819 206.23 488.544 205.915 490.284 205.915C492.114 205.915 493.734 206.23 495.144 206.86C496.584 207.49 497.694 208.36 498.474 209.47C499.284 210.58 499.689 211.855 499.689 213.295C499.689 214.855 499.314 216.22 498.564 217.39C497.814 218.53 496.719 219.82 495.279 221.26C494.049 222.52 493.119 223.585 492.489 224.455C491.889 225.295 491.514 226.255 491.364 227.335C491.274 227.815 491.064 228.19 490.734 228.46C490.434 228.7 490.044 228.82 489.564 228.82ZM489.654 238.27C488.694 238.27 487.899 237.955 487.269 237.325C486.639 236.665 486.324 235.855 486.324 234.895C486.324 233.935 486.639 233.14 487.269 232.51C487.899 231.85 488.694 231.52 489.654 231.52C490.614 231.52 491.409 231.85 492.039 232.51C492.669 233.14 492.984 233.935 492.984 234.895C492.984 235.855 492.654 236.665 491.994 237.325C491.364 237.955 490.584 238.27 489.654 238.27Z" fill="#F05930"/>
</svg>
