<svg width="322" height="41" viewBox="0 0 322 41" fill="none" xmlns="http://www.w3.org/2000/svg">
<path opacity="0.8" d="M3.16 32.264C2.30933 32.264 1.62 32 1.092 31.472C0.593334 30.944 0.344 30.2547 0.344 29.404V3.664C0.344 2.81333 0.578667 2.15333 1.048 1.684C1.54667 1.21467 2.22133 0.979998 3.072 0.979998H18.516C20.3053 0.979998 21.2 1.74266 21.2 3.268C21.2 4.764 20.3053 5.512 18.516 5.512H5.932V13.96H17.636C19.4253 13.96 20.32 14.7227 20.32 16.248C20.32 17.744 19.4253 18.492 17.636 18.492H5.932V29.404C5.932 30.2547 5.68267 30.944 5.184 31.472C4.68533 32 4.01067 32.264 3.16 32.264ZM42.2162 10.044C43.0669 10.044 43.7415 10.2787 44.2402 10.748C44.7389 11.2173 44.9882 11.848 44.9882 12.64V29.712C44.9882 30.4747 44.7242 31.0907 44.1962 31.56C43.6975 32.0293 43.0375 32.264 42.2162 32.264C41.4242 32.264 40.7935 32.044 40.3242 31.604C39.8549 31.164 39.6202 30.5627 39.6202 29.8V28.7C38.9455 29.8733 38.0362 30.7827 36.8922 31.428C35.7482 32.044 34.4575 32.352 33.0202 32.352C27.7402 32.352 25.1002 29.3893 25.1002 23.464V12.64C25.1002 11.848 25.3495 11.2173 25.8482 10.748C26.3469 10.2787 27.0069 10.044 27.8282 10.044C28.6789 10.044 29.3535 10.2787 29.8522 10.748C30.3509 11.2173 30.6002 11.848 30.6002 12.64V23.508C30.6002 25.0333 30.9082 26.1627 31.5242 26.896C32.1402 27.6293 33.1082 27.996 34.4282 27.996C35.9535 27.996 37.1709 27.4973 38.0802 26.5C39.0189 25.4733 39.4882 24.124 39.4882 22.452V12.64C39.4882 11.848 39.7375 11.2173 40.2362 10.748C40.7349 10.2787 41.3949 10.044 42.2162 10.044ZM62.7687 28.172C64.2353 28.26 64.9687 28.92 64.9687 30.152C64.9687 30.856 64.6753 31.3987 64.0887 31.78C63.5313 32.132 62.7247 32.2787 61.6687 32.22L60.4807 32.132C55.5527 31.78 53.0887 29.14 53.0887 24.212V14.62H50.8887C50.0967 14.62 49.4807 14.444 49.0407 14.092C48.63 13.74 48.4247 13.2267 48.4247 12.552C48.4247 11.8773 48.63 11.364 49.0407 11.012C49.4807 10.66 50.0967 10.484 50.8887 10.484H53.0887V6.436C53.0887 5.644 53.338 5.01333 53.8367 4.544C54.3353 4.07467 55.01 3.84 55.8607 3.84C56.682 3.84 57.342 4.07467 57.8407 4.544C58.3393 5.01333 58.5887 5.644 58.5887 6.436V10.484H62.3287C63.1207 10.484 63.722 10.66 64.1327 11.012C64.5727 11.364 64.7927 11.8773 64.7927 12.552C64.7927 13.2267 64.5727 13.74 64.1327 14.092C63.722 14.444 63.1207 14.62 62.3287 14.62H58.5887V24.608C58.5887 26.7787 59.586 27.9373 61.5807 28.084L62.7687 28.172ZM85.6988 10.044C86.5495 10.044 87.2242 10.2787 87.7228 10.748C88.2215 11.2173 88.4708 11.848 88.4708 12.64V29.712C88.4708 30.4747 88.2068 31.0907 87.6788 31.56C87.1802 32.0293 86.5202 32.264 85.6988 32.264C84.9068 32.264 84.2762 32.044 83.8068 31.604C83.3375 31.164 83.1028 30.5627 83.1028 29.8V28.7C82.4282 29.8733 81.5188 30.7827 80.3748 31.428C79.2308 32.044 77.9402 32.352 76.5028 32.352C71.2228 32.352 68.5828 29.3893 68.5828 23.464V12.64C68.5828 11.848 68.8322 11.2173 69.3308 10.748C69.8295 10.2787 70.4895 10.044 71.3108 10.044C72.1615 10.044 72.8362 10.2787 73.3348 10.748C73.8335 11.2173 74.0828 11.848 74.0828 12.64V23.508C74.0828 25.0333 74.3908 26.1627 75.0068 26.896C75.6228 27.6293 76.5908 27.996 77.9108 27.996C79.4362 27.996 80.6535 27.4973 81.5628 26.5C82.5015 25.4733 82.9708 24.124 82.9708 22.452V12.64C82.9708 11.848 83.2202 11.2173 83.7188 10.748C84.2175 10.2787 84.8775 10.044 85.6988 10.044ZM107.087 10.044C107.85 9.98533 108.451 10.1467 108.891 10.528C109.331 10.9093 109.551 11.4813 109.551 12.244C109.551 13.036 109.361 13.6227 108.979 14.004C108.598 14.3853 107.909 14.6347 106.911 14.752L105.591 14.884C103.861 15.06 102.585 15.6467 101.763 16.644C100.971 17.6413 100.575 18.888 100.575 20.384V29.624C100.575 30.4747 100.311 31.1347 99.7833 31.604C99.2553 32.044 98.5953 32.264 97.8033 32.264C97.0113 32.264 96.3513 32.044 95.8233 31.604C95.3246 31.1347 95.0753 30.4747 95.0753 29.624V12.596C95.0753 11.7747 95.3246 11.144 95.8233 10.704C96.3513 10.264 96.9966 10.044 97.7593 10.044C98.522 10.044 99.138 10.264 99.6073 10.704C100.077 11.1147 100.311 11.716 100.311 12.508V14.268C100.869 12.9773 101.69 11.98 102.775 11.276C103.89 10.572 105.122 10.176 106.471 10.088L107.087 10.044ZM129.397 26.104C129.896 26.104 130.292 26.2947 130.585 26.676C130.908 27.0573 131.069 27.5707 131.069 28.216C131.069 29.1253 130.527 29.888 129.441 30.504C128.444 31.0613 127.315 31.516 126.053 31.868C124.792 32.1907 123.589 32.352 122.445 32.352C118.984 32.352 116.241 31.3547 114.217 29.36C112.193 27.3653 111.181 24.6373 111.181 21.176C111.181 18.976 111.621 17.0253 112.501 15.324C113.381 13.6227 114.613 12.3027 116.197 11.364C117.811 10.4253 119.629 9.956 121.653 9.956C123.589 9.956 125.276 10.3813 126.713 11.232C128.151 12.0827 129.265 13.2853 130.057 14.84C130.849 16.3947 131.245 18.228 131.245 20.34C131.245 21.6013 130.688 22.232 129.573 22.232H116.593C116.769 24.256 117.341 25.752 118.309 26.72C119.277 27.6587 120.685 28.128 122.533 28.128C123.472 28.128 124.293 28.0107 124.997 27.776C125.731 27.5413 126.552 27.2187 127.461 26.808C128.341 26.3387 128.987 26.104 129.397 26.104ZM121.785 13.828C120.289 13.828 119.087 14.2973 118.177 15.236C117.297 16.1747 116.769 17.524 116.593 19.284H126.537C126.479 17.4947 126.039 16.1453 125.217 15.236C124.396 14.2973 123.252 13.828 121.785 13.828ZM161.814 9.956C163.662 9.956 165.304 10.4253 166.742 11.364C168.208 12.3027 169.338 13.6373 170.13 15.368C170.951 17.0693 171.362 19.0347 171.362 21.264C171.362 23.4933 170.951 25.444 170.13 27.116C169.338 28.788 168.223 30.0787 166.786 30.988C165.348 31.8973 163.691 32.352 161.814 32.352C160.288 32.352 158.924 32.0293 157.722 31.384C156.519 30.7387 155.595 29.844 154.95 28.7V37.676C154.95 38.4387 154.7 39.04 154.202 39.48C153.703 39.92 153.043 40.14 152.222 40.14C151.4 40.14 150.726 39.9053 150.198 39.436C149.699 38.9667 149.45 38.3507 149.45 37.588V12.64C149.45 11.848 149.684 11.2173 150.154 10.748C150.652 10.2787 151.312 10.044 152.134 10.044C152.955 10.044 153.615 10.2787 154.114 10.748C154.612 11.2173 154.862 11.848 154.862 12.64V13.74C155.507 12.5373 156.431 11.6133 157.634 10.968C158.866 10.2933 160.259 9.956 161.814 9.956ZM160.362 28.084C162.092 28.084 163.442 27.4973 164.41 26.324C165.378 25.1213 165.862 23.4347 165.862 21.264C165.862 19.0347 165.378 17.304 164.41 16.072C163.442 14.84 162.092 14.224 160.362 14.224C158.602 14.224 157.238 14.8253 156.27 16.028C155.331 17.2307 154.862 18.9467 154.862 21.176C154.862 23.376 155.331 25.0773 156.27 26.28C157.238 27.4827 158.602 28.084 160.362 28.084ZM188.767 10.044C189.53 9.98533 190.131 10.1467 190.571 10.528C191.011 10.9093 191.231 11.4813 191.231 12.244C191.231 13.036 191.041 13.6227 190.659 14.004C190.278 14.3853 189.589 14.6347 188.591 14.752L187.271 14.884C185.541 15.06 184.265 15.6467 183.443 16.644C182.651 17.6413 182.255 18.888 182.255 20.384V29.624C182.255 30.4747 181.991 31.1347 181.463 31.604C180.935 32.044 180.275 32.264 179.483 32.264C178.691 32.264 178.031 32.044 177.503 31.604C177.005 31.1347 176.755 30.4747 176.755 29.624V12.596C176.755 11.7747 177.005 11.144 177.503 10.704C178.031 10.264 178.677 10.044 179.439 10.044C180.202 10.044 180.818 10.264 181.287 10.704C181.757 11.1147 181.991 11.716 181.991 12.508V14.268C182.549 12.9773 183.37 11.98 184.455 11.276C185.57 10.572 186.802 10.176 188.151 10.088L188.767 10.044ZM203.862 32.352C201.662 32.352 199.726 31.8973 198.054 30.988C196.411 30.0787 195.135 28.7733 194.226 27.072C193.316 25.3707 192.862 23.3907 192.862 21.132C192.862 18.8733 193.316 16.908 194.226 15.236C195.135 13.5347 196.411 12.2293 198.054 11.32C199.726 10.4107 201.662 9.956 203.862 9.956C206.062 9.956 207.983 10.4107 209.626 11.32C211.298 12.2293 212.574 13.5347 213.454 15.236C214.363 16.908 214.818 18.8733 214.818 21.132C214.818 23.3907 214.363 25.3707 213.454 27.072C212.574 28.7733 211.298 30.0787 209.626 30.988C207.983 31.8973 206.062 32.352 203.862 32.352ZM203.818 28.084C205.607 28.084 206.971 27.4973 207.91 26.324C208.848 25.1507 209.318 23.42 209.318 21.132C209.318 18.8733 208.848 17.1573 207.91 15.984C206.971 14.7813 205.622 14.18 203.862 14.18C202.102 14.18 200.738 14.7813 199.77 15.984C198.831 17.1573 198.362 18.8733 198.362 21.132C198.362 23.42 198.831 25.1507 199.77 26.324C200.708 27.4973 202.058 28.084 203.818 28.084ZM230.05 32.352C227.85 32.352 225.914 31.8973 224.242 30.988C222.599 30.0787 221.323 28.7733 220.414 27.072C219.505 25.3707 219.05 23.3907 219.05 21.132C219.05 18.8733 219.505 16.908 220.414 15.236C221.323 13.5347 222.599 12.2293 224.242 11.32C225.914 10.4107 227.85 9.956 230.05 9.956C232.25 9.956 234.171 10.4107 235.814 11.32C237.486 12.2293 238.762 13.5347 239.642 15.236C240.551 16.908 241.006 18.8733 241.006 21.132C241.006 23.3907 240.551 25.3707 239.642 27.072C238.762 28.7733 237.486 30.0787 235.814 30.988C234.171 31.8973 232.25 32.352 230.05 32.352ZM230.006 28.084C231.795 28.084 233.159 27.4973 234.098 26.324C235.037 25.1507 235.506 23.42 235.506 21.132C235.506 18.8733 235.037 17.1573 234.098 15.984C233.159 14.7813 231.81 14.18 230.05 14.18C228.29 14.18 226.926 14.7813 225.958 15.984C225.019 17.1573 224.55 18.8733 224.55 21.132C224.55 23.42 225.019 25.1507 225.958 26.324C226.897 27.4973 228.246 28.084 230.006 28.084ZM264.778 6.128C263.78 6.128 262.988 5.864 262.402 5.336C261.815 4.77867 261.522 4.06 261.522 3.18C261.522 2.3 261.815 1.596 262.402 1.068C262.988 0.539999 263.78 0.275999 264.778 0.275999C265.746 0.275999 266.523 0.539999 267.11 1.068C267.726 1.596 268.034 2.3 268.034 3.18C268.034 4.06 267.726 4.77867 267.11 5.336C266.523 5.864 265.746 6.128 264.778 6.128ZM265.042 10.484C266.684 10.484 267.506 11.1733 267.506 12.552V29.624C267.506 30.4747 267.242 31.1347 266.714 31.604C266.215 32.044 265.57 32.264 264.778 32.264C263.986 32.264 263.326 32.044 262.798 31.604C262.27 31.1347 262.006 30.4747 262.006 29.624V14.62H253.294V29.624C253.294 30.4747 253.03 31.12 252.502 31.56C252.003 32 251.358 32.22 250.566 32.22C249.774 32.22 249.114 32 248.586 31.56C248.058 31.12 247.794 30.4747 247.794 29.624V14.62H245.594C243.951 14.62 243.13 13.9307 243.13 12.552C243.13 11.1733 243.951 10.484 245.594 10.484H247.794V10.264C247.794 7.536 248.512 5.38 249.95 3.796C251.416 2.18267 253.47 1.25866 256.11 1.024L257.122 0.935999C257.268 0.906666 257.488 0.891999 257.782 0.891999C259.336 0.891999 260.114 1.552 260.114 2.872C260.114 3.51733 259.938 4.016 259.586 4.368C259.234 4.72 258.75 4.92533 258.134 4.984L257.166 5.072C255.816 5.18933 254.834 5.61467 254.218 6.348C253.602 7.052 253.294 8.09333 253.294 9.472V10.484H265.042ZM286.615 9.956C289.197 9.956 291.118 10.6893 292.379 12.156C293.641 13.6227 294.271 15.8373 294.271 18.8V29.624C294.271 30.4453 294.022 31.0907 293.523 31.56C293.054 32.0293 292.394 32.264 291.543 32.264C290.693 32.264 290.018 32.0293 289.519 31.56C289.021 31.0907 288.771 30.4453 288.771 29.624V19.108C288.771 17.436 288.449 16.2187 287.803 15.456C287.187 14.6933 286.205 14.312 284.855 14.312C283.271 14.312 281.995 14.8107 281.027 15.808C280.089 16.8053 279.619 18.14 279.619 19.812V29.624C279.619 30.4453 279.37 31.0907 278.871 31.56C278.373 32.0293 277.698 32.264 276.847 32.264C275.997 32.264 275.322 32.0293 274.823 31.56C274.354 31.0907 274.119 30.4453 274.119 29.624V12.596C274.119 11.8333 274.369 11.2173 274.867 10.748C275.366 10.2787 276.041 10.044 276.891 10.044C277.654 10.044 278.27 10.2787 278.739 10.748C279.238 11.188 279.487 11.7747 279.487 12.508V13.696C280.221 12.4933 281.203 11.5693 282.435 10.924C283.667 10.2787 285.061 9.956 286.615 9.956ZM318.954 10.044C319.775 10.044 320.435 10.2787 320.934 10.748C321.432 11.2173 321.682 11.848 321.682 12.64V30.02C321.682 33.3933 320.743 35.9453 318.866 37.676C316.988 39.4067 314.216 40.272 310.55 40.272C307.352 40.272 304.683 39.6707 302.542 38.468C301.456 37.8227 300.914 37.0453 300.914 36.136C300.914 35.4907 301.06 34.9773 301.354 34.596C301.676 34.2147 302.087 34.024 302.586 34.024C302.85 34.024 303.172 34.0827 303.554 34.2C303.935 34.3467 304.331 34.508 304.742 34.684C305.798 35.124 306.736 35.4613 307.558 35.696C308.408 35.9307 309.376 36.048 310.462 36.048C314.304 36.048 316.226 34.1707 316.226 30.416V27.6C315.58 28.8027 314.642 29.7413 313.41 30.416C312.178 31.0613 310.77 31.384 309.186 31.384C307.308 31.384 305.636 30.944 304.17 30.064C302.732 29.1547 301.603 27.8933 300.782 26.28C299.96 24.6667 299.55 22.804 299.55 20.692C299.55 18.58 299.946 16.7173 300.738 15.104C301.559 13.4613 302.703 12.2 304.17 11.32C305.636 10.4107 307.308 9.956 309.186 9.956C310.77 9.956 312.178 10.2933 313.41 10.968C314.642 11.6133 315.58 12.5373 316.226 13.74V12.596C316.226 11.8333 316.475 11.2173 316.974 10.748C317.472 10.2787 318.132 10.044 318.954 10.044ZM310.638 27.116C312.398 27.116 313.762 26.544 314.73 25.4C315.727 24.256 316.226 22.6867 316.226 20.692C316.226 18.668 315.727 17.084 314.73 15.94C313.762 14.796 312.398 14.224 310.638 14.224C308.907 14.224 307.543 14.796 306.546 15.94C305.548 17.084 305.05 18.668 305.05 20.692C305.05 22.6867 305.548 24.256 306.546 25.4C307.543 26.544 308.907 27.116 310.638 27.116Z" fill="#6850F6"/>
</svg>
