<svg width="1366" height="768" viewBox="0 0 1366 768" fill="none" xmlns="http://www.w3.org/2000/svg">
<g clip-path="url(#clip0)">
<rect width="1365.33" height="768" fill="white"/>
<path d="M30.8 82.8C25.8 82.8 21.4 81.7667 17.6 79.7C13.8667 77.6333 10.9667 74.6667 8.9 70.8C6.83333 66.9333 5.8 62.4333 5.8 57.3C5.8 52.1667 6.83333 47.7 8.9 43.9C10.9667 40.0333 13.8667 37.0667 17.6 35C21.4 32.9333 25.8 31.9 30.8 31.9C35.8 31.9 40.1667 32.9333 43.9 35C47.7 37.0667 50.6 40.0333 52.6 43.9C54.6667 47.7 55.7 52.1667 55.7 57.3C55.7 62.4333 54.6667 66.9333 52.6 70.8C50.6 74.6667 47.7 77.6333 43.9 79.7C40.1667 81.7667 35.8 82.8 30.8 82.8ZM30.7 73.1C34.7667 73.1 37.8667 71.7667 40 69.1C42.1333 66.4333 43.2 62.5 43.2 57.3C43.2 52.1667 42.1333 48.2667 40 45.6C37.8667 42.8667 34.8 41.5 30.8 41.5C26.8 41.5 23.7 42.8667 21.5 45.6C19.3667 48.2667 18.3 52.1667 18.3 57.3C18.3 62.5 19.3667 66.4333 21.5 69.1C23.6333 71.7667 26.7 73.1 30.7 73.1ZM99.3383 35.7C99.8716 34.5 100.572 33.6 101.438 33C102.372 32.4 103.372 32.1 104.438 32.1C105.972 32.1 107.338 32.6333 108.538 33.7C109.805 34.7 110.438 35.9667 110.438 37.5C110.438 38.3 110.238 39.1 109.838 39.9L91.3383 78.6C90.7383 79.8667 89.8716 80.8333 88.7383 81.5C87.6716 82.1667 86.4716 82.5 85.1383 82.5C83.8716 82.5 82.6383 82.1667 81.4383 81.5C80.3049 80.8333 79.4383 79.8667 78.8383 78.6L60.2383 39.9C59.9049 39.2333 59.7383 38.4667 59.7383 37.6C59.7383 36.0667 60.3716 34.7667 61.6383 33.7C62.9716 32.6333 64.4716 32.1 66.1383 32.1C68.5383 32.1 70.3049 33.2667 71.4383 35.6L85.4383 66.5L99.3383 35.7ZM155.794 68.6C156.927 68.6 157.827 69.0333 158.494 69.9C159.227 70.7667 159.594 71.9333 159.594 73.4C159.594 75.4667 158.36 77.2 155.894 78.6C153.627 79.8667 151.06 80.9 148.194 81.7C145.327 82.4333 142.594 82.8 139.994 82.8C132.127 82.8 125.894 80.5333 121.294 76C116.694 71.4667 114.394 65.2667 114.394 57.4C114.394 52.4 115.394 47.9667 117.394 44.1C119.394 40.2333 122.194 37.2333 125.794 35.1C129.46 32.9667 133.594 31.9 138.194 31.9C142.594 31.9 146.427 32.8667 149.694 34.8C152.96 36.7333 155.494 39.4667 157.294 43C159.094 46.5333 159.994 50.7 159.994 55.5C159.994 58.3667 158.727 59.8 156.194 59.8H126.694C127.094 64.4 128.394 67.8 130.594 70C132.794 72.1333 135.994 73.2 140.194 73.2C142.327 73.2 144.194 72.9333 145.794 72.4C147.46 71.8667 149.327 71.1333 151.394 70.2C153.394 69.1333 154.86 68.6 155.794 68.6ZM138.494 40.7C135.094 40.7 132.36 41.7667 130.294 43.9C128.294 46.0333 127.094 49.1 126.694 53.1H149.294C149.16 49.0333 148.16 45.9667 146.294 43.9C144.427 41.7667 141.827 40.7 138.494 40.7ZM197.519 32.1C199.252 31.9667 200.619 32.3333 201.619 33.2C202.619 34.0667 203.119 35.3667 203.119 37.1C203.119 38.9 202.685 40.2333 201.819 41.1C200.952 41.9667 199.385 42.5333 197.119 42.8L194.119 43.1C190.185 43.5 187.285 44.8333 185.419 47.1C183.619 49.3667 182.719 52.2 182.719 55.6V76.6C182.719 78.5333 182.119 80.0333 180.919 81.1C179.719 82.1 178.219 82.6 176.419 82.6C174.619 82.6 173.119 82.1 171.919 81.1C170.785 80.0333 170.219 78.5333 170.219 76.6V37.9C170.219 36.0333 170.785 34.6 171.919 33.6C173.119 32.6 174.585 32.1 176.319 32.1C178.052 32.1 179.452 32.6 180.519 33.6C181.585 34.5333 182.119 35.9 182.119 37.7V41.7C183.385 38.7667 185.252 36.5 187.719 34.9C190.252 33.3 193.052 32.4 196.119 32.2L197.519 32.1ZM245.627 35.7C246.161 34.5 246.861 33.6 247.727 33C248.661 32.4 249.661 32.1 250.727 32.1C252.261 32.1 253.627 32.6333 254.827 33.7C256.094 34.7 256.727 35.9667 256.727 37.5C256.727 38.3 256.527 39.1 256.127 39.9L237.627 78.6C237.027 79.8667 236.161 80.8333 235.027 81.5C233.961 82.1667 232.761 82.5 231.427 82.5C230.161 82.5 228.927 82.1667 227.727 81.5C226.594 80.8333 225.727 79.8667 225.127 78.6L206.527 39.9C206.194 39.2333 206.027 38.4667 206.027 37.6C206.027 36.0667 206.661 34.7667 207.927 33.7C209.261 32.6333 210.761 32.1 212.427 32.1C214.827 32.1 216.594 33.2667 217.727 35.6L231.727 66.5L245.627 35.7ZM272.024 82.6C270.224 82.6 268.724 82.1 267.524 81.1C266.391 80.0333 265.824 78.5333 265.824 76.6V38C265.824 36.0667 266.391 34.6 267.524 33.6C268.724 32.6 270.224 32.1 272.024 32.1C273.824 32.1 275.324 32.6 276.524 33.6C277.724 34.6 278.324 36.0667 278.324 38V76.6C278.324 78.5333 277.724 80.0333 276.524 81.1C275.324 82.1 273.824 82.6 272.024 82.6ZM272.024 23.2C269.758 23.2 267.958 22.6 266.624 21.4C265.291 20.1333 264.624 18.5 264.624 16.5C264.624 14.5 265.291 12.9 266.624 11.7C267.958 10.5 269.758 9.9 272.024 9.9C274.224 9.9 275.991 10.5 277.324 11.7C278.724 12.9 279.424 14.5 279.424 16.5C279.424 18.5 278.758 20.1333 277.424 21.4C276.091 22.6 274.291 23.2 272.024 23.2ZM329.915 68.6C331.048 68.6 331.948 69.0333 332.615 69.9C333.348 70.7667 333.715 71.9333 333.715 73.4C333.715 75.4667 332.482 77.2 330.015 78.6C327.748 79.8667 325.182 80.9 322.315 81.7C319.448 82.4333 316.715 82.8 314.115 82.8C306.248 82.8 300.015 80.5333 295.415 76C290.815 71.4667 288.515 65.2667 288.515 57.4C288.515 52.4 289.515 47.9667 291.515 44.1C293.515 40.2333 296.315 37.2333 299.915 35.1C303.582 32.9667 307.715 31.9 312.315 31.9C316.715 31.9 320.548 32.8667 323.815 34.8C327.082 36.7333 329.615 39.4667 331.415 43C333.215 46.5333 334.115 50.7 334.115 55.5C334.115 58.3667 332.848 59.8 330.315 59.8H300.815C301.215 64.4 302.515 67.8 304.715 70C306.915 72.1333 310.115 73.2 314.315 73.2C316.448 73.2 318.315 72.9333 319.915 72.4C321.582 71.8667 323.448 71.1333 325.515 70.2C327.515 69.1333 328.982 68.6 329.915 68.6ZM312.615 40.7C309.215 40.7 306.482 41.7667 304.415 43.9C302.415 46.0333 301.215 49.1 300.815 53.1H323.415C323.282 49.0333 322.282 45.9667 320.415 43.9C318.548 41.7667 315.948 40.7 312.615 40.7ZM409.659 35.8C410.125 34.6 410.792 33.7 411.659 33.1C412.592 32.5 413.592 32.2 414.659 32.2C416.192 32.2 417.559 32.7333 418.759 33.8C420.025 34.8 420.659 36.0667 420.659 37.6C420.659 38.4667 420.492 39.2333 420.159 39.9L403.659 78.6C403.125 79.8667 402.292 80.8333 401.159 81.5C400.092 82.1667 398.892 82.5 397.559 82.5C396.292 82.5 395.092 82.1667 393.959 81.5C392.892 80.8333 392.092 79.8667 391.559 78.6L379.659 50L368.159 78.6C367.625 79.8667 366.792 80.8333 365.659 81.5C364.592 82.1667 363.392 82.5 362.059 82.5C360.792 82.5 359.592 82.1667 358.459 81.5C357.325 80.8333 356.492 79.8667 355.959 78.6L339.559 39.9C339.225 39.0333 339.059 38.3 339.059 37.7C339.059 36.1667 339.725 34.8667 341.059 33.8C342.392 32.6667 343.859 32.1 345.459 32.1C346.592 32.1 347.625 32.4 348.559 33C349.492 33.6 350.192 34.5 350.659 35.7L362.459 66.2L374.559 36C375.092 34.7333 375.859 33.8 376.859 33.2C377.859 32.5333 378.959 32.2 380.159 32.2C381.359 32.2 382.459 32.5333 383.459 33.2C384.459 33.8 385.225 34.7333 385.759 36L397.959 66.3L409.659 35.8ZM431.295 82.6C429.161 82.6 427.395 81.9 425.995 80.5C424.595 79.0333 423.895 77.2333 423.895 75.1C423.895 72.9667 424.595 71.2 425.995 69.8C427.395 68.3333 429.161 67.6 431.295 67.6C433.428 67.6 435.195 68.3333 436.595 69.8C437.995 71.2 438.695 72.9667 438.695 75.1C438.695 77.2333 437.995 79.0333 436.595 80.5C435.195 81.9 433.428 82.6 431.295 82.6Z" fill="#C2C8F0"/>
<path opacity="0.8" d="M257.44 144.984C259.229 145.483 260.608 146.392 261.576 147.712C262.573 149.032 263.072 150.645 263.072 152.552C263.072 155.192 262.119 157.26 260.212 158.756C258.335 160.252 255.739 161 252.424 161H241.072C240.221 161 239.547 160.765 239.048 160.296C238.579 159.827 238.344 159.167 238.344 158.316V132.664C238.344 131.813 238.579 131.153 239.048 130.684C239.547 130.215 240.221 129.98 241.072 129.98H251.984C255.211 129.98 257.733 130.699 259.552 132.136C261.4 133.544 262.324 135.524 262.324 138.076C262.324 139.719 261.884 141.141 261.004 142.344C260.153 143.547 258.965 144.427 257.44 144.984ZM243.888 143.048H251.06C254.961 143.048 256.912 141.596 256.912 138.692C256.912 137.225 256.428 136.14 255.46 135.436C254.492 134.732 253.025 134.38 251.06 134.38H243.888V143.048ZM251.808 156.6C253.861 156.6 255.357 156.233 256.296 155.5C257.235 154.767 257.704 153.623 257.704 152.068C257.704 150.513 257.22 149.355 256.252 148.592C255.313 147.829 253.832 147.448 251.808 147.448H243.888V156.6H251.808ZM280.787 139.044C281.55 138.985 282.151 139.147 282.591 139.528C283.031 139.909 283.251 140.481 283.251 141.244C283.251 142.036 283.06 142.623 282.679 143.004C282.298 143.385 281.608 143.635 280.611 143.752L279.291 143.884C277.56 144.06 276.284 144.647 275.463 145.644C274.671 146.641 274.275 147.888 274.275 149.384V158.624C274.275 159.475 274.011 160.135 273.483 160.604C272.955 161.044 272.295 161.264 271.503 161.264C270.711 161.264 270.051 161.044 269.523 160.604C269.024 160.135 268.775 159.475 268.775 158.624V141.596C268.775 140.775 269.024 140.144 269.523 139.704C270.051 139.264 270.696 139.044 271.459 139.044C272.222 139.044 272.838 139.264 273.307 139.704C273.776 140.115 274.011 140.716 274.011 141.508V143.268C274.568 141.977 275.39 140.98 276.475 140.276C277.59 139.572 278.822 139.176 280.171 139.088L280.787 139.044ZM289.227 161.264C288.435 161.264 287.775 161.044 287.247 160.604C286.748 160.135 286.499 159.475 286.499 158.624V141.64C286.499 140.789 286.748 140.144 287.247 139.704C287.775 139.264 288.435 139.044 289.227 139.044C290.019 139.044 290.679 139.264 291.207 139.704C291.735 140.144 291.999 140.789 291.999 141.64V158.624C291.999 159.475 291.735 160.135 291.207 160.604C290.679 161.044 290.019 161.264 289.227 161.264ZM289.227 135.128C288.23 135.128 287.438 134.864 286.851 134.336C286.264 133.779 285.971 133.06 285.971 132.18C285.971 131.3 286.264 130.596 286.851 130.068C287.438 129.54 288.23 129.276 289.227 129.276C290.195 129.276 290.972 129.54 291.559 130.068C292.175 130.596 292.483 131.3 292.483 132.18C292.483 133.06 292.19 133.779 291.603 134.336C291.016 134.864 290.224 135.128 289.227 135.128ZM315.579 155.104C316.077 155.104 316.473 155.295 316.767 155.676C317.089 156.057 317.251 156.571 317.251 157.216C317.251 158.125 316.708 158.888 315.623 159.504C314.625 160.061 313.496 160.516 312.235 160.868C310.973 161.191 309.771 161.352 308.627 161.352C305.165 161.352 302.423 160.355 300.399 158.36C298.375 156.365 297.363 153.637 297.363 150.176C297.363 147.976 297.803 146.025 298.683 144.324C299.563 142.623 300.795 141.303 302.379 140.364C303.992 139.425 305.811 138.956 307.835 138.956C309.771 138.956 311.457 139.381 312.895 140.232C314.332 141.083 315.447 142.285 316.239 143.84C317.031 145.395 317.427 147.228 317.427 149.34C317.427 150.601 316.869 151.232 315.755 151.232H302.775C302.951 153.256 303.523 154.752 304.491 155.72C305.459 156.659 306.867 157.128 308.715 157.128C309.653 157.128 310.475 157.011 311.179 156.776C311.912 156.541 312.733 156.219 313.643 155.808C314.523 155.339 315.168 155.104 315.579 155.104ZM307.967 142.828C306.471 142.828 305.268 143.297 304.359 144.236C303.479 145.175 302.951 146.524 302.775 148.284H312.719C312.66 146.495 312.22 145.145 311.399 144.236C310.577 143.297 309.433 142.828 307.967 142.828ZM333.545 134.072C332.196 134.16 331.213 134.571 330.597 135.304C329.981 136.037 329.673 137.093 329.673 138.472V139.484H333.413C335.056 139.484 335.877 140.173 335.877 141.552C335.877 142.931 335.056 143.62 333.413 143.62H329.673V158.624C329.673 159.475 329.409 160.12 328.881 160.56C328.382 161 327.737 161.22 326.945 161.22C326.153 161.22 325.493 161 324.965 160.56C324.437 160.12 324.173 159.475 324.173 158.624V143.62H321.973C320.33 143.62 319.509 142.931 319.509 141.552C319.509 140.173 320.33 139.484 321.973 139.484H324.173V139.176C324.173 136.419 324.892 134.263 326.329 132.708C327.796 131.124 329.849 130.229 332.489 130.024L333.633 129.936C334.806 129.848 335.628 129.98 336.097 130.332C336.596 130.655 336.845 131.168 336.845 131.872C336.845 133.133 336.126 133.837 334.689 133.984L333.545 134.072ZM257.44 223.984C259.229 224.483 260.608 225.392 261.576 226.712C262.573 228.032 263.072 229.645 263.072 231.552C263.072 234.192 262.119 236.26 260.212 237.756C258.335 239.252 255.739 240 252.424 240H241.072C240.221 240 239.547 239.765 239.048 239.296C238.579 238.827 238.344 238.167 238.344 237.316V211.664C238.344 210.813 238.579 210.153 239.048 209.684C239.547 209.215 240.221 208.98 241.072 208.98H251.984C255.211 208.98 257.733 209.699 259.552 211.136C261.4 212.544 262.324 214.524 262.324 217.076C262.324 218.719 261.884 220.141 261.004 221.344C260.153 222.547 258.965 223.427 257.44 223.984ZM243.888 222.048H251.06C254.961 222.048 256.912 220.596 256.912 217.692C256.912 216.225 256.428 215.14 255.46 214.436C254.492 213.732 253.025 213.38 251.06 213.38H243.888V222.048ZM251.808 235.6C253.861 235.6 255.357 235.233 256.296 234.5C257.235 233.767 257.704 232.623 257.704 231.068C257.704 229.513 257.22 228.355 256.252 227.592C255.313 226.829 253.832 226.448 251.808 226.448H243.888V235.6H251.808ZM278.103 217.956C281.095 217.956 283.31 218.704 284.747 220.2C286.214 221.667 286.947 223.911 286.947 226.932V237.668C286.947 238.46 286.712 239.091 286.243 239.56C285.774 240 285.128 240.22 284.307 240.22C283.544 240.22 282.914 239.985 282.415 239.516C281.946 239.047 281.711 238.431 281.711 237.668V236.7C281.212 237.844 280.42 238.739 279.335 239.384C278.279 240.029 277.047 240.352 275.639 240.352C274.202 240.352 272.896 240.059 271.723 239.472C270.55 238.885 269.626 238.079 268.951 237.052C268.276 236.025 267.939 234.881 267.939 233.62C267.939 232.036 268.335 230.789 269.127 229.88C269.948 228.971 271.268 228.311 273.087 227.9C274.906 227.489 277.414 227.284 280.611 227.284H281.711V226.272C281.711 224.835 281.403 223.793 280.787 223.148C280.171 222.473 279.174 222.136 277.795 222.136C276.944 222.136 276.079 222.268 275.199 222.532C274.319 222.767 273.278 223.119 272.075 223.588C271.312 223.969 270.755 224.16 270.403 224.16C269.875 224.16 269.435 223.969 269.083 223.588C268.76 223.207 268.599 222.708 268.599 222.092C268.599 221.593 268.716 221.168 268.951 220.816C269.215 220.435 269.64 220.083 270.227 219.76C271.254 219.203 272.471 218.763 273.879 218.44C275.316 218.117 276.724 217.956 278.103 217.956ZM276.739 236.392C278.206 236.392 279.394 235.908 280.303 234.94C281.242 233.943 281.711 232.667 281.711 231.112V230.188H280.919C278.954 230.188 277.428 230.276 276.343 230.452C275.258 230.628 274.48 230.936 274.011 231.376C273.542 231.816 273.307 232.417 273.307 233.18C273.307 234.119 273.63 234.896 274.275 235.512C274.95 236.099 275.771 236.392 276.739 236.392ZM302.965 240.352C300.824 240.352 298.932 239.897 297.289 238.988C295.676 238.079 294.429 236.788 293.549 235.116C292.669 233.444 292.229 231.493 292.229 229.264C292.229 227.035 292.684 225.069 293.593 223.368C294.532 221.637 295.837 220.303 297.509 219.364C299.181 218.425 301.102 217.956 303.273 217.956C304.417 217.956 305.561 218.117 306.705 218.44C307.878 218.763 308.905 219.203 309.785 219.76C310.724 220.376 311.193 221.153 311.193 222.092C311.193 222.737 311.032 223.265 310.709 223.676C310.416 224.057 310.02 224.248 309.521 224.248C309.198 224.248 308.861 224.175 308.509 224.028C308.157 223.881 307.805 223.705 307.453 223.5C306.808 223.119 306.192 222.825 305.605 222.62C305.018 222.385 304.344 222.268 303.581 222.268C301.762 222.268 300.354 222.869 299.357 224.072C298.389 225.245 297.905 226.947 297.905 229.176C297.905 231.376 298.389 233.077 299.357 234.28C300.354 235.453 301.762 236.04 303.581 236.04C304.314 236.04 304.96 235.937 305.517 235.732C306.104 235.497 306.749 235.189 307.453 234.808C307.893 234.544 308.274 234.353 308.597 234.236C308.92 234.089 309.242 234.016 309.565 234.016C310.034 234.016 310.43 234.221 310.753 234.632C311.076 235.043 311.237 235.556 311.237 236.172C311.237 236.671 311.12 237.111 310.885 237.492C310.68 237.844 310.328 238.167 309.829 238.46C308.92 239.047 307.864 239.516 306.661 239.868C305.458 240.191 304.226 240.352 302.965 240.352ZM334.921 235.732C335.508 236.289 335.801 236.92 335.801 237.624C335.801 238.299 335.552 238.9 335.053 239.428C334.584 239.956 334.027 240.22 333.381 240.22C332.736 240.22 332.135 239.956 331.577 239.428L321.281 230.1V237.624C321.281 238.475 321.017 239.12 320.489 239.56C319.961 240 319.301 240.22 318.509 240.22C317.717 240.22 317.057 240 316.529 239.56C316.031 239.12 315.781 238.475 315.781 237.624V211.356C315.781 210.505 316.031 209.86 316.529 209.42C317.057 208.98 317.717 208.76 318.509 208.76C319.301 208.76 319.961 208.98 320.489 209.42C321.017 209.86 321.281 210.505 321.281 211.356V227.9L330.697 218.88C331.225 218.352 331.827 218.088 332.501 218.088C333.176 218.088 333.763 218.337 334.261 218.836C334.76 219.335 335.009 219.921 335.009 220.596C335.009 221.271 334.731 221.887 334.173 222.444L327.265 228.868L334.921 235.732ZM358.166 218.044C358.988 218.044 359.648 218.279 360.146 218.748C360.645 219.217 360.894 219.848 360.894 220.64V238.02C360.894 241.393 359.956 243.945 358.078 245.676C356.201 247.407 353.429 248.272 349.762 248.272C346.565 248.272 343.896 247.671 341.754 246.468C340.669 245.823 340.126 245.045 340.126 244.136C340.126 243.491 340.273 242.977 340.566 242.596C340.889 242.215 341.3 242.024 341.798 242.024C342.062 242.024 342.385 242.083 342.766 242.2C343.148 242.347 343.544 242.508 343.954 242.684C345.01 243.124 345.949 243.461 346.77 243.696C347.621 243.931 348.589 244.048 349.674 244.048C353.517 244.048 355.438 242.171 355.438 238.416V235.6C354.793 236.803 353.854 237.741 352.622 238.416C351.39 239.061 349.982 239.384 348.398 239.384C346.521 239.384 344.849 238.944 343.382 238.064C341.945 237.155 340.816 235.893 339.994 234.28C339.173 232.667 338.762 230.804 338.762 228.692C338.762 226.58 339.158 224.717 339.95 223.104C340.772 221.461 341.916 220.2 343.382 219.32C344.849 218.411 346.521 217.956 348.398 217.956C349.982 217.956 351.39 218.293 352.622 218.968C353.854 219.613 354.793 220.537 355.438 221.74V220.596C355.438 219.833 355.688 219.217 356.186 218.748C356.685 218.279 357.345 218.044 358.166 218.044ZM349.85 235.116C351.61 235.116 352.974 234.544 353.942 233.4C354.94 232.256 355.438 230.687 355.438 228.692C355.438 226.668 354.94 225.084 353.942 223.94C352.974 222.796 351.61 222.224 349.85 222.224C348.12 222.224 346.756 222.796 345.758 223.94C344.761 225.084 344.262 226.668 344.262 228.692C344.262 230.687 344.761 232.256 345.758 233.4C346.756 234.544 348.12 235.116 349.85 235.116ZM379.483 218.044C380.246 217.985 380.847 218.147 381.287 218.528C381.727 218.909 381.947 219.481 381.947 220.244C381.947 221.036 381.756 221.623 381.375 222.004C380.994 222.385 380.304 222.635 379.307 222.752L377.987 222.884C376.256 223.06 374.98 223.647 374.159 224.644C373.367 225.641 372.971 226.888 372.971 228.384V237.624C372.971 238.475 372.707 239.135 372.179 239.604C371.651 240.044 370.991 240.264 370.199 240.264C369.407 240.264 368.747 240.044 368.219 239.604C367.72 239.135 367.471 238.475 367.471 237.624V220.596C367.471 219.775 367.72 219.144 368.219 218.704C368.747 218.264 369.392 218.044 370.155 218.044C370.918 218.044 371.534 218.264 372.003 218.704C372.472 219.115 372.707 219.716 372.707 220.508V222.268C373.264 220.977 374.086 219.98 375.171 219.276C376.286 218.572 377.518 218.176 378.867 218.088L379.483 218.044ZM394.577 240.352C392.377 240.352 390.441 239.897 388.769 238.988C387.126 238.079 385.85 236.773 384.941 235.072C384.032 233.371 383.577 231.391 383.577 229.132C383.577 226.873 384.032 224.908 384.941 223.236C385.85 221.535 387.126 220.229 388.769 219.32C390.441 218.411 392.377 217.956 394.577 217.956C396.777 217.956 398.698 218.411 400.341 219.32C402.013 220.229 403.289 221.535 404.169 223.236C405.078 224.908 405.533 226.873 405.533 229.132C405.533 231.391 405.078 233.371 404.169 235.072C403.289 236.773 402.013 238.079 400.341 238.988C398.698 239.897 396.777 240.352 394.577 240.352ZM394.533 236.084C396.322 236.084 397.686 235.497 398.625 234.324C399.564 233.151 400.033 231.42 400.033 229.132C400.033 226.873 399.564 225.157 398.625 223.984C397.686 222.781 396.337 222.18 394.577 222.18C392.817 222.18 391.453 222.781 390.485 223.984C389.546 225.157 389.077 226.873 389.077 229.132C389.077 231.42 389.546 233.151 390.485 234.324C391.424 235.497 392.773 236.084 394.533 236.084ZM427.938 218.044C428.788 218.044 429.463 218.279 429.962 218.748C430.46 219.217 430.71 219.848 430.71 220.64V237.712C430.71 238.475 430.446 239.091 429.918 239.56C429.419 240.029 428.759 240.264 427.938 240.264C427.146 240.264 426.515 240.044 426.046 239.604C425.576 239.164 425.342 238.563 425.342 237.8V236.7C424.667 237.873 423.758 238.783 422.614 239.428C421.47 240.044 420.179 240.352 418.742 240.352C413.462 240.352 410.822 237.389 410.822 231.464V220.64C410.822 219.848 411.071 219.217 411.57 218.748C412.068 218.279 412.728 218.044 413.55 218.044C414.4 218.044 415.075 218.279 415.574 218.748C416.072 219.217 416.322 219.848 416.322 220.64V231.508C416.322 233.033 416.63 234.163 417.246 234.896C417.862 235.629 418.83 235.996 420.15 235.996C421.675 235.996 422.892 235.497 423.802 234.5C424.74 233.473 425.21 232.124 425.21 230.452V220.64C425.21 219.848 425.459 219.217 425.958 218.748C426.456 218.279 427.116 218.044 427.938 218.044ZM449.81 217.956C452.391 217.956 454.313 218.689 455.574 220.156C456.835 221.623 457.466 223.837 457.466 226.8V237.624C457.466 238.445 457.217 239.091 456.718 239.56C456.249 240.029 455.589 240.264 454.738 240.264C453.887 240.264 453.213 240.029 452.714 239.56C452.215 239.091 451.966 238.445 451.966 237.624V227.108C451.966 225.436 451.643 224.219 450.998 223.456C450.382 222.693 449.399 222.312 448.05 222.312C446.466 222.312 445.19 222.811 444.222 223.808C443.283 224.805 442.814 226.14 442.814 227.812V237.624C442.814 238.445 442.565 239.091 442.066 239.56C441.567 240.029 440.893 240.264 440.042 240.264C439.191 240.264 438.517 240.029 438.018 239.56C437.549 239.091 437.314 238.445 437.314 237.624V220.596C437.314 219.833 437.563 219.217 438.062 218.748C438.561 218.279 439.235 218.044 440.086 218.044C440.849 218.044 441.465 218.279 441.934 218.748C442.433 219.188 442.682 219.775 442.682 220.508V221.696C443.415 220.493 444.398 219.569 445.63 218.924C446.862 218.279 448.255 217.956 449.81 217.956ZM481.884 208.76C482.706 208.76 483.38 208.995 483.908 209.464C484.436 209.933 484.7 210.549 484.7 211.312V237.624C484.7 238.416 484.451 239.047 483.952 239.516C483.454 239.985 482.794 240.22 481.972 240.22C481.151 240.22 480.491 239.985 479.992 239.516C479.494 239.047 479.244 238.416 479.244 237.624V236.524C478.599 237.727 477.66 238.665 476.428 239.34C475.226 240.015 473.847 240.352 472.292 240.352C470.444 240.352 468.787 239.883 467.32 238.944C465.883 238.005 464.754 236.685 463.932 234.984C463.14 233.253 462.744 231.273 462.744 229.044C462.744 226.815 463.14 224.864 463.932 223.192C464.754 221.52 465.883 220.229 467.32 219.32C468.758 218.411 470.415 217.956 472.292 217.956C473.847 217.956 475.226 218.279 476.428 218.924C477.631 219.569 478.555 220.479 479.2 221.652V211.224C479.2 210.491 479.435 209.904 479.904 209.464C480.403 208.995 481.063 208.76 481.884 208.76ZM473.744 236.084C475.504 236.084 476.854 235.483 477.792 234.28C478.76 233.077 479.244 231.361 479.244 229.132C479.244 226.903 478.76 225.201 477.792 224.028C476.854 222.825 475.519 222.224 473.788 222.224C472.028 222.224 470.664 222.811 469.696 223.984C468.728 225.157 468.244 226.844 468.244 229.044C468.244 231.273 468.728 233.004 469.696 234.236C470.664 235.468 472.014 236.084 473.744 236.084ZM241.16 319.264C240.309 319.264 239.62 319.015 239.092 318.516C238.593 317.988 238.344 317.284 238.344 316.404V290.664C238.344 289.813 238.579 289.153 239.048 288.684C239.547 288.215 240.221 287.98 241.072 287.98H251.896C255.211 287.98 257.792 288.816 259.64 290.488C261.488 292.131 262.412 294.448 262.412 297.44C262.412 300.432 261.488 302.764 259.64 304.436C257.792 306.108 255.211 306.944 251.896 306.944H244.02V316.404C244.02 317.284 243.756 317.988 243.228 318.516C242.729 319.015 242.04 319.264 241.16 319.264ZM251.192 302.588C255.093 302.588 257.044 300.887 257.044 297.484C257.044 294.081 255.093 292.38 251.192 292.38H244.02V302.588H251.192ZM279.369 297.044C280.132 296.985 280.733 297.147 281.173 297.528C281.613 297.909 281.833 298.481 281.833 299.244C281.833 300.036 281.643 300.623 281.261 301.004C280.88 301.385 280.191 301.635 279.193 301.752L277.873 301.884C276.143 302.06 274.867 302.647 274.045 303.644C273.253 304.641 272.857 305.888 272.857 307.384V316.624C272.857 317.475 272.593 318.135 272.065 318.604C271.537 319.044 270.877 319.264 270.085 319.264C269.293 319.264 268.633 319.044 268.105 318.604C267.607 318.135 267.357 317.475 267.357 316.624V299.596C267.357 298.775 267.607 298.144 268.105 297.704C268.633 297.264 269.279 297.044 270.041 297.044C270.804 297.044 271.42 297.264 271.889 297.704C272.359 298.115 272.593 298.716 272.593 299.508V301.268C273.151 299.977 273.972 298.98 275.057 298.276C276.172 297.572 277.404 297.176 278.753 297.088L279.369 297.044ZM294.463 319.352C292.263 319.352 290.327 318.897 288.655 317.988C287.013 317.079 285.737 315.773 284.827 314.072C283.918 312.371 283.463 310.391 283.463 308.132C283.463 305.873 283.918 303.908 284.827 302.236C285.737 300.535 287.013 299.229 288.655 298.32C290.327 297.411 292.263 296.956 294.463 296.956C296.663 296.956 298.585 297.411 300.227 298.32C301.899 299.229 303.175 300.535 304.055 302.236C304.965 303.908 305.419 305.873 305.419 308.132C305.419 310.391 304.965 312.371 304.055 314.072C303.175 315.773 301.899 317.079 300.227 317.988C298.585 318.897 296.663 319.352 294.463 319.352ZM294.419 315.084C296.209 315.084 297.573 314.497 298.511 313.324C299.45 312.151 299.919 310.42 299.919 308.132C299.919 305.873 299.45 304.157 298.511 302.984C297.573 301.781 296.223 301.18 294.463 301.18C292.703 301.18 291.339 301.781 290.371 302.984C289.433 304.157 288.963 305.873 288.963 308.132C288.963 310.42 289.433 312.151 290.371 313.324C291.31 314.497 292.659 315.084 294.419 315.084ZM323.204 296.956C325.081 296.956 326.739 297.411 328.176 298.32C329.613 299.229 330.728 300.52 331.52 302.192C332.341 303.864 332.752 305.815 332.752 308.044C332.752 310.273 332.341 312.253 331.52 313.984C330.728 315.685 329.599 317.005 328.132 317.944C326.695 318.883 325.052 319.352 323.204 319.352C321.649 319.352 320.256 319.015 319.024 318.34C317.821 317.665 316.897 316.727 316.252 315.524V316.624C316.252 317.416 316.003 318.047 315.504 318.516C315.005 318.985 314.345 319.22 313.524 319.22C312.703 319.22 312.043 318.985 311.544 318.516C311.075 318.047 310.84 317.416 310.84 316.624V290.312C310.84 289.549 311.089 288.933 311.588 288.464C312.116 287.995 312.791 287.76 313.612 287.76C314.433 287.76 315.093 287.98 315.592 288.42C316.091 288.86 316.34 289.461 316.34 290.224V300.608C316.985 299.435 317.909 298.54 319.112 297.924C320.315 297.279 321.679 296.956 323.204 296.956ZM321.752 315.084C323.483 315.084 324.832 314.468 325.8 313.236C326.768 312.004 327.252 310.273 327.252 308.044C327.252 305.844 326.768 304.157 325.8 302.984C324.861 301.811 323.512 301.224 321.752 301.224C319.992 301.224 318.628 301.825 317.66 303.028C316.721 304.201 316.252 305.903 316.252 308.132C316.252 310.361 316.721 312.077 317.66 313.28C318.628 314.483 319.992 315.084 321.752 315.084ZM340.874 319.264C340.082 319.264 339.422 319.044 338.894 318.604C338.395 318.135 338.146 317.475 338.146 316.624V290.356C338.146 289.505 338.395 288.86 338.894 288.42C339.422 287.98 340.082 287.76 340.874 287.76C341.666 287.76 342.326 287.98 342.854 288.42C343.382 288.86 343.646 289.505 343.646 290.356V316.624C343.646 317.475 343.382 318.135 342.854 318.604C342.326 319.044 341.666 319.264 340.874 319.264ZM367.226 313.104C367.724 313.104 368.12 313.295 368.414 313.676C368.736 314.057 368.898 314.571 368.898 315.216C368.898 316.125 368.355 316.888 367.27 317.504C366.272 318.061 365.143 318.516 363.882 318.868C362.62 319.191 361.418 319.352 360.274 319.352C356.812 319.352 354.07 318.355 352.046 316.36C350.022 314.365 349.01 311.637 349.01 308.176C349.01 305.976 349.45 304.025 350.33 302.324C351.21 300.623 352.442 299.303 354.026 298.364C355.639 297.425 357.458 296.956 359.482 296.956C361.418 296.956 363.104 297.381 364.542 298.232C365.979 299.083 367.094 300.285 367.886 301.84C368.678 303.395 369.074 305.228 369.074 307.34C369.074 308.601 368.516 309.232 367.402 309.232H354.422C354.598 311.256 355.17 312.752 356.138 313.72C357.106 314.659 358.514 315.128 360.362 315.128C361.3 315.128 362.122 315.011 362.826 314.776C363.559 314.541 364.38 314.219 365.29 313.808C366.17 313.339 366.815 313.104 367.226 313.104ZM359.614 300.828C358.118 300.828 356.915 301.297 356.006 302.236C355.126 303.175 354.598 304.524 354.422 306.284H364.366C364.307 304.495 363.867 303.145 363.046 302.236C362.224 301.297 361.08 300.828 359.614 300.828ZM400.016 296.956C402.363 296.956 404.152 297.66 405.384 299.068C406.646 300.447 407.277 302.691 407.277 305.8V316.624C407.277 317.475 407.013 318.135 406.485 318.604C405.986 319.044 405.326 319.264 404.504 319.264C403.712 319.264 403.052 319.044 402.524 318.604C402.026 318.135 401.777 317.475 401.777 316.624V305.8C401.777 304.187 401.483 303.043 400.896 302.368C400.339 301.664 399.474 301.312 398.301 301.312C396.863 301.312 395.719 301.811 394.869 302.808C394.018 303.776 393.592 305.111 393.592 306.812V316.624C393.592 317.475 393.328 318.135 392.8 318.604C392.302 319.044 391.657 319.264 390.864 319.264C390.072 319.264 389.412 319.044 388.884 318.604C388.356 318.135 388.093 317.475 388.093 316.624V305.8C388.093 304.187 387.799 303.043 387.212 302.368C386.655 301.664 385.79 301.312 384.616 301.312C383.179 301.312 382.035 301.811 381.184 302.808C380.363 303.776 379.952 305.111 379.952 306.812V316.624C379.952 317.475 379.688 318.135 379.16 318.604C378.632 319.044 377.972 319.264 377.18 319.264C376.388 319.264 375.728 319.044 375.2 318.604C374.702 318.135 374.452 317.475 374.452 316.624V299.596C374.452 298.775 374.716 298.144 375.244 297.704C375.772 297.264 376.432 297.044 377.224 297.044C377.987 297.044 378.603 297.264 379.072 297.704C379.571 298.115 379.82 298.716 379.82 299.508V300.564C380.495 299.391 381.39 298.496 382.504 297.88C383.648 297.264 384.954 296.956 386.42 296.956C389.647 296.956 391.803 298.305 392.888 301.004C393.534 299.772 394.487 298.789 395.748 298.056C397.01 297.323 398.432 296.956 400.016 296.956ZM261.972 381.236C262.647 381.236 263.189 381.441 263.6 381.852C264.011 382.233 264.216 382.747 264.216 383.392V392.852C264.216 394.201 264.04 395.155 263.688 395.712C263.336 396.269 262.617 396.724 261.532 397.076C260.359 397.487 258.995 397.809 257.44 398.044C255.885 398.279 254.389 398.396 252.952 398.396C249.755 398.396 246.983 397.765 244.636 396.504C242.289 395.243 240.485 393.424 239.224 391.048C237.992 388.643 237.376 385.783 237.376 382.468C237.376 379.212 237.992 376.396 239.224 374.02C240.485 371.615 242.26 369.781 244.548 368.52C246.836 367.229 249.535 366.584 252.644 366.584C256.78 366.584 260.168 367.699 262.808 369.928C263.16 370.251 263.409 370.573 263.556 370.896C263.732 371.219 263.82 371.6 263.82 372.04C263.82 372.685 263.644 373.228 263.292 373.668C262.94 374.108 262.515 374.328 262.016 374.328C261.693 374.328 261.4 374.284 261.136 374.196C260.872 374.079 260.564 373.903 260.212 373.668C258.921 372.759 257.719 372.128 256.604 371.776C255.489 371.395 254.228 371.204 252.82 371.204C249.623 371.204 247.203 372.157 245.56 374.064C243.947 375.941 243.14 378.743 243.14 382.468C243.14 390.095 246.484 393.908 253.172 393.908C255.167 393.908 257.161 393.629 259.156 393.072V385.284H254.184C253.48 385.284 252.923 385.108 252.512 384.756C252.131 384.404 251.94 383.905 251.94 383.26C251.94 382.615 252.131 382.116 252.512 381.764C252.923 381.412 253.48 381.236 254.184 381.236H261.972ZM280.822 398.352C278.622 398.352 276.686 397.897 275.014 396.988C273.371 396.079 272.095 394.773 271.186 393.072C270.276 391.371 269.822 389.391 269.822 387.132C269.822 384.873 270.276 382.908 271.186 381.236C272.095 379.535 273.371 378.229 275.014 377.32C276.686 376.411 278.622 375.956 280.822 375.956C283.022 375.956 284.943 376.411 286.586 377.32C288.258 378.229 289.534 379.535 290.414 381.236C291.323 382.908 291.778 384.873 291.778 387.132C291.778 389.391 291.323 391.371 290.414 393.072C289.534 394.773 288.258 396.079 286.586 396.988C284.943 397.897 283.022 398.352 280.822 398.352ZM280.778 394.084C282.567 394.084 283.931 393.497 284.87 392.324C285.808 391.151 286.278 389.42 286.278 387.132C286.278 384.873 285.808 383.157 284.87 381.984C283.931 380.781 282.582 380.18 280.822 380.18C279.062 380.18 277.698 380.781 276.73 381.984C275.791 383.157 275.322 384.873 275.322 387.132C275.322 389.42 275.791 391.151 276.73 392.324C277.668 393.497 279.018 394.084 280.778 394.084ZM306.526 375.956C309.518 375.956 311.733 376.704 313.17 378.2C314.637 379.667 315.37 381.911 315.37 384.932V395.668C315.37 396.46 315.135 397.091 314.666 397.56C314.197 398 313.551 398.22 312.73 398.22C311.967 398.22 311.337 397.985 310.838 397.516C310.369 397.047 310.134 396.431 310.134 395.668V394.7C309.635 395.844 308.843 396.739 307.758 397.384C306.702 398.029 305.47 398.352 304.062 398.352C302.625 398.352 301.319 398.059 300.146 397.472C298.973 396.885 298.049 396.079 297.374 395.052C296.699 394.025 296.362 392.881 296.362 391.62C296.362 390.036 296.758 388.789 297.55 387.88C298.371 386.971 299.691 386.311 301.51 385.9C303.329 385.489 305.837 385.284 309.034 385.284H310.134V384.272C310.134 382.835 309.826 381.793 309.21 381.148C308.594 380.473 307.597 380.136 306.218 380.136C305.367 380.136 304.502 380.268 303.622 380.532C302.742 380.767 301.701 381.119 300.498 381.588C299.735 381.969 299.178 382.16 298.826 382.16C298.298 382.16 297.858 381.969 297.506 381.588C297.183 381.207 297.022 380.708 297.022 380.092C297.022 379.593 297.139 379.168 297.374 378.816C297.638 378.435 298.063 378.083 298.65 377.76C299.677 377.203 300.894 376.763 302.302 376.44C303.739 376.117 305.147 375.956 306.526 375.956ZM305.162 394.392C306.629 394.392 307.817 393.908 308.726 392.94C309.665 391.943 310.134 390.667 310.134 389.112V388.188H309.342C307.377 388.188 305.851 388.276 304.766 388.452C303.681 388.628 302.903 388.936 302.434 389.376C301.965 389.816 301.73 390.417 301.73 391.18C301.73 392.119 302.053 392.896 302.698 393.512C303.373 394.099 304.194 394.392 305.162 394.392ZM324.568 398.264C323.776 398.264 323.116 398.044 322.588 397.604C322.089 397.135 321.84 396.475 321.84 395.624V369.356C321.84 368.505 322.089 367.86 322.588 367.42C323.116 366.98 323.776 366.76 324.568 366.76C325.36 366.76 326.02 366.98 326.548 367.42C327.076 367.86 327.34 368.505 327.34 369.356V395.624C327.34 396.475 327.076 397.135 326.548 397.604C326.02 398.044 325.36 398.264 324.568 398.264ZM248.508 477.22C247.628 477.22 246.924 476.971 246.396 476.472C245.897 475.944 245.648 475.255 245.648 474.404V450.644H237.64C235.88 450.644 235 449.867 235 448.312C235 446.757 235.88 445.98 237.64 445.98H259.332C261.092 445.98 261.972 446.757 261.972 448.312C261.972 449.867 261.092 450.644 259.332 450.644H251.324V474.404C251.324 475.255 251.06 475.944 250.532 476.472C250.033 476.971 249.359 477.22 248.508 477.22ZM271.615 454.956C274.607 454.956 276.822 455.704 278.259 457.2C279.726 458.667 280.459 460.911 280.459 463.932V474.668C280.459 475.46 280.224 476.091 279.755 476.56C279.286 477 278.64 477.22 277.819 477.22C277.056 477.22 276.426 476.985 275.927 476.516C275.458 476.047 275.223 475.431 275.223 474.668V473.7C274.724 474.844 273.932 475.739 272.847 476.384C271.791 477.029 270.559 477.352 269.151 477.352C267.714 477.352 266.408 477.059 265.235 476.472C264.062 475.885 263.138 475.079 262.463 474.052C261.788 473.025 261.451 471.881 261.451 470.62C261.451 469.036 261.847 467.789 262.639 466.88C263.46 465.971 264.78 465.311 266.599 464.9C268.418 464.489 270.926 464.284 274.123 464.284H275.223V463.272C275.223 461.835 274.915 460.793 274.299 460.148C273.683 459.473 272.686 459.136 271.307 459.136C270.456 459.136 269.591 459.268 268.711 459.532C267.831 459.767 266.79 460.119 265.587 460.588C264.824 460.969 264.267 461.16 263.915 461.16C263.387 461.16 262.947 460.969 262.595 460.588C262.272 460.207 262.111 459.708 262.111 459.092C262.111 458.593 262.228 458.168 262.463 457.816C262.727 457.435 263.152 457.083 263.739 456.76C264.766 456.203 265.983 455.763 267.391 455.44C268.828 455.117 270.236 454.956 271.615 454.956ZM270.251 473.392C271.718 473.392 272.906 472.908 273.815 471.94C274.754 470.943 275.223 469.667 275.223 468.112V467.188H274.431C272.466 467.188 270.94 467.276 269.855 467.452C268.77 467.628 267.992 467.936 267.523 468.376C267.054 468.816 266.819 469.417 266.819 470.18C266.819 471.119 267.142 471.896 267.787 472.512C268.462 473.099 269.283 473.392 270.251 473.392ZM298.941 455.044C299.703 454.985 300.305 455.147 300.745 455.528C301.185 455.909 301.405 456.481 301.405 457.244C301.405 458.036 301.214 458.623 300.833 459.004C300.451 459.385 299.762 459.635 298.765 459.752L297.445 459.884C295.714 460.06 294.438 460.647 293.617 461.644C292.825 462.641 292.429 463.888 292.429 465.384V474.624C292.429 475.475 292.165 476.135 291.637 476.604C291.109 477.044 290.449 477.264 289.657 477.264C288.865 477.264 288.205 477.044 287.677 476.604C287.178 476.135 286.929 475.475 286.929 474.624V457.596C286.929 456.775 287.178 456.144 287.677 455.704C288.205 455.264 288.85 455.044 289.613 455.044C290.375 455.044 290.991 455.264 291.461 455.704C291.93 456.115 292.165 456.716 292.165 457.508V459.268C292.722 457.977 293.543 456.98 294.629 456.276C295.743 455.572 296.975 455.176 298.325 455.088L298.941 455.044ZM322.439 455.044C323.26 455.044 323.92 455.279 324.419 455.748C324.917 456.217 325.167 456.848 325.167 457.64V475.02C325.167 478.393 324.228 480.945 322.351 482.676C320.473 484.407 317.701 485.272 314.035 485.272C310.837 485.272 308.168 484.671 306.027 483.468C304.941 482.823 304.399 482.045 304.399 481.136C304.399 480.491 304.545 479.977 304.839 479.596C305.161 479.215 305.572 479.024 306.071 479.024C306.335 479.024 306.657 479.083 307.039 479.2C307.42 479.347 307.816 479.508 308.227 479.684C309.283 480.124 310.221 480.461 311.043 480.696C311.893 480.931 312.861 481.048 313.947 481.048C317.789 481.048 319.711 479.171 319.711 475.416V472.6C319.065 473.803 318.127 474.741 316.895 475.416C315.663 476.061 314.255 476.384 312.671 476.384C310.793 476.384 309.121 475.944 307.655 475.064C306.217 474.155 305.088 472.893 304.267 471.28C303.445 469.667 303.035 467.804 303.035 465.692C303.035 463.58 303.431 461.717 304.223 460.104C305.044 458.461 306.188 457.2 307.655 456.32C309.121 455.411 310.793 454.956 312.671 454.956C314.255 454.956 315.663 455.293 316.895 455.968C318.127 456.613 319.065 457.537 319.711 458.74V457.596C319.711 456.833 319.96 456.217 320.459 455.748C320.957 455.279 321.617 455.044 322.439 455.044ZM314.123 472.116C315.883 472.116 317.247 471.544 318.215 470.4C319.212 469.256 319.711 467.687 319.711 465.692C319.711 463.668 319.212 462.084 318.215 460.94C317.247 459.796 315.883 459.224 314.123 459.224C312.392 459.224 311.028 459.796 310.031 460.94C309.033 462.084 308.535 463.668 308.535 465.692C308.535 467.687 309.033 469.256 310.031 470.4C311.028 471.544 312.392 472.116 314.123 472.116ZM348.771 471.104C349.27 471.104 349.666 471.295 349.959 471.676C350.282 472.057 350.443 472.571 350.443 473.216C350.443 474.125 349.901 474.888 348.815 475.504C347.818 476.061 346.689 476.516 345.427 476.868C344.166 477.191 342.963 477.352 341.819 477.352C338.358 477.352 335.615 476.355 333.591 474.36C331.567 472.365 330.555 469.637 330.555 466.176C330.555 463.976 330.995 462.025 331.875 460.324C332.755 458.623 333.987 457.303 335.571 456.364C337.185 455.425 339.003 454.956 341.027 454.956C342.963 454.956 344.65 455.381 346.087 456.232C347.525 457.083 348.639 458.285 349.431 459.84C350.223 461.395 350.619 463.228 350.619 465.34C350.619 466.601 350.062 467.232 348.947 467.232H335.967C336.143 469.256 336.715 470.752 337.683 471.72C338.651 472.659 340.059 473.128 341.907 473.128C342.846 473.128 343.667 473.011 344.371 472.776C345.105 472.541 345.926 472.219 346.835 471.808C347.715 471.339 348.361 471.104 348.771 471.104ZM341.159 458.828C339.663 458.828 338.461 459.297 337.551 460.236C336.671 461.175 336.143 462.524 335.967 464.284H345.911C345.853 462.495 345.413 461.145 344.591 460.236C343.77 459.297 342.626 458.828 341.159 458.828ZM366.874 473.172C368.34 473.26 369.074 473.92 369.074 475.152C369.074 475.856 368.78 476.399 368.194 476.78C367.636 477.132 366.83 477.279 365.774 477.22L364.586 477.132C359.658 476.78 357.194 474.14 357.194 469.212V459.62H354.994C354.202 459.62 353.586 459.444 353.146 459.092C352.735 458.74 352.53 458.227 352.53 457.552C352.53 456.877 352.735 456.364 353.146 456.012C353.586 455.66 354.202 455.484 354.994 455.484H357.194V451.436C357.194 450.644 357.443 450.013 357.942 449.544C358.44 449.075 359.115 448.84 359.966 448.84C360.787 448.84 361.447 449.075 361.946 449.544C362.444 450.013 362.694 450.644 362.694 451.436V455.484H366.434C367.226 455.484 367.827 455.66 368.238 456.012C368.678 456.364 368.898 456.877 368.898 457.552C368.898 458.227 368.678 458.74 368.238 459.092C367.827 459.444 367.226 459.62 366.434 459.62H362.694V469.608C362.694 471.779 363.691 472.937 365.686 473.084L366.874 473.172ZM402.629 455.044C403.48 455.044 404.154 455.279 404.653 455.748C405.152 456.217 405.401 456.848 405.401 457.64V474.712C405.401 475.475 405.137 476.091 404.609 476.56C404.11 477.029 403.45 477.264 402.629 477.264C401.837 477.264 401.206 477.044 400.737 476.604C400.268 476.164 400.033 475.563 400.033 474.8V473.7C399.358 474.873 398.449 475.783 397.305 476.428C396.161 477.044 394.87 477.352 393.433 477.352C388.153 477.352 385.513 474.389 385.513 468.464V457.64C385.513 456.848 385.762 456.217 386.261 455.748C386.76 455.279 387.42 455.044 388.241 455.044C389.092 455.044 389.766 455.279 390.265 455.748C390.764 456.217 391.013 456.848 391.013 457.64V468.508C391.013 470.033 391.321 471.163 391.937 471.896C392.553 472.629 393.521 472.996 394.841 472.996C396.366 472.996 397.584 472.497 398.493 471.5C399.432 470.473 399.901 469.124 399.901 467.452V457.64C399.901 456.848 400.15 456.217 400.649 455.748C401.148 455.279 401.808 455.044 402.629 455.044ZM419.793 477.352C416.596 477.352 414.015 476.721 412.049 475.46C411.111 474.903 410.641 474.111 410.641 473.084C410.641 472.497 410.803 472.028 411.125 471.676C411.448 471.295 411.844 471.104 412.313 471.104C412.812 471.104 413.501 471.339 414.381 471.808C415.32 472.248 416.171 472.585 416.933 472.82C417.725 473.055 418.723 473.172 419.925 473.172C421.157 473.172 422.111 472.967 422.785 472.556C423.489 472.145 423.841 471.573 423.841 470.84C423.841 470.341 423.695 469.945 423.401 469.652C423.137 469.359 422.639 469.095 421.905 468.86C421.201 468.596 420.116 468.303 418.649 467.98C416.039 467.452 414.161 466.704 413.017 465.736C411.903 464.768 411.345 463.433 411.345 461.732C411.345 460.441 411.727 459.283 412.489 458.256C413.252 457.2 414.293 456.393 415.613 455.836C416.963 455.249 418.488 454.956 420.189 454.956C421.421 454.956 422.609 455.117 423.753 455.44C424.897 455.733 425.924 456.173 426.833 456.76C427.772 457.347 428.241 458.124 428.241 459.092C428.241 459.679 428.08 460.177 427.757 460.588C427.435 460.969 427.039 461.16 426.569 461.16C426.247 461.16 425.924 461.101 425.601 460.984C425.308 460.837 424.927 460.632 424.457 460.368C423.607 459.928 422.873 459.605 422.257 459.4C421.641 459.165 420.879 459.048 419.969 459.048C418.884 459.048 418.019 459.268 417.373 459.708C416.757 460.148 416.449 460.749 416.449 461.512C416.449 462.245 416.772 462.803 417.417 463.184C418.063 463.565 419.309 463.947 421.157 464.328C423.123 464.739 424.663 465.208 425.777 465.736C426.892 466.264 427.684 466.924 428.153 467.716C428.652 468.508 428.901 469.52 428.901 470.752C428.901 472.747 428.065 474.345 426.393 475.548C424.751 476.751 422.551 477.352 419.793 477.352ZM451.269 471.104C451.768 471.104 452.164 471.295 452.457 471.676C452.78 472.057 452.941 472.571 452.941 473.216C452.941 474.125 452.398 474.888 451.313 475.504C450.316 476.061 449.186 476.516 447.925 476.868C446.664 477.191 445.461 477.352 444.317 477.352C440.856 477.352 438.113 476.355 436.089 474.36C434.065 472.365 433.053 469.637 433.053 466.176C433.053 463.976 433.493 462.025 434.373 460.324C435.253 458.623 436.485 457.303 438.069 456.364C439.682 455.425 441.501 454.956 443.525 454.956C445.461 454.956 447.148 455.381 448.585 456.232C450.022 457.083 451.137 458.285 451.929 459.84C452.721 461.395 453.117 463.228 453.117 465.34C453.117 466.601 452.56 467.232 451.445 467.232H438.465C438.641 469.256 439.213 470.752 440.181 471.72C441.149 472.659 442.557 473.128 444.405 473.128C445.344 473.128 446.165 473.011 446.869 472.776C447.602 472.541 448.424 472.219 449.333 471.808C450.213 471.339 450.858 471.104 451.269 471.104ZM443.657 458.828C442.161 458.828 440.958 459.297 440.049 460.236C439.169 461.175 438.641 462.524 438.465 464.284H448.409C448.35 462.495 447.91 461.145 447.089 460.236C446.268 459.297 445.124 458.828 443.657 458.828ZM470.508 455.044C471.271 454.985 471.872 455.147 472.312 455.528C472.752 455.909 472.972 456.481 472.972 457.244C472.972 458.036 472.781 458.623 472.4 459.004C472.019 459.385 471.329 459.635 470.332 459.752L469.012 459.884C467.281 460.06 466.005 460.647 465.184 461.644C464.392 462.641 463.996 463.888 463.996 465.384V474.624C463.996 475.475 463.732 476.135 463.204 476.604C462.676 477.044 462.016 477.264 461.224 477.264C460.432 477.264 459.772 477.044 459.244 476.604C458.745 476.135 458.496 475.475 458.496 474.624V457.596C458.496 456.775 458.745 456.144 459.244 455.704C459.772 455.264 460.417 455.044 461.18 455.044C461.943 455.044 462.559 455.264 463.028 455.704C463.497 456.115 463.732 456.716 463.732 457.508V459.268C464.289 457.977 465.111 456.98 466.196 456.276C467.311 455.572 468.543 455.176 469.892 455.088L470.508 455.044ZM483.793 477.352C480.596 477.352 478.014 476.721 476.049 475.46C475.11 474.903 474.641 474.111 474.641 473.084C474.641 472.497 474.802 472.028 475.125 471.676C475.448 471.295 475.844 471.104 476.313 471.104C476.812 471.104 477.501 471.339 478.381 471.808C479.32 472.248 480.17 472.585 480.933 472.82C481.725 473.055 482.722 473.172 483.925 473.172C485.157 473.172 486.11 472.967 486.785 472.556C487.489 472.145 487.841 471.573 487.841 470.84C487.841 470.341 487.694 469.945 487.401 469.652C487.137 469.359 486.638 469.095 485.905 468.86C485.201 468.596 484.116 468.303 482.649 467.98C480.038 467.452 478.161 466.704 477.017 465.736C475.902 464.768 475.345 463.433 475.345 461.732C475.345 460.441 475.726 459.283 476.489 458.256C477.252 457.2 478.293 456.393 479.613 455.836C480.962 455.249 482.488 454.956 484.189 454.956C485.421 454.956 486.609 455.117 487.753 455.44C488.897 455.733 489.924 456.173 490.833 456.76C491.772 457.347 492.241 458.124 492.241 459.092C492.241 459.679 492.08 460.177 491.757 460.588C491.434 460.969 491.038 461.16 490.569 461.16C490.246 461.16 489.924 461.101 489.601 460.984C489.308 460.837 488.926 460.632 488.457 460.368C487.606 459.928 486.873 459.605 486.257 459.4C485.641 459.165 484.878 459.048 483.969 459.048C482.884 459.048 482.018 459.268 481.373 459.708C480.757 460.148 480.449 460.749 480.449 461.512C480.449 462.245 480.772 462.803 481.417 463.184C482.062 463.565 483.309 463.947 485.157 464.328C487.122 464.739 488.662 465.208 489.777 465.736C490.892 466.264 491.684 466.924 492.153 467.716C492.652 468.508 492.901 469.52 492.901 470.752C492.901 472.747 492.065 474.345 490.393 475.548C488.75 476.751 486.55 477.352 483.793 477.352ZM252.952 540.072C254.8 540.541 256.208 541.436 257.176 542.756C258.173 544.047 258.672 545.66 258.672 547.596C258.672 550.265 257.689 552.392 255.724 553.976C253.759 555.56 251.104 556.352 247.76 556.352C245.853 556.352 244.02 556.059 242.26 555.472C240.5 554.885 239.004 554.064 237.772 553.008C237.097 552.421 236.76 551.732 236.76 550.94C236.76 550.295 236.936 549.752 237.288 549.312C237.669 548.843 238.109 548.608 238.608 548.608C238.901 548.608 239.165 548.667 239.4 548.784C239.635 548.872 239.957 549.033 240.368 549.268C241.6 550.089 242.773 550.72 243.888 551.16C245.003 551.6 246.22 551.82 247.54 551.82C249.476 551.82 250.913 551.439 251.852 550.676C252.791 549.884 253.26 548.696 253.26 547.112C253.26 545.557 252.761 544.413 251.764 543.68C250.796 542.917 249.285 542.536 247.232 542.536H244.724C244.049 542.536 243.521 542.316 243.14 541.876C242.788 541.407 242.612 540.879 242.612 540.292C242.612 539.676 242.788 539.148 243.14 538.708C243.521 538.268 244.049 538.048 244.724 538.048H246.484C250.503 538.048 252.512 536.537 252.512 533.516C252.512 532.108 252.087 531.023 251.236 530.26C250.385 529.497 249.212 529.116 247.716 529.116C245.575 529.116 243.287 529.967 240.852 531.668C240.441 531.903 240.119 532.079 239.884 532.196C239.649 532.284 239.385 532.328 239.092 532.328C238.593 532.328 238.153 532.108 237.772 531.668C237.42 531.199 237.244 530.641 237.244 529.996C237.244 529.556 237.317 529.189 237.464 528.896C237.64 528.573 237.904 528.251 238.256 527.928C239.488 526.901 240.955 526.095 242.656 525.508C244.387 524.892 246.147 524.584 247.936 524.584C250.987 524.584 253.407 525.332 255.196 526.828C257.015 528.324 257.924 530.319 257.924 532.812C257.895 534.513 257.44 536.009 256.56 537.3C255.709 538.561 254.507 539.485 252.952 540.072ZM288.816 529.072C287.467 529.16 286.484 529.571 285.868 530.304C285.252 531.037 284.944 532.093 284.944 533.472V534.484H288.684C290.327 534.484 291.148 535.173 291.148 536.552C291.148 537.931 290.327 538.62 288.684 538.62H284.944V553.624C284.944 554.475 284.68 555.12 284.152 555.56C283.653 556 283.008 556.22 282.216 556.22C281.424 556.22 280.764 556 280.236 555.56C279.708 555.12 279.444 554.475 279.444 553.624V538.62H277.244C275.601 538.62 274.78 537.931 274.78 536.552C274.78 535.173 275.601 534.484 277.244 534.484H279.444V534.176C279.444 531.419 280.163 529.263 281.6 527.708C283.067 526.124 285.12 525.229 287.76 525.024L288.904 524.936C290.077 524.848 290.899 524.98 291.368 525.332C291.867 525.655 292.116 526.168 292.116 526.872C292.116 528.133 291.397 528.837 289.96 528.984L288.816 529.072ZM311.411 550.104C311.909 550.104 312.305 550.295 312.599 550.676C312.921 551.057 313.083 551.571 313.083 552.216C313.083 553.125 312.54 553.888 311.455 554.504C310.457 555.061 309.328 555.516 308.067 555.868C306.805 556.191 305.603 556.352 304.459 556.352C300.997 556.352 298.255 555.355 296.231 553.36C294.207 551.365 293.195 548.637 293.195 545.176C293.195 542.976 293.635 541.025 294.515 539.324C295.395 537.623 296.627 536.303 298.211 535.364C299.824 534.425 301.643 533.956 303.667 533.956C305.603 533.956 307.289 534.381 308.727 535.232C310.164 536.083 311.279 537.285 312.071 538.84C312.863 540.395 313.259 542.228 313.259 544.34C313.259 545.601 312.701 546.232 311.587 546.232H298.607C298.783 548.256 299.355 549.752 300.323 550.72C301.291 551.659 302.699 552.128 304.547 552.128C305.485 552.128 306.307 552.011 307.011 551.776C307.744 551.541 308.565 551.219 309.475 550.808C310.355 550.339 311 550.104 311.411 550.104ZM303.799 537.828C302.303 537.828 301.1 538.297 300.191 539.236C299.311 540.175 298.783 541.524 298.607 543.284H308.551C308.492 541.495 308.052 540.145 307.231 539.236C306.409 538.297 305.265 537.828 303.799 537.828ZM327.966 533.956C330.958 533.956 333.172 534.704 334.61 536.2C336.076 537.667 336.81 539.911 336.81 542.932V553.668C336.81 554.46 336.575 555.091 336.106 555.56C335.636 556 334.991 556.22 334.17 556.22C333.407 556.22 332.776 555.985 332.278 555.516C331.808 555.047 331.574 554.431 331.574 553.668V552.7C331.075 553.844 330.283 554.739 329.198 555.384C328.142 556.029 326.91 556.352 325.502 556.352C324.064 556.352 322.759 556.059 321.586 555.472C320.412 554.885 319.488 554.079 318.814 553.052C318.139 552.025 317.802 550.881 317.802 549.62C317.802 548.036 318.198 546.789 318.99 545.88C319.811 544.971 321.131 544.311 322.95 543.9C324.768 543.489 327.276 543.284 330.474 543.284H331.574V542.272C331.574 540.835 331.266 539.793 330.65 539.148C330.034 538.473 329.036 538.136 327.658 538.136C326.807 538.136 325.942 538.268 325.062 538.532C324.182 538.767 323.14 539.119 321.938 539.588C321.175 539.969 320.618 540.16 320.266 540.16C319.738 540.16 319.298 539.969 318.946 539.588C318.623 539.207 318.462 538.708 318.462 538.092C318.462 537.593 318.579 537.168 318.814 536.816C319.078 536.435 319.503 536.083 320.09 535.76C321.116 535.203 322.334 534.763 323.742 534.44C325.179 534.117 326.587 533.956 327.966 533.956ZM326.602 552.392C328.068 552.392 329.256 551.908 330.166 550.94C331.104 549.943 331.574 548.667 331.574 547.112V546.188H330.782C328.816 546.188 327.291 546.276 326.206 546.452C325.12 546.628 324.343 546.936 323.874 547.376C323.404 547.816 323.17 548.417 323.17 549.18C323.17 550.119 323.492 550.896 324.138 551.512C324.812 552.099 325.634 552.392 326.602 552.392ZM354.456 552.172C355.922 552.26 356.656 552.92 356.656 554.152C356.656 554.856 356.362 555.399 355.776 555.78C355.218 556.132 354.412 556.279 353.356 556.22L352.168 556.132C347.24 555.78 344.776 553.14 344.776 548.212V538.62H342.576C341.784 538.62 341.168 538.444 340.728 538.092C340.317 537.74 340.112 537.227 340.112 536.552C340.112 535.877 340.317 535.364 340.728 535.012C341.168 534.66 341.784 534.484 342.576 534.484H344.776V530.436C344.776 529.644 345.025 529.013 345.524 528.544C346.022 528.075 346.697 527.84 347.548 527.84C348.369 527.84 349.029 528.075 349.528 528.544C350.026 529.013 350.276 529.644 350.276 530.436V534.484H354.016C354.808 534.484 355.409 534.66 355.82 535.012C356.26 535.364 356.48 535.877 356.48 536.552C356.48 537.227 356.26 537.74 355.82 538.092C355.409 538.444 354.808 538.62 354.016 538.62H350.276V548.608C350.276 550.779 351.273 551.937 353.268 552.084L354.456 552.172ZM377.386 534.044C378.236 534.044 378.911 534.279 379.41 534.748C379.908 535.217 380.158 535.848 380.158 536.64V553.712C380.158 554.475 379.894 555.091 379.366 555.56C378.867 556.029 378.207 556.264 377.386 556.264C376.594 556.264 375.963 556.044 375.494 555.604C375.024 555.164 374.79 554.563 374.79 553.8V552.7C374.115 553.873 373.206 554.783 372.062 555.428C370.918 556.044 369.627 556.352 368.19 556.352C362.91 556.352 360.27 553.389 360.27 547.464V536.64C360.27 535.848 360.519 535.217 361.018 534.748C361.516 534.279 362.176 534.044 362.998 534.044C363.848 534.044 364.523 534.279 365.022 534.748C365.52 535.217 365.77 535.848 365.77 536.64V547.508C365.77 549.033 366.078 550.163 366.694 550.896C367.31 551.629 368.278 551.996 369.598 551.996C371.123 551.996 372.34 551.497 373.25 550.5C374.188 549.473 374.658 548.124 374.658 546.452V536.64C374.658 535.848 374.907 535.217 375.406 534.748C375.904 534.279 376.564 534.044 377.386 534.044ZM398.774 534.044C399.537 533.985 400.138 534.147 400.578 534.528C401.018 534.909 401.238 535.481 401.238 536.244C401.238 537.036 401.048 537.623 400.666 538.004C400.285 538.385 399.596 538.635 398.598 538.752L397.278 538.884C395.548 539.06 394.272 539.647 393.45 540.644C392.658 541.641 392.262 542.888 392.262 544.384V553.624C392.262 554.475 391.998 555.135 391.47 555.604C390.942 556.044 390.282 556.264 389.49 556.264C388.698 556.264 388.038 556.044 387.51 555.604C387.012 555.135 386.762 554.475 386.762 553.624V536.596C386.762 535.775 387.012 535.144 387.51 534.704C388.038 534.264 388.684 534.044 389.446 534.044C390.209 534.044 390.825 534.264 391.294 534.704C391.764 535.115 391.998 535.716 391.998 536.508V538.268C392.556 536.977 393.377 535.98 394.462 535.276C395.577 534.572 396.809 534.176 398.158 534.088L398.774 534.044ZM421.084 550.104C421.583 550.104 421.979 550.295 422.272 550.676C422.595 551.057 422.756 551.571 422.756 552.216C422.756 553.125 422.214 553.888 421.128 554.504C420.131 555.061 419.002 555.516 417.74 555.868C416.479 556.191 415.276 556.352 414.132 556.352C410.671 556.352 407.928 555.355 405.904 553.36C403.88 551.365 402.868 548.637 402.868 545.176C402.868 542.976 403.308 541.025 404.188 539.324C405.068 537.623 406.3 536.303 407.884 535.364C409.498 534.425 411.316 533.956 413.34 533.956C415.276 533.956 416.963 534.381 418.4 535.232C419.838 536.083 420.952 537.285 421.744 538.84C422.536 540.395 422.932 542.228 422.932 544.34C422.932 545.601 422.375 546.232 421.26 546.232H408.28C408.456 548.256 409.028 549.752 409.996 550.72C410.964 551.659 412.372 552.128 414.22 552.128C415.159 552.128 415.98 552.011 416.684 551.776C417.418 551.541 418.239 551.219 419.148 550.808C420.028 550.339 420.674 550.104 421.084 550.104ZM413.472 537.828C411.976 537.828 410.774 538.297 409.864 539.236C408.984 540.175 408.456 541.524 408.28 543.284H418.224C418.166 541.495 417.726 540.145 416.904 539.236C416.083 538.297 414.939 537.828 413.472 537.828ZM436.099 556.352C432.902 556.352 430.321 555.721 428.355 554.46C427.417 553.903 426.947 553.111 426.947 552.084C426.947 551.497 427.109 551.028 427.431 550.676C427.754 550.295 428.15 550.104 428.619 550.104C429.118 550.104 429.807 550.339 430.687 550.808C431.626 551.248 432.477 551.585 433.239 551.82C434.031 552.055 435.029 552.172 436.231 552.172C437.463 552.172 438.417 551.967 439.091 551.556C439.795 551.145 440.147 550.573 440.147 549.84C440.147 549.341 440.001 548.945 439.707 548.652C439.443 548.359 438.945 548.095 438.211 547.86C437.507 547.596 436.422 547.303 434.955 546.98C432.345 546.452 430.467 545.704 429.323 544.736C428.209 543.768 427.651 542.433 427.651 540.732C427.651 539.441 428.033 538.283 428.795 537.256C429.558 536.2 430.599 535.393 431.919 534.836C433.269 534.249 434.794 533.956 436.495 533.956C437.727 533.956 438.915 534.117 440.059 534.44C441.203 534.733 442.23 535.173 443.139 535.76C444.078 536.347 444.547 537.124 444.547 538.092C444.547 538.679 444.386 539.177 444.063 539.588C443.741 539.969 443.345 540.16 442.875 540.16C442.553 540.16 442.23 540.101 441.907 539.984C441.614 539.837 441.233 539.632 440.763 539.368C439.913 538.928 439.179 538.605 438.563 538.4C437.947 538.165 437.185 538.048 436.275 538.048C435.19 538.048 434.325 538.268 433.679 538.708C433.063 539.148 432.755 539.749 432.755 540.512C432.755 541.245 433.078 541.803 433.723 542.184C434.369 542.565 435.615 542.947 437.463 543.328C439.429 543.739 440.969 544.208 442.083 544.736C443.198 545.264 443.99 545.924 444.459 546.716C444.958 547.508 445.207 548.52 445.207 549.752C445.207 551.747 444.371 553.345 442.699 554.548C441.057 555.751 438.857 556.352 436.099 556.352ZM252.204 635.396C249.212 635.396 246.587 634.751 244.328 633.46C242.099 632.169 240.383 630.321 239.18 627.916C237.977 625.511 237.376 622.695 237.376 619.468C237.376 616.241 237.977 613.44 239.18 611.064C240.383 608.659 242.099 606.811 244.328 605.52C246.587 604.229 249.212 603.584 252.204 603.584C254.14 603.584 255.959 603.877 257.66 604.464C259.361 605.021 260.872 605.843 262.192 606.928C262.573 607.221 262.837 607.529 262.984 607.852C263.131 608.175 263.204 608.571 263.204 609.04C263.204 609.685 263.028 610.228 262.676 610.668C262.324 611.108 261.899 611.328 261.4 611.328C260.813 611.328 260.212 611.123 259.596 610.712C258.335 609.773 257.161 609.128 256.076 608.776C254.991 608.395 253.788 608.204 252.468 608.204C249.417 608.204 247.1 609.157 245.516 611.064C243.961 612.971 243.184 615.772 243.184 619.468C243.184 623.193 243.961 626.009 245.516 627.916C247.1 629.823 249.417 630.776 252.468 630.776C253.729 630.776 254.888 630.585 255.944 630.204C257.029 629.823 258.247 629.177 259.596 628.268C259.889 628.092 260.183 627.945 260.476 627.828C260.769 627.711 261.077 627.652 261.4 627.652C261.899 627.652 262.324 627.872 262.676 628.312C263.028 628.752 263.204 629.295 263.204 629.94C263.204 630.38 263.131 630.776 262.984 631.128C262.837 631.451 262.573 631.759 262.192 632.052C260.872 633.137 259.361 633.973 257.66 634.56C255.959 635.117 254.14 635.396 252.204 635.396ZM285.115 613.044C285.965 613.044 286.64 613.279 287.139 613.748C287.637 614.217 287.887 614.848 287.887 615.64V632.712C287.887 633.475 287.623 634.091 287.095 634.56C286.596 635.029 285.936 635.264 285.115 635.264C284.323 635.264 283.692 635.044 283.223 634.604C282.753 634.164 282.519 633.563 282.519 632.8V631.7C281.844 632.873 280.935 633.783 279.791 634.428C278.647 635.044 277.356 635.352 275.919 635.352C270.639 635.352 267.999 632.389 267.999 626.464V615.64C267.999 614.848 268.248 614.217 268.747 613.748C269.245 613.279 269.905 613.044 270.727 613.044C271.577 613.044 272.252 613.279 272.751 613.748C273.249 614.217 273.499 614.848 273.499 615.64V626.508C273.499 628.033 273.807 629.163 274.423 629.896C275.039 630.629 276.007 630.996 277.327 630.996C278.852 630.996 280.069 630.497 280.979 629.5C281.917 628.473 282.387 627.124 282.387 625.452V615.64C282.387 614.848 282.636 614.217 283.135 613.748C283.633 613.279 284.293 613.044 285.115 613.044ZM306.503 613.044C307.266 612.985 307.867 613.147 308.307 613.528C308.747 613.909 308.967 614.481 308.967 615.244C308.967 616.036 308.776 616.623 308.395 617.004C308.014 617.385 307.324 617.635 306.327 617.752L305.007 617.884C303.276 618.06 302 618.647 301.179 619.644C300.387 620.641 299.991 621.888 299.991 623.384V632.624C299.991 633.475 299.727 634.135 299.199 634.604C298.671 635.044 298.011 635.264 297.219 635.264C296.427 635.264 295.767 635.044 295.239 634.604C294.74 634.135 294.491 633.475 294.491 632.624V615.596C294.491 614.775 294.74 614.144 295.239 613.704C295.767 613.264 296.412 613.044 297.175 613.044C297.938 613.044 298.554 613.264 299.023 613.704C299.492 614.115 299.727 614.716 299.727 615.508V617.268C300.284 615.977 301.106 614.98 302.191 614.276C303.306 613.572 304.538 613.176 305.887 613.088L306.503 613.044ZM324.227 613.044C324.99 612.985 325.591 613.147 326.031 613.528C326.471 613.909 326.691 614.481 326.691 615.244C326.691 616.036 326.5 616.623 326.119 617.004C325.738 617.385 325.048 617.635 324.051 617.752L322.731 617.884C321 618.06 319.724 618.647 318.903 619.644C318.111 620.641 317.715 621.888 317.715 623.384V632.624C317.715 633.475 317.451 634.135 316.923 634.604C316.395 635.044 315.735 635.264 314.943 635.264C314.151 635.264 313.491 635.044 312.963 634.604C312.464 634.135 312.215 633.475 312.215 632.624V615.596C312.215 614.775 312.464 614.144 312.963 613.704C313.491 613.264 314.136 613.044 314.899 613.044C315.662 613.044 316.278 613.264 316.747 613.704C317.216 614.115 317.451 614.716 317.451 615.508V617.268C318.008 615.977 318.83 614.98 319.915 614.276C321.03 613.572 322.262 613.176 323.611 613.088L324.227 613.044ZM346.537 629.104C347.036 629.104 347.432 629.295 347.725 629.676C348.048 630.057 348.209 630.571 348.209 631.216C348.209 632.125 347.666 632.888 346.581 633.504C345.584 634.061 344.454 634.516 343.193 634.868C341.932 635.191 340.729 635.352 339.585 635.352C336.124 635.352 333.381 634.355 331.357 632.36C329.333 630.365 328.321 627.637 328.321 624.176C328.321 621.976 328.761 620.025 329.641 618.324C330.521 616.623 331.753 615.303 333.337 614.364C334.95 613.425 336.769 612.956 338.793 612.956C340.729 612.956 342.416 613.381 343.853 614.232C345.29 615.083 346.405 616.285 347.197 617.84C347.989 619.395 348.385 621.228 348.385 623.34C348.385 624.601 347.828 625.232 346.713 625.232H333.733C333.909 627.256 334.481 628.752 335.449 629.72C336.417 630.659 337.825 631.128 339.673 631.128C340.612 631.128 341.433 631.011 342.137 630.776C342.87 630.541 343.692 630.219 344.601 629.808C345.481 629.339 346.126 629.104 346.537 629.104ZM338.925 616.828C337.429 616.828 336.226 617.297 335.317 618.236C334.437 619.175 333.909 620.524 333.733 622.284H343.677C343.618 620.495 343.178 619.145 342.357 618.236C341.536 617.297 340.392 616.828 338.925 616.828ZM366.26 612.956C368.841 612.956 370.763 613.689 372.024 615.156C373.285 616.623 373.916 618.837 373.916 621.8V632.624C373.916 633.445 373.667 634.091 373.168 634.56C372.699 635.029 372.039 635.264 371.188 635.264C370.337 635.264 369.663 635.029 369.164 634.56C368.665 634.091 368.416 633.445 368.416 632.624V622.108C368.416 620.436 368.093 619.219 367.448 618.456C366.832 617.693 365.849 617.312 364.5 617.312C362.916 617.312 361.64 617.811 360.672 618.808C359.733 619.805 359.264 621.14 359.264 622.812V632.624C359.264 633.445 359.015 634.091 358.516 634.56C358.017 635.029 357.343 635.264 356.492 635.264C355.641 635.264 354.967 635.029 354.468 634.56C353.999 634.091 353.764 633.445 353.764 632.624V615.596C353.764 614.833 354.013 614.217 354.512 613.748C355.011 613.279 355.685 613.044 356.536 613.044C357.299 613.044 357.915 613.279 358.384 613.748C358.883 614.188 359.132 614.775 359.132 615.508V616.696C359.865 615.493 360.848 614.569 362.08 613.924C363.312 613.279 364.705 612.956 366.26 612.956ZM391.558 631.172C393.025 631.26 393.758 631.92 393.758 633.152C393.758 633.856 393.465 634.399 392.878 634.78C392.321 635.132 391.514 635.279 390.458 635.22L389.27 635.132C384.342 634.78 381.878 632.14 381.878 627.212V617.62H379.678C378.886 617.62 378.27 617.444 377.83 617.092C377.42 616.74 377.214 616.227 377.214 615.552C377.214 614.877 377.42 614.364 377.83 614.012C378.27 613.66 378.886 613.484 379.678 613.484H381.878V609.436C381.878 608.644 382.128 608.013 382.626 607.544C383.125 607.075 383.8 606.84 384.65 606.84C385.472 606.84 386.132 607.075 386.63 607.544C387.129 608.013 387.378 608.644 387.378 609.436V613.484H391.118C391.91 613.484 392.512 613.66 392.922 614.012C393.362 614.364 393.582 614.877 393.582 615.552C393.582 616.227 393.362 616.74 392.922 617.092C392.512 617.444 391.91 617.62 391.118 617.62H387.378V627.608C387.378 629.779 388.376 630.937 390.37 631.084L391.558 631.172ZM422.694 612.956C424.542 612.956 426.184 613.425 427.622 614.364C429.088 615.303 430.218 616.637 431.01 618.368C431.831 620.069 432.242 622.035 432.242 624.264C432.242 626.493 431.831 628.444 431.01 630.116C430.218 631.788 429.103 633.079 427.666 633.988C426.228 634.897 424.571 635.352 422.694 635.352C421.168 635.352 419.804 635.029 418.602 634.384C417.399 633.739 416.475 632.844 415.83 631.7V640.676C415.83 641.439 415.58 642.04 415.082 642.48C414.583 642.92 413.923 643.14 413.102 643.14C412.28 643.14 411.606 642.905 411.078 642.436C410.579 641.967 410.33 641.351 410.33 640.588V615.64C410.33 614.848 410.564 614.217 411.034 613.748C411.532 613.279 412.192 613.044 413.014 613.044C413.835 613.044 414.495 613.279 414.994 613.748C415.492 614.217 415.742 614.848 415.742 615.64V616.74C416.387 615.537 417.311 614.613 418.514 613.968C419.746 613.293 421.139 612.956 422.694 612.956ZM421.242 631.084C422.972 631.084 424.322 630.497 425.29 629.324C426.258 628.121 426.742 626.435 426.742 624.264C426.742 622.035 426.258 620.304 425.29 619.072C424.322 617.84 422.972 617.224 421.242 617.224C419.482 617.224 418.118 617.825 417.15 619.028C416.211 620.231 415.742 621.947 415.742 624.176C415.742 626.376 416.211 628.077 417.15 629.28C418.118 630.483 419.482 631.084 421.242 631.084ZM440.363 635.264C439.571 635.264 438.911 635.044 438.383 634.604C437.885 634.135 437.635 633.475 437.635 632.624V606.356C437.635 605.505 437.885 604.86 438.383 604.42C438.911 603.98 439.571 603.76 440.363 603.76C441.155 603.76 441.815 603.98 442.343 604.42C442.871 604.86 443.135 605.505 443.135 606.356V632.624C443.135 633.475 442.871 634.135 442.343 634.604C441.815 635.044 441.155 635.264 440.363 635.264ZM459.015 612.956C462.007 612.956 464.222 613.704 465.659 615.2C467.126 616.667 467.859 618.911 467.859 621.932V632.668C467.859 633.46 467.625 634.091 467.155 634.56C466.686 635 466.041 635.22 465.219 635.22C464.457 635.22 463.826 634.985 463.327 634.516C462.858 634.047 462.623 633.431 462.623 632.668V631.7C462.125 632.844 461.333 633.739 460.247 634.384C459.191 635.029 457.959 635.352 456.551 635.352C455.114 635.352 453.809 635.059 452.635 634.472C451.462 633.885 450.538 633.079 449.863 632.052C449.189 631.025 448.851 629.881 448.851 628.62C448.851 627.036 449.247 625.789 450.039 624.88C450.861 623.971 452.181 623.311 453.999 622.9C455.818 622.489 458.326 622.284 461.523 622.284H462.623V621.272C462.623 619.835 462.315 618.793 461.699 618.148C461.083 617.473 460.086 617.136 458.707 617.136C457.857 617.136 456.991 617.268 456.111 617.532C455.231 617.767 454.19 618.119 452.987 618.588C452.225 618.969 451.667 619.16 451.315 619.16C450.787 619.16 450.347 618.969 449.995 618.588C449.673 618.207 449.511 617.708 449.511 617.092C449.511 616.593 449.629 616.168 449.863 615.816C450.127 615.435 450.553 615.083 451.139 614.76C452.166 614.203 453.383 613.763 454.791 613.44C456.229 613.117 457.637 612.956 459.015 612.956ZM457.651 631.392C459.118 631.392 460.306 630.908 461.215 629.94C462.154 628.943 462.623 627.667 462.623 626.112V625.188H461.831C459.866 625.188 458.341 625.276 457.255 625.452C456.17 625.628 455.393 625.936 454.923 626.376C454.454 626.816 454.219 627.417 454.219 628.18C454.219 629.119 454.542 629.896 455.187 630.512C455.862 631.099 456.683 631.392 457.651 631.392ZM485.505 631.172C486.972 631.26 487.705 631.92 487.705 633.152C487.705 633.856 487.412 634.399 486.825 634.78C486.268 635.132 485.461 635.279 484.405 635.22L483.217 635.132C478.289 634.78 475.825 632.14 475.825 627.212V617.62H473.625C472.833 617.62 472.217 617.444 471.777 617.092C471.366 616.74 471.161 616.227 471.161 615.552C471.161 614.877 471.366 614.364 471.777 614.012C472.217 613.66 472.833 613.484 473.625 613.484H475.825V609.436C475.825 608.644 476.074 608.013 476.573 607.544C477.072 607.075 477.746 606.84 478.597 606.84C479.418 606.84 480.078 607.075 480.577 607.544C481.076 608.013 481.325 608.644 481.325 609.436V613.484H485.065C485.857 613.484 486.458 613.66 486.869 614.012C487.309 614.364 487.529 614.877 487.529 615.552C487.529 616.227 487.309 616.74 486.869 617.092C486.458 617.444 485.857 617.62 485.065 617.62H481.325V627.608C481.325 629.779 482.322 630.937 484.317 631.084L485.505 631.172ZM502.534 608.072C501.185 608.16 500.202 608.571 499.586 609.304C498.97 610.037 498.662 611.093 498.662 612.472V613.484H502.402C504.045 613.484 504.866 614.173 504.866 615.552C504.866 616.931 504.045 617.62 502.402 617.62H498.662V632.624C498.662 633.475 498.398 634.12 497.87 634.56C497.371 635 496.726 635.22 495.934 635.22C495.142 635.22 494.482 635 493.954 634.56C493.426 634.12 493.162 633.475 493.162 632.624V617.62H490.962C489.319 617.62 488.498 616.931 488.498 615.552C488.498 614.173 489.319 613.484 490.962 613.484H493.162V613.176C493.162 610.419 493.881 608.263 495.318 606.708C496.785 605.124 498.838 604.229 501.478 604.024L502.622 603.936C503.795 603.848 504.617 603.98 505.086 604.332C505.585 604.655 505.834 605.168 505.834 605.872C505.834 607.133 505.115 607.837 503.678 607.984L502.534 608.072ZM517.913 635.352C515.713 635.352 513.777 634.897 512.105 633.988C510.462 633.079 509.186 631.773 508.277 630.072C507.367 628.371 506.913 626.391 506.913 624.132C506.913 621.873 507.367 619.908 508.277 618.236C509.186 616.535 510.462 615.229 512.105 614.32C513.777 613.411 515.713 612.956 517.913 612.956C520.113 612.956 522.034 613.411 523.677 614.32C525.349 615.229 526.625 616.535 527.505 618.236C528.414 619.908 528.869 621.873 528.869 624.132C528.869 626.391 528.414 628.371 527.505 630.072C526.625 631.773 525.349 633.079 523.677 633.988C522.034 634.897 520.113 635.352 517.913 635.352ZM517.869 631.084C519.658 631.084 521.022 630.497 521.961 629.324C522.899 628.151 523.369 626.42 523.369 624.132C523.369 621.873 522.899 620.157 521.961 618.984C521.022 617.781 519.673 617.18 517.913 617.18C516.153 617.18 514.789 617.781 513.821 618.984C512.882 620.157 512.413 621.873 512.413 624.132C512.413 626.42 512.882 628.151 513.821 629.324C514.759 630.497 516.109 631.084 517.869 631.084ZM546.301 613.044C547.064 612.985 547.665 613.147 548.105 613.528C548.545 613.909 548.765 614.481 548.765 615.244C548.765 616.036 548.575 616.623 548.193 617.004C547.812 617.385 547.123 617.635 546.125 617.752L544.805 617.884C543.075 618.06 541.799 618.647 540.977 619.644C540.185 620.641 539.789 621.888 539.789 623.384V632.624C539.789 633.475 539.525 634.135 538.997 634.604C538.469 635.044 537.809 635.264 537.017 635.264C536.225 635.264 535.565 635.044 535.037 634.604C534.539 634.135 534.289 633.475 534.289 632.624V615.596C534.289 614.775 534.539 614.144 535.037 613.704C535.565 613.264 536.211 613.044 536.973 613.044C537.736 613.044 538.352 613.264 538.821 613.704C539.291 614.115 539.525 614.716 539.525 615.508V617.268C540.083 615.977 540.904 614.98 541.989 614.276C543.104 613.572 544.336 613.176 545.685 613.088L546.301 613.044ZM577.577 612.956C579.924 612.956 581.713 613.66 582.945 615.068C584.206 616.447 584.837 618.691 584.837 621.8V632.624C584.837 633.475 584.573 634.135 584.045 634.604C583.546 635.044 582.886 635.264 582.065 635.264C581.273 635.264 580.613 635.044 580.085 634.604C579.586 634.135 579.337 633.475 579.337 632.624V621.8C579.337 620.187 579.044 619.043 578.457 618.368C577.9 617.664 577.034 617.312 575.861 617.312C574.424 617.312 573.28 617.811 572.429 618.808C571.578 619.776 571.153 621.111 571.153 622.812V632.624C571.153 633.475 570.889 634.135 570.361 634.604C569.862 635.044 569.217 635.264 568.425 635.264C567.633 635.264 566.973 635.044 566.445 634.604C565.917 634.135 565.653 633.475 565.653 632.624V621.8C565.653 620.187 565.36 619.043 564.773 618.368C564.216 617.664 563.35 617.312 562.177 617.312C560.74 617.312 559.596 617.811 558.745 618.808C557.924 619.776 557.513 621.111 557.513 622.812V632.624C557.513 633.475 557.249 634.135 556.721 634.604C556.193 635.044 555.533 635.264 554.741 635.264C553.949 635.264 553.289 635.044 552.761 634.604C552.262 634.135 552.013 633.475 552.013 632.624V615.596C552.013 614.775 552.277 614.144 552.805 613.704C553.333 613.264 553.993 613.044 554.785 613.044C555.548 613.044 556.164 613.264 556.633 613.704C557.132 614.115 557.381 614.716 557.381 615.508V616.564C558.056 615.391 558.95 614.496 560.065 613.88C561.209 613.264 562.514 612.956 563.981 612.956C567.208 612.956 569.364 614.305 570.449 617.004C571.094 615.772 572.048 614.789 573.309 614.056C574.57 613.323 575.993 612.956 577.577 612.956ZM261.84 682.76C262.661 682.76 263.307 683.024 263.776 683.552C264.275 684.051 264.524 684.725 264.524 685.576V711.404C264.524 712.255 264.275 712.944 263.776 713.472C263.277 714 262.632 714.264 261.84 714.264C260.901 714.264 260.183 713.927 259.684 713.252L243.624 692.352V711.404C243.624 712.255 243.389 712.944 242.92 713.472C242.451 714 241.805 714.264 240.984 714.264C240.163 714.264 239.517 714 239.048 713.472C238.579 712.944 238.344 712.255 238.344 711.404V685.576C238.344 684.725 238.593 684.051 239.092 683.552C239.591 683.024 240.251 682.76 241.072 682.76C241.981 682.76 242.685 683.097 243.184 683.772L259.2 704.584V685.576C259.2 684.725 259.435 684.051 259.904 683.552C260.403 683.024 261.048 682.76 261.84 682.76ZM288.639 708.104C289.138 708.104 289.534 708.295 289.827 708.676C290.15 709.057 290.311 709.571 290.311 710.216C290.311 711.125 289.768 711.888 288.683 712.504C287.686 713.061 286.556 713.516 285.295 713.868C284.034 714.191 282.831 714.352 281.687 714.352C278.226 714.352 275.483 713.355 273.459 711.36C271.435 709.365 270.423 706.637 270.423 703.176C270.423 700.976 270.863 699.025 271.743 697.324C272.623 695.623 273.855 694.303 275.439 693.364C277.052 692.425 278.871 691.956 280.895 691.956C282.831 691.956 284.518 692.381 285.955 693.232C287.392 694.083 288.507 695.285 289.299 696.84C290.091 698.395 290.487 700.228 290.487 702.34C290.487 703.601 289.93 704.232 288.815 704.232H275.835C276.011 706.256 276.583 707.752 277.551 708.72C278.519 709.659 279.927 710.128 281.775 710.128C282.714 710.128 283.535 710.011 284.239 709.776C284.972 709.541 285.794 709.219 286.703 708.808C287.583 708.339 288.228 708.104 288.639 708.104ZM281.027 695.828C279.531 695.828 278.328 696.297 277.419 697.236C276.539 698.175 276.011 699.524 275.835 701.284H285.779C285.72 699.495 285.28 698.145 284.459 697.236C283.638 696.297 282.494 695.828 281.027 695.828ZM314.092 709.952C314.62 710.48 314.884 711.081 314.884 711.756C314.884 712.401 314.635 712.988 314.136 713.516C313.638 714.015 313.051 714.264 312.376 714.264C311.643 714.264 311.012 713.956 310.484 713.34L304.28 706.476L298.076 713.34C297.519 713.927 296.888 714.22 296.184 714.22C295.539 714.22 294.967 713.971 294.468 713.472C293.97 712.973 293.72 712.401 293.72 711.756C293.72 711.081 293.984 710.48 294.512 709.952L300.936 702.956L294.864 696.356C294.336 695.828 294.072 695.227 294.072 694.552C294.072 693.877 294.322 693.305 294.82 692.836C295.319 692.337 295.891 692.088 296.536 692.088C297.24 692.088 297.871 692.381 298.428 692.968L304.28 699.392L310.132 692.968C310.69 692.381 311.32 692.088 312.024 692.088C312.699 692.088 313.271 692.337 313.74 692.836C314.239 693.305 314.488 693.877 314.488 694.552C314.488 695.227 314.224 695.828 313.696 696.356L307.624 702.956L314.092 709.952ZM330.91 710.172C332.377 710.26 333.11 710.92 333.11 712.152C333.11 712.856 332.817 713.399 332.23 713.78C331.673 714.132 330.866 714.279 329.81 714.22L328.622 714.132C323.694 713.78 321.23 711.14 321.23 706.212V696.62H319.03C318.238 696.62 317.622 696.444 317.182 696.092C316.772 695.74 316.566 695.227 316.566 694.552C316.566 693.877 316.772 693.364 317.182 693.012C317.622 692.66 318.238 692.484 319.03 692.484H321.23V688.436C321.23 687.644 321.48 687.013 321.978 686.544C322.477 686.075 323.152 685.84 324.002 685.84C324.824 685.84 325.484 686.075 325.982 686.544C326.481 687.013 326.73 687.644 326.73 688.436V692.484H330.47C331.262 692.484 331.864 692.66 332.274 693.012C332.714 693.364 332.934 693.877 332.934 694.552C332.934 695.227 332.714 695.74 332.274 696.092C331.864 696.444 331.262 696.62 330.47 696.62H326.73V706.608C326.73 708.779 327.728 709.937 329.722 710.084L330.91 710.172ZM357.47 714.352C354.273 714.352 351.691 713.721 349.726 712.46C348.787 711.903 348.318 711.111 348.318 710.084C348.318 709.497 348.479 709.028 348.802 708.676C349.125 708.295 349.521 708.104 349.99 708.104C350.489 708.104 351.178 708.339 352.058 708.808C352.997 709.248 353.847 709.585 354.61 709.82C355.402 710.055 356.399 710.172 357.602 710.172C358.834 710.172 359.787 709.967 360.462 709.556C361.166 709.145 361.518 708.573 361.518 707.84C361.518 707.341 361.371 706.945 361.078 706.652C360.814 706.359 360.315 706.095 359.582 705.86C358.878 705.596 357.793 705.303 356.326 704.98C353.715 704.452 351.838 703.704 350.694 702.736C349.579 701.768 349.022 700.433 349.022 698.732C349.022 697.441 349.403 696.283 350.166 695.256C350.929 694.2 351.97 693.393 353.29 692.836C354.639 692.249 356.165 691.956 357.866 691.956C359.098 691.956 360.286 692.117 361.43 692.44C362.574 692.733 363.601 693.173 364.51 693.76C365.449 694.347 365.918 695.124 365.918 696.092C365.918 696.679 365.757 697.177 365.434 697.588C365.111 697.969 364.715 698.16 364.246 698.16C363.923 698.16 363.601 698.101 363.278 697.984C362.985 697.837 362.603 697.632 362.134 697.368C361.283 696.928 360.55 696.605 359.934 696.4C359.318 696.165 358.555 696.048 357.646 696.048C356.561 696.048 355.695 696.268 355.05 696.708C354.434 697.148 354.126 697.749 354.126 698.512C354.126 699.245 354.449 699.803 355.094 700.184C355.739 700.565 356.986 700.947 358.834 701.328C360.799 701.739 362.339 702.208 363.454 702.736C364.569 703.264 365.361 703.924 365.83 704.716C366.329 705.508 366.578 706.52 366.578 707.752C366.578 709.747 365.742 711.345 364.07 712.548C362.427 713.751 360.227 714.352 357.47 714.352ZM382.878 710.172C384.345 710.26 385.078 710.92 385.078 712.152C385.078 712.856 384.785 713.399 384.198 713.78C383.641 714.132 382.834 714.279 381.778 714.22L380.59 714.132C375.662 713.78 373.198 711.14 373.198 706.212V696.62H370.998C370.206 696.62 369.59 696.444 369.15 696.092C368.74 695.74 368.534 695.227 368.534 694.552C368.534 693.877 368.74 693.364 369.15 693.012C369.59 692.66 370.206 692.484 370.998 692.484H373.198V688.436C373.198 687.644 373.448 687.013 373.946 686.544C374.445 686.075 375.12 685.84 375.97 685.84C376.792 685.84 377.452 686.075 377.95 686.544C378.449 687.013 378.698 687.644 378.698 688.436V692.484H382.438C383.23 692.484 383.832 692.66 384.242 693.012C384.682 693.364 384.902 693.877 384.902 694.552C384.902 695.227 384.682 695.74 384.242 696.092C383.832 696.444 383.23 696.62 382.438 696.62H378.698V706.608C378.698 708.779 379.696 709.937 381.69 710.084L382.878 710.172ZM405.853 708.104C406.351 708.104 406.747 708.295 407.041 708.676C407.363 709.057 407.525 709.571 407.525 710.216C407.525 711.125 406.982 711.888 405.897 712.504C404.899 713.061 403.77 713.516 402.509 713.868C401.247 714.191 400.045 714.352 398.901 714.352C395.439 714.352 392.697 713.355 390.673 711.36C388.649 709.365 387.637 706.637 387.637 703.176C387.637 700.976 388.077 699.025 388.957 697.324C389.837 695.623 391.069 694.303 392.653 693.364C394.266 692.425 396.085 691.956 398.109 691.956C400.045 691.956 401.731 692.381 403.169 693.232C404.606 694.083 405.721 695.285 406.513 696.84C407.305 698.395 407.701 700.228 407.701 702.34C407.701 703.601 407.143 704.232 406.029 704.232H393.049C393.225 706.256 393.797 707.752 394.765 708.72C395.733 709.659 397.141 710.128 398.989 710.128C399.927 710.128 400.749 710.011 401.453 709.776C402.186 709.541 403.007 709.219 403.917 708.808C404.797 708.339 405.442 708.104 405.853 708.104ZM398.241 695.828C396.745 695.828 395.542 696.297 394.633 697.236C393.753 698.175 393.225 699.524 393.049 701.284H402.993C402.934 699.495 402.494 698.145 401.673 697.236C400.851 696.297 399.707 695.828 398.241 695.828ZM425.444 691.956C427.292 691.956 428.934 692.425 430.372 693.364C431.838 694.303 432.968 695.637 433.76 697.368C434.581 699.069 434.992 701.035 434.992 703.264C434.992 705.493 434.581 707.444 433.76 709.116C432.968 710.788 431.853 712.079 430.416 712.988C428.978 713.897 427.321 714.352 425.444 714.352C423.918 714.352 422.554 714.029 421.352 713.384C420.149 712.739 419.225 711.844 418.58 710.7V719.676C418.58 720.439 418.33 721.04 417.832 721.48C417.333 721.92 416.673 722.14 415.852 722.14C415.03 722.14 414.356 721.905 413.828 721.436C413.329 720.967 413.08 720.351 413.08 719.588V694.64C413.08 693.848 413.314 693.217 413.784 692.748C414.282 692.279 414.942 692.044 415.764 692.044C416.585 692.044 417.245 692.279 417.744 692.748C418.242 693.217 418.492 693.848 418.492 694.64V695.74C419.137 694.537 420.061 693.613 421.264 692.968C422.496 692.293 423.889 691.956 425.444 691.956ZM423.992 710.084C425.722 710.084 427.072 709.497 428.04 708.324C429.008 707.121 429.492 705.435 429.492 703.264C429.492 701.035 429.008 699.304 428.04 698.072C427.072 696.84 425.722 696.224 423.992 696.224C422.232 696.224 420.868 696.825 419.9 698.028C418.961 699.231 418.492 700.947 418.492 703.176C418.492 705.376 418.961 707.077 419.9 708.28C420.868 709.483 422.232 710.084 423.992 710.084ZM448.173 714.352C444.976 714.352 442.395 713.721 440.429 712.46C439.491 711.903 439.021 711.111 439.021 710.084C439.021 709.497 439.183 709.028 439.505 708.676C439.828 708.295 440.224 708.104 440.693 708.104C441.192 708.104 441.881 708.339 442.761 708.808C443.7 709.248 444.551 709.585 445.313 709.82C446.105 710.055 447.103 710.172 448.305 710.172C449.537 710.172 450.491 709.967 451.165 709.556C451.869 709.145 452.221 708.573 452.221 707.84C452.221 707.341 452.075 706.945 451.781 706.652C451.517 706.359 451.019 706.095 450.285 705.86C449.581 705.596 448.496 705.303 447.029 704.98C444.419 704.452 442.541 703.704 441.397 702.736C440.283 701.768 439.725 700.433 439.725 698.732C439.725 697.441 440.107 696.283 440.869 695.256C441.632 694.2 442.673 693.393 443.993 692.836C445.343 692.249 446.868 691.956 448.569 691.956C449.801 691.956 450.989 692.117 452.133 692.44C453.277 692.733 454.304 693.173 455.213 693.76C456.152 694.347 456.621 695.124 456.621 696.092C456.621 696.679 456.46 697.177 456.137 697.588C455.815 697.969 455.419 698.16 454.949 698.16C454.627 698.16 454.304 698.101 453.981 697.984C453.688 697.837 453.307 697.632 452.837 697.368C451.987 696.928 451.253 696.605 450.637 696.4C450.021 696.165 449.259 696.048 448.349 696.048C447.264 696.048 446.399 696.268 445.753 696.708C445.137 697.148 444.829 697.749 444.829 698.512C444.829 699.245 445.152 699.803 445.797 700.184C446.443 700.565 447.689 700.947 449.537 701.328C451.503 701.739 453.043 702.208 454.157 702.736C455.272 703.264 456.064 703.924 456.533 704.716C457.032 705.508 457.281 706.52 457.281 707.752C457.281 709.747 456.445 711.345 454.773 712.548C453.131 713.751 450.931 714.352 448.173 714.352ZM501.626 710.524C502.125 710.993 502.374 711.521 502.374 712.108C502.374 712.695 502.14 713.223 501.67 713.692C501.201 714.132 500.658 714.352 500.042 714.352C499.426 714.352 498.884 714.132 498.414 713.692L494.762 710.172C493.384 711.521 491.844 712.563 490.142 713.296C488.441 714 486.681 714.352 484.862 714.352C482.809 714.352 480.976 714 479.362 713.296C477.778 712.592 476.532 711.595 475.622 710.304C474.742 709.013 474.302 707.532 474.302 705.86C474.302 703.983 474.83 702.311 475.886 700.844C476.972 699.377 478.644 697.999 480.902 696.708C479.788 695.564 478.952 694.449 478.394 693.364C477.866 692.279 477.602 691.149 477.602 689.976C477.602 687.747 478.38 685.972 479.934 684.652C481.518 683.332 483.572 682.672 486.094 682.672C488.441 682.672 490.304 683.288 491.682 684.52C493.09 685.723 493.794 687.351 493.794 689.404C493.794 690.988 493.325 692.411 492.386 693.672C491.477 694.904 490.04 696.121 488.074 697.324L494.234 703.352C495.056 701.592 495.584 699.539 495.818 697.192C495.906 696.459 496.185 695.901 496.654 695.52C497.124 695.109 497.652 694.904 498.238 694.904C498.884 694.904 499.426 695.139 499.866 695.608C500.306 696.048 500.482 696.649 500.394 697.412C500.101 700.815 499.162 703.865 497.578 706.564L501.626 710.524ZM486.138 686.456C485.082 686.456 484.217 686.779 483.542 687.424C482.897 688.04 482.574 688.876 482.574 689.932C482.574 690.665 482.765 691.369 483.146 692.044C483.557 692.689 484.232 693.496 485.17 694.464C486.666 693.613 487.722 692.821 488.338 692.088C488.984 691.355 489.306 690.533 489.306 689.624C489.306 688.685 489.013 687.923 488.426 687.336C487.869 686.749 487.106 686.456 486.138 686.456ZM485.126 710.084C486.329 710.084 487.488 709.835 488.602 709.336C489.717 708.837 490.744 708.119 491.682 707.18L483.894 699.612C482.398 700.492 481.313 701.416 480.638 702.384C479.993 703.323 479.67 704.393 479.67 705.596C479.67 706.975 480.154 708.075 481.122 708.896C482.12 709.688 483.454 710.084 485.126 710.084ZM530.277 710.172C531.743 710.26 532.477 710.92 532.477 712.152C532.477 712.856 532.183 713.399 531.597 713.78C531.039 714.132 530.233 714.279 529.177 714.22L527.989 714.132C523.061 713.78 520.597 711.14 520.597 706.212V696.62H518.397C517.605 696.62 516.989 696.444 516.549 696.092C516.138 695.74 515.933 695.227 515.933 694.552C515.933 693.877 516.138 693.364 516.549 693.012C516.989 692.66 517.605 692.484 518.397 692.484H520.597V688.436C520.597 687.644 520.846 687.013 521.345 686.544C521.843 686.075 522.518 685.84 523.369 685.84C524.19 685.84 524.85 686.075 525.349 686.544C525.847 687.013 526.097 687.644 526.097 688.436V692.484H529.837C530.629 692.484 531.23 692.66 531.641 693.012C532.081 693.364 532.301 693.877 532.301 694.552C532.301 695.227 532.081 695.74 531.641 696.092C531.23 696.444 530.629 696.62 529.837 696.62H526.097V706.608C526.097 708.779 527.094 709.937 529.089 710.084L530.277 710.172ZM545.551 691.956C548.543 691.956 550.758 692.704 552.195 694.2C553.662 695.667 554.395 697.911 554.395 700.932V711.668C554.395 712.46 554.16 713.091 553.691 713.56C553.222 714 552.576 714.22 551.755 714.22C550.992 714.22 550.362 713.985 549.863 713.516C549.394 713.047 549.159 712.431 549.159 711.668V710.7C548.66 711.844 547.868 712.739 546.783 713.384C545.727 714.029 544.495 714.352 543.087 714.352C541.65 714.352 540.344 714.059 539.171 713.472C537.998 712.885 537.074 712.079 536.399 711.052C535.724 710.025 535.387 708.881 535.387 707.62C535.387 706.036 535.783 704.789 536.575 703.88C537.396 702.971 538.716 702.311 540.535 701.9C542.354 701.489 544.862 701.284 548.059 701.284H549.159V700.272C549.159 698.835 548.851 697.793 548.235 697.148C547.619 696.473 546.622 696.136 545.243 696.136C544.392 696.136 543.527 696.268 542.647 696.532C541.767 696.767 540.726 697.119 539.523 697.588C538.76 697.969 538.203 698.16 537.851 698.16C537.323 698.16 536.883 697.969 536.531 697.588C536.208 697.207 536.047 696.708 536.047 696.092C536.047 695.593 536.164 695.168 536.399 694.816C536.663 694.435 537.088 694.083 537.675 693.76C538.702 693.203 539.919 692.763 541.327 692.44C542.764 692.117 544.172 691.956 545.551 691.956ZM544.187 710.392C545.654 710.392 546.842 709.908 547.751 708.94C548.69 707.943 549.159 706.667 549.159 705.112V704.188H548.367C546.402 704.188 544.876 704.276 543.791 704.452C542.706 704.628 541.928 704.936 541.459 705.376C540.99 705.816 540.755 706.417 540.755 707.18C540.755 708.119 541.078 708.896 541.723 709.512C542.398 710.099 543.219 710.392 544.187 710.392ZM580.005 709.732C580.591 710.289 580.885 710.92 580.885 711.624C580.885 712.299 580.635 712.9 580.137 713.428C579.667 713.956 579.11 714.22 578.465 714.22C577.819 714.22 577.218 713.956 576.661 713.428L566.365 704.1V711.624C566.365 712.475 566.101 713.12 565.573 713.56C565.045 714 564.385 714.22 563.593 714.22C562.801 714.22 562.141 714 561.613 713.56C561.114 713.12 560.865 712.475 560.865 711.624V685.356C560.865 684.505 561.114 683.86 561.613 683.42C562.141 682.98 562.801 682.76 563.593 682.76C564.385 682.76 565.045 682.98 565.573 683.42C566.101 683.86 566.365 684.505 566.365 685.356V701.9L575.781 692.88C576.309 692.352 576.91 692.088 577.585 692.088C578.259 692.088 578.846 692.337 579.345 692.836C579.843 693.335 580.093 693.921 580.093 694.596C580.093 695.271 579.814 695.887 579.257 696.444L572.349 702.868L580.005 709.732ZM602.062 708.104C602.56 708.104 602.956 708.295 603.25 708.676C603.572 709.057 603.734 709.571 603.734 710.216C603.734 711.125 603.191 711.888 602.106 712.504C601.108 713.061 599.979 713.516 598.718 713.868C597.456 714.191 596.254 714.352 595.11 714.352C591.648 714.352 588.906 713.355 586.882 711.36C584.858 709.365 583.846 706.637 583.846 703.176C583.846 700.976 584.286 699.025 585.166 697.324C586.046 695.623 587.278 694.303 588.862 693.364C590.475 692.425 592.294 691.956 594.318 691.956C596.254 691.956 597.94 692.381 599.378 693.232C600.815 694.083 601.93 695.285 602.722 696.84C603.514 698.395 603.91 700.228 603.91 702.34C603.91 703.601 603.352 704.232 602.238 704.232H589.258C589.434 706.256 590.006 707.752 590.974 708.72C591.942 709.659 593.35 710.128 595.198 710.128C596.136 710.128 596.958 710.011 597.662 709.776C598.395 709.541 599.216 709.219 600.126 708.808C601.006 708.339 601.651 708.104 602.062 708.104ZM594.45 695.828C592.954 695.828 591.751 696.297 590.842 697.236C589.962 698.175 589.434 699.524 589.258 701.284H599.202C599.143 699.495 598.703 698.145 597.882 697.236C597.06 696.297 595.916 695.828 594.45 695.828ZM618.617 691.956C621.609 691.956 623.823 692.704 625.261 694.2C626.727 695.667 627.461 697.911 627.461 700.932V711.668C627.461 712.46 627.226 713.091 626.757 713.56C626.287 714 625.642 714.22 624.821 714.22C624.058 714.22 623.427 713.985 622.929 713.516C622.459 713.047 622.225 712.431 622.225 711.668V710.7C621.726 711.844 620.934 712.739 619.849 713.384C618.793 714.029 617.561 714.352 616.153 714.352C614.715 714.352 613.41 714.059 612.237 713.472C611.063 712.885 610.139 712.079 609.465 711.052C608.79 710.025 608.453 708.881 608.453 707.62C608.453 706.036 608.849 704.789 609.641 703.88C610.462 702.971 611.782 702.311 613.601 701.9C615.419 701.489 617.927 701.284 621.125 701.284H622.225V700.272C622.225 698.835 621.917 697.793 621.301 697.148C620.685 696.473 619.687 696.136 618.309 696.136C617.458 696.136 616.593 696.268 615.713 696.532C614.833 696.767 613.791 697.119 612.589 697.588C611.826 697.969 611.269 698.16 610.917 698.16C610.389 698.16 609.949 697.969 609.597 697.588C609.274 697.207 609.113 696.708 609.113 696.092C609.113 695.593 609.23 695.168 609.465 694.816C609.729 694.435 610.154 694.083 610.741 693.76C611.767 693.203 612.985 692.763 614.393 692.44C615.83 692.117 617.238 691.956 618.617 691.956ZM617.253 710.392C618.719 710.392 619.907 709.908 620.817 708.94C621.755 707.943 622.225 706.667 622.225 705.112V704.188H621.433C619.467 704.188 617.942 704.276 616.857 704.452C615.771 704.628 614.994 704.936 614.525 705.376C614.055 705.816 613.821 706.417 613.821 707.18C613.821 708.119 614.143 708.896 614.789 709.512C615.463 710.099 616.285 710.392 617.253 710.392ZM663.014 693.672C663.22 693.144 663.513 692.748 663.894 692.484C664.305 692.22 664.745 692.088 665.214 692.088C665.889 692.088 666.49 692.323 667.018 692.792C667.576 693.232 667.854 693.789 667.854 694.464C667.854 694.845 667.781 695.183 667.634 695.476L660.374 712.504C660.14 713.061 659.773 713.487 659.274 713.78C658.805 714.073 658.277 714.22 657.69 714.22C657.133 714.22 656.605 714.073 656.106 713.78C655.637 713.487 655.285 713.061 655.05 712.504L649.814 699.92L644.754 712.504C644.52 713.061 644.153 713.487 643.654 713.78C643.185 714.073 642.657 714.22 642.07 714.22C641.513 714.22 640.985 714.073 640.486 713.78C639.988 713.487 639.621 713.061 639.386 712.504L632.17 695.476C632.024 695.095 631.95 694.772 631.95 694.508C631.95 693.833 632.244 693.261 632.83 692.792C633.417 692.293 634.062 692.044 634.766 692.044C635.265 692.044 635.72 692.176 636.13 692.44C636.541 692.704 636.849 693.1 637.054 693.628L642.246 707.048L647.57 693.76C647.805 693.203 648.142 692.792 648.582 692.528C649.022 692.235 649.506 692.088 650.034 692.088C650.562 692.088 651.046 692.235 651.486 692.528C651.926 692.792 652.264 693.203 652.498 693.76L657.866 707.092L663.014 693.672ZM681.521 691.956C684.513 691.956 686.728 692.704 688.165 694.2C689.632 695.667 690.365 697.911 690.365 700.932V711.668C690.365 712.46 690.131 713.091 689.661 713.56C689.192 714 688.547 714.22 687.725 714.22C686.963 714.22 686.332 713.985 685.833 713.516C685.364 713.047 685.129 712.431 685.129 711.668V710.7C684.631 711.844 683.839 712.739 682.753 713.384C681.697 714.029 680.465 714.352 679.057 714.352C677.62 714.352 676.315 714.059 675.141 713.472C673.968 712.885 673.044 712.079 672.369 711.052C671.695 710.025 671.357 708.881 671.357 707.62C671.357 706.036 671.753 704.789 672.545 703.88C673.367 702.971 674.687 702.311 676.505 701.9C678.324 701.489 680.832 701.284 684.029 701.284H685.129V700.272C685.129 698.835 684.821 697.793 684.205 697.148C683.589 696.473 682.592 696.136 681.213 696.136C680.363 696.136 679.497 696.268 678.617 696.532C677.737 696.767 676.696 697.119 675.493 697.588C674.731 697.969 674.173 698.16 673.821 698.16C673.293 698.16 672.853 697.969 672.501 697.588C672.179 697.207 672.017 696.708 672.017 696.092C672.017 695.593 672.135 695.168 672.369 694.816C672.633 694.435 673.059 694.083 673.645 693.76C674.672 693.203 675.889 692.763 677.297 692.44C678.735 692.117 680.143 691.956 681.521 691.956ZM680.157 710.392C681.624 710.392 682.812 709.908 683.721 708.94C684.66 707.943 685.129 706.667 685.129 705.112V704.188H684.337C682.372 704.188 680.847 704.276 679.761 704.452C678.676 704.628 677.899 704.936 677.429 705.376C676.96 705.816 676.725 706.417 676.725 707.18C676.725 708.119 677.048 708.896 677.693 709.512C678.368 710.099 679.189 710.392 680.157 710.392ZM711.839 693.628C712.074 693.1 712.382 692.719 712.763 692.484C713.174 692.22 713.614 692.088 714.083 692.088C714.758 692.088 715.359 692.323 715.887 692.792C716.444 693.232 716.723 693.789 716.723 694.464C716.723 694.787 716.635 695.124 716.459 695.476L704.447 720.644C703.948 721.641 703.171 722.14 702.115 722.14C701.44 722.14 700.839 721.92 700.311 721.48C699.812 721.069 699.563 720.541 699.563 719.896C699.563 719.573 699.651 719.207 699.827 718.796L702.819 712.504L694.635 695.476C694.488 695.183 694.415 694.845 694.415 694.464C694.415 693.789 694.694 693.217 695.251 692.748C695.838 692.279 696.498 692.044 697.231 692.044C697.73 692.044 698.184 692.176 698.595 692.44C699.006 692.675 699.328 693.056 699.563 693.584L705.723 707.18L711.839 693.628ZM728.362 714.352C725.165 714.352 722.584 713.721 720.618 712.46C719.68 711.903 719.21 711.111 719.21 710.084C719.21 709.497 719.372 709.028 719.694 708.676C720.017 708.295 720.413 708.104 720.882 708.104C721.381 708.104 722.07 708.339 722.95 708.808C723.889 709.248 724.74 709.585 725.502 709.82C726.294 710.055 727.292 710.172 728.494 710.172C729.726 710.172 730.68 709.967 731.354 709.556C732.058 709.145 732.41 708.573 732.41 707.84C732.41 707.341 732.264 706.945 731.97 706.652C731.706 706.359 731.208 706.095 730.474 705.86C729.77 705.596 728.685 705.303 727.218 704.98C724.608 704.452 722.73 703.704 721.586 702.736C720.472 701.768 719.914 700.433 719.914 698.732C719.914 697.441 720.296 696.283 721.058 695.256C721.821 694.2 722.862 693.393 724.182 692.836C725.532 692.249 727.057 691.956 728.758 691.956C729.99 691.956 731.178 692.117 732.322 692.44C733.466 692.733 734.493 693.173 735.402 693.76C736.341 694.347 736.81 695.124 736.81 696.092C736.81 696.679 736.649 697.177 736.326 697.588C736.004 697.969 735.608 698.16 735.138 698.16C734.816 698.16 734.493 698.101 734.17 697.984C733.877 697.837 733.496 697.632 733.026 697.368C732.176 696.928 731.442 696.605 730.826 696.4C730.21 696.165 729.448 696.048 728.538 696.048C727.453 696.048 726.588 696.268 725.942 696.708C725.326 697.148 725.018 697.749 725.018 698.512C725.018 699.245 725.341 699.803 725.986 700.184C726.632 700.565 727.878 700.947 729.726 701.328C731.692 701.739 733.232 702.208 734.346 702.736C735.461 703.264 736.253 703.924 736.722 704.716C737.221 705.508 737.47 706.52 737.47 707.752C737.47 709.747 736.634 711.345 734.962 712.548C733.32 713.751 731.12 714.352 728.362 714.352Z" fill="black"/>
</g>
<defs>
<clipPath id="clip0">
<rect width="1365.33" height="768" fill="white"/>
</clipPath>
</defs>
</svg>
