<svg width="1366" height="768" viewBox="0 0 1366 768" fill="none" xmlns="http://www.w3.org/2000/svg">
<rect width="1365.33" height="768" fill="#F05930"/>
<path d="M133.7 248.33C132.637 248.33 131.775 248.018 131.115 247.395C130.492 246.735 130.18 245.855 130.18 244.755V212.58C130.18 211.517 130.473 210.692 131.06 210.105C131.683 209.518 132.527 209.225 133.59 209.225H147.12C151.263 209.225 154.49 210.27 156.8 212.36C159.11 214.413 160.265 217.31 160.265 221.05C160.265 224.79 159.11 227.705 156.8 229.795C154.49 231.885 151.263 232.93 147.12 232.93H137.275V244.755C137.275 245.855 136.945 246.735 136.285 247.395C135.662 248.018 134.8 248.33 133.7 248.33ZM146.24 227.485C151.117 227.485 153.555 225.358 153.555 221.105C153.555 216.852 151.117 214.725 146.24 214.725H137.275V227.485H146.24ZM177.945 220.445C181.685 220.445 184.454 221.38 186.25 223.25C188.084 225.083 189 227.888 189 231.665V245.085C189 246.075 188.707 246.863 188.12 247.45C187.534 248 186.727 248.275 185.7 248.275C184.747 248.275 183.959 247.982 183.335 247.395C182.749 246.808 182.455 246.038 182.455 245.085V243.875C181.832 245.305 180.842 246.423 179.485 247.23C178.165 248.037 176.625 248.44 174.865 248.44C173.069 248.44 171.437 248.073 169.97 247.34C168.504 246.607 167.349 245.598 166.505 244.315C165.662 243.032 165.24 241.602 165.24 240.025C165.24 238.045 165.735 236.487 166.725 235.35C167.752 234.213 169.402 233.388 171.675 232.875C173.949 232.362 177.084 232.105 181.08 232.105H182.455V230.84C182.455 229.043 182.07 227.742 181.3 226.935C180.53 226.092 179.284 225.67 177.56 225.67C176.497 225.67 175.415 225.835 174.315 226.165C173.215 226.458 171.914 226.898 170.41 227.485C169.457 227.962 168.76 228.2 168.32 228.2C167.66 228.2 167.11 227.962 166.67 227.485C166.267 227.008 166.065 226.385 166.065 225.615C166.065 224.992 166.212 224.46 166.505 224.02C166.835 223.543 167.367 223.103 168.1 222.7C169.384 222.003 170.905 221.453 172.665 221.05C174.462 220.647 176.222 220.445 177.945 220.445ZM176.24 243.49C178.074 243.49 179.559 242.885 180.695 241.675C181.869 240.428 182.455 238.833 182.455 236.89V235.735H181.465C179.009 235.735 177.102 235.845 175.745 236.065C174.389 236.285 173.417 236.67 172.83 237.22C172.244 237.77 171.95 238.522 171.95 239.475C171.95 240.648 172.354 241.62 173.16 242.39C174.004 243.123 175.03 243.49 176.24 243.49ZM206.822 248.44C202.826 248.44 199.599 247.652 197.142 246.075C195.969 245.378 195.382 244.388 195.382 243.105C195.382 242.372 195.584 241.785 195.987 241.345C196.391 240.868 196.886 240.63 197.472 240.63C198.096 240.63 198.957 240.923 200.057 241.51C201.231 242.06 202.294 242.482 203.247 242.775C204.237 243.068 205.484 243.215 206.987 243.215C208.527 243.215 209.719 242.958 210.562 242.445C211.442 241.932 211.882 241.217 211.882 240.3C211.882 239.677 211.699 239.182 211.332 238.815C211.002 238.448 210.379 238.118 209.462 237.825C208.582 237.495 207.226 237.128 205.392 236.725C202.129 236.065 199.782 235.13 198.352 233.92C196.959 232.71 196.262 231.042 196.262 228.915C196.262 227.302 196.739 225.853 197.692 224.57C198.646 223.25 199.947 222.242 201.597 221.545C203.284 220.812 205.191 220.445 207.317 220.445C208.857 220.445 210.342 220.647 211.772 221.05C213.202 221.417 214.486 221.967 215.622 222.7C216.796 223.433 217.382 224.405 217.382 225.615C217.382 226.348 217.181 226.972 216.777 227.485C216.374 227.962 215.879 228.2 215.292 228.2C214.889 228.2 214.486 228.127 214.082 227.98C213.716 227.797 213.239 227.54 212.652 227.21C211.589 226.66 210.672 226.257 209.902 226C209.132 225.707 208.179 225.56 207.042 225.56C205.686 225.56 204.604 225.835 203.797 226.385C203.027 226.935 202.642 227.687 202.642 228.64C202.642 229.557 203.046 230.253 203.852 230.73C204.659 231.207 206.217 231.683 208.527 232.16C210.984 232.673 212.909 233.26 214.302 233.92C215.696 234.58 216.686 235.405 217.272 236.395C217.896 237.385 218.207 238.65 218.207 240.19C218.207 242.683 217.162 244.682 215.072 246.185C213.019 247.688 210.269 248.44 206.822 248.44ZM238.583 243.215C240.417 243.325 241.333 244.15 241.333 245.69C241.333 246.57 240.967 247.248 240.233 247.725C239.537 248.165 238.528 248.348 237.208 248.275L235.723 248.165C229.563 247.725 226.483 244.425 226.483 238.265V226.275H223.733C222.743 226.275 221.973 226.055 221.423 225.615C220.91 225.175 220.653 224.533 220.653 223.69C220.653 222.847 220.91 222.205 221.423 221.765C221.973 221.325 222.743 221.105 223.733 221.105H226.483V216.045C226.483 215.055 226.795 214.267 227.418 213.68C228.042 213.093 228.885 212.8 229.948 212.8C230.975 212.8 231.8 213.093 232.423 213.68C233.047 214.267 233.358 215.055 233.358 216.045V221.105H238.033C239.023 221.105 239.775 221.325 240.288 221.765C240.838 222.205 241.113 222.847 241.113 223.69C241.113 224.533 240.838 225.175 240.288 225.615C239.775 226.055 239.023 226.275 238.033 226.275H233.358V238.76C233.358 241.473 234.605 242.922 237.098 243.105L238.583 243.215ZM265.458 248.33C264.468 248.33 263.643 248.055 262.983 247.505C262.359 246.918 262.048 246.093 262.048 245.03V223.8C262.048 222.737 262.359 221.93 262.983 221.38C263.643 220.83 264.468 220.555 265.458 220.555C266.448 220.555 267.273 220.83 267.933 221.38C268.593 221.93 268.923 222.737 268.923 223.8V245.03C268.923 246.093 268.593 246.918 267.933 247.505C267.273 248.055 266.448 248.33 265.458 248.33ZM265.458 215.66C264.211 215.66 263.221 215.33 262.488 214.67C261.754 213.973 261.388 213.075 261.388 211.975C261.388 210.875 261.754 209.995 262.488 209.335C263.221 208.675 264.211 208.345 265.458 208.345C266.668 208.345 267.639 208.675 268.373 209.335C269.143 209.995 269.528 210.875 269.528 211.975C269.528 213.075 269.161 213.973 268.428 214.67C267.694 215.33 266.704 215.66 265.458 215.66ZM292.264 243.215C294.097 243.325 295.014 244.15 295.014 245.69C295.014 246.57 294.647 247.248 293.914 247.725C293.217 248.165 292.209 248.348 290.889 248.275L289.404 248.165C283.244 247.725 280.164 244.425 280.164 238.265V226.275H277.414C276.424 226.275 275.654 226.055 275.104 225.615C274.591 225.175 274.334 224.533 274.334 223.69C274.334 222.847 274.591 222.205 275.104 221.765C275.654 221.325 276.424 221.105 277.414 221.105H280.164V216.045C280.164 215.055 280.476 214.267 281.099 213.68C281.722 213.093 282.566 212.8 283.629 212.8C284.656 212.8 285.481 213.093 286.104 213.68C286.727 214.267 287.039 215.055 287.039 216.045V221.105H291.714C292.704 221.105 293.456 221.325 293.969 221.765C294.519 222.205 294.794 222.847 294.794 223.69C294.794 224.533 294.519 225.175 293.969 225.615C293.456 226.055 292.704 226.275 291.714 226.275H287.039V238.76C287.039 241.473 288.286 242.922 290.779 243.105L292.264 243.215ZM320.982 240.63C321.605 240.63 322.1 240.868 322.467 241.345C322.87 241.822 323.072 242.463 323.072 243.27C323.072 244.407 322.394 245.36 321.037 246.13C319.79 246.827 318.379 247.395 316.802 247.835C315.225 248.238 313.722 248.44 312.292 248.44C307.965 248.44 304.537 247.193 302.007 244.7C299.477 242.207 298.212 238.797 298.212 234.47C298.212 231.72 298.762 229.282 299.862 227.155C300.962 225.028 302.502 223.378 304.482 222.205C306.499 221.032 308.772 220.445 311.302 220.445C313.722 220.445 315.83 220.977 317.627 222.04C319.424 223.103 320.817 224.607 321.807 226.55C322.797 228.493 323.292 230.785 323.292 233.425C323.292 235.002 322.595 235.79 321.202 235.79H304.977C305.197 238.32 305.912 240.19 307.122 241.4C308.332 242.573 310.092 243.16 312.402 243.16C313.575 243.16 314.602 243.013 315.482 242.72C316.399 242.427 317.425 242.023 318.562 241.51C319.662 240.923 320.469 240.63 320.982 240.63ZM311.467 225.285C309.597 225.285 308.094 225.872 306.957 227.045C305.857 228.218 305.197 229.905 304.977 232.105H317.407C317.334 229.868 316.784 228.182 315.757 227.045C314.73 225.872 313.3 225.285 311.467 225.285ZM345.031 220.555C345.984 220.482 346.736 220.683 347.286 221.16C347.836 221.637 348.111 222.352 348.111 223.305C348.111 224.295 347.872 225.028 347.396 225.505C346.919 225.982 346.057 226.293 344.811 226.44L343.161 226.605C340.997 226.825 339.402 227.558 338.376 228.805C337.386 230.052 336.891 231.61 336.891 233.48V245.03C336.891 246.093 336.561 246.918 335.901 247.505C335.241 248.055 334.416 248.33 333.426 248.33C332.436 248.33 331.611 248.055 330.951 247.505C330.327 246.918 330.016 246.093 330.016 245.03V223.745C330.016 222.718 330.327 221.93 330.951 221.38C331.611 220.83 332.417 220.555 333.371 220.555C334.324 220.555 335.094 220.83 335.681 221.38C336.267 221.893 336.561 222.645 336.561 223.635V225.835C337.257 224.222 338.284 222.975 339.641 222.095C341.034 221.215 342.574 220.72 344.261 220.61L345.031 220.555ZM363.723 220.445C367.463 220.445 370.231 221.38 372.028 223.25C373.861 225.083 374.778 227.888 374.778 231.665V245.085C374.778 246.075 374.485 246.863 373.898 247.45C373.311 248 372.505 248.275 371.478 248.275C370.525 248.275 369.736 247.982 369.113 247.395C368.526 246.808 368.233 246.038 368.233 245.085V243.875C367.61 245.305 366.62 246.423 365.263 247.23C363.943 248.037 362.403 248.44 360.643 248.44C358.846 248.44 357.215 248.073 355.748 247.34C354.281 246.607 353.126 245.598 352.283 244.315C351.44 243.032 351.018 241.602 351.018 240.025C351.018 238.045 351.513 236.487 352.503 235.35C353.53 234.213 355.18 233.388 357.453 232.875C359.726 232.362 362.861 232.105 366.858 232.105H368.233V230.84C368.233 229.043 367.848 227.742 367.078 226.935C366.308 226.092 365.061 225.67 363.338 225.67C362.275 225.67 361.193 225.835 360.093 226.165C358.993 226.458 357.691 226.898 356.188 227.485C355.235 227.962 354.538 228.2 354.098 228.2C353.438 228.2 352.888 227.962 352.448 227.485C352.045 227.008 351.843 226.385 351.843 225.615C351.843 224.992 351.99 224.46 352.283 224.02C352.613 223.543 353.145 223.103 353.878 222.7C355.161 222.003 356.683 221.453 358.443 221.05C360.24 220.647 362 220.445 363.723 220.445ZM362.018 243.49C363.851 243.49 365.336 242.885 366.473 241.675C367.646 240.428 368.233 238.833 368.233 236.89V235.735H367.243C364.786 235.735 362.88 235.845 361.523 236.065C360.166 236.285 359.195 236.67 358.608 237.22C358.021 237.77 357.728 238.522 357.728 239.475C357.728 240.648 358.131 241.62 358.938 242.39C359.781 243.123 360.808 243.49 362.018 243.49ZM396.835 243.215C398.668 243.325 399.585 244.15 399.585 245.69C399.585 246.57 399.218 247.248 398.485 247.725C397.788 248.165 396.78 248.348 395.46 248.275L393.975 248.165C387.815 247.725 384.735 244.425 384.735 238.265V226.275H381.985C380.995 226.275 380.225 226.055 379.675 225.615C379.162 225.175 378.905 224.533 378.905 223.69C378.905 222.847 379.162 222.205 379.675 221.765C380.225 221.325 380.995 221.105 381.985 221.105H384.735V216.045C384.735 215.055 385.047 214.267 385.67 213.68C386.293 213.093 387.137 212.8 388.2 212.8C389.227 212.8 390.052 213.093 390.675 213.68C391.298 214.267 391.61 215.055 391.61 216.045V221.105H396.285C397.275 221.105 398.027 221.325 398.54 221.765C399.09 222.205 399.365 222.847 399.365 223.69C399.365 224.533 399.09 225.175 398.54 225.615C398.027 226.055 397.275 226.275 396.285 226.275H391.61V238.76C391.61 241.473 392.857 242.922 395.35 243.105L396.835 243.215ZM407.678 248.33C406.688 248.33 405.863 248.055 405.203 247.505C404.579 246.918 404.268 246.093 404.268 245.03V223.8C404.268 222.737 404.579 221.93 405.203 221.38C405.863 220.83 406.688 220.555 407.678 220.555C408.668 220.555 409.493 220.83 410.153 221.38C410.813 221.93 411.143 222.737 411.143 223.8V245.03C411.143 246.093 410.813 246.918 410.153 247.505C409.493 248.055 408.668 248.33 407.678 248.33ZM407.678 215.66C406.431 215.66 405.441 215.33 404.708 214.67C403.974 213.973 403.608 213.075 403.608 211.975C403.608 210.875 403.974 209.995 404.708 209.335C405.441 208.675 406.431 208.345 407.678 208.345C408.888 208.345 409.859 208.675 410.593 209.335C411.363 209.995 411.748 210.875 411.748 211.975C411.748 213.075 411.381 213.973 410.648 214.67C409.914 215.33 408.924 215.66 407.678 215.66ZM431.598 248.44C428.848 248.44 426.428 247.872 424.338 246.735C422.284 245.598 420.689 243.967 419.553 241.84C418.416 239.713 417.848 237.238 417.848 234.415C417.848 231.592 418.416 229.135 419.553 227.045C420.689 224.918 422.284 223.287 424.338 222.15C426.428 221.013 428.848 220.445 431.598 220.445C434.348 220.445 436.749 221.013 438.803 222.15C440.893 223.287 442.488 224.918 443.588 227.045C444.724 229.135 445.293 231.592 445.293 234.415C445.293 237.238 444.724 239.713 443.588 241.84C442.488 243.967 440.893 245.598 438.803 246.735C436.749 247.872 434.348 248.44 431.598 248.44ZM431.543 243.105C433.779 243.105 435.484 242.372 436.658 240.905C437.831 239.438 438.418 237.275 438.418 234.415C438.418 231.592 437.831 229.447 436.658 227.98C435.484 226.477 433.798 225.725 431.598 225.725C429.398 225.725 427.693 226.477 426.483 227.98C425.309 229.447 424.723 231.592 424.723 234.415C424.723 237.275 425.309 239.438 426.483 240.905C427.656 242.372 429.343 243.105 431.543 243.105ZM467.688 220.445C470.915 220.445 473.317 221.362 474.893 223.195C476.47 225.028 477.258 227.797 477.258 231.5V245.03C477.258 246.057 476.947 246.863 476.323 247.45C475.737 248.037 474.912 248.33 473.848 248.33C472.785 248.33 471.942 248.037 471.318 247.45C470.695 246.863 470.383 246.057 470.383 245.03V231.885C470.383 229.795 469.98 228.273 469.173 227.32C468.403 226.367 467.175 225.89 465.488 225.89C463.508 225.89 461.913 226.513 460.703 227.76C459.53 229.007 458.943 230.675 458.943 232.765V245.03C458.943 246.057 458.632 246.863 458.008 247.45C457.385 248.037 456.542 248.33 455.478 248.33C454.415 248.33 453.572 248.037 452.948 247.45C452.362 246.863 452.068 246.057 452.068 245.03V223.745C452.068 222.792 452.38 222.022 453.003 221.435C453.627 220.848 454.47 220.555 455.533 220.555C456.487 220.555 457.257 220.848 457.843 221.435C458.467 221.985 458.778 222.718 458.778 223.635V225.12C459.695 223.617 460.923 222.462 462.463 221.655C464.003 220.848 465.745 220.445 467.688 220.445ZM495.076 248.44C491.08 248.44 487.853 247.652 485.396 246.075C484.223 245.378 483.636 244.388 483.636 243.105C483.636 242.372 483.838 241.785 484.241 241.345C484.645 240.868 485.14 240.63 485.726 240.63C486.35 240.63 487.211 240.923 488.311 241.51C489.485 242.06 490.548 242.482 491.501 242.775C492.491 243.068 493.738 243.215 495.241 243.215C496.781 243.215 497.973 242.958 498.816 242.445C499.696 241.932 500.136 241.217 500.136 240.3C500.136 239.677 499.953 239.182 499.586 238.815C499.256 238.448 498.633 238.118 497.716 237.825C496.836 237.495 495.48 237.128 493.646 236.725C490.383 236.065 488.036 235.13 486.606 233.92C485.213 232.71 484.516 231.042 484.516 228.915C484.516 227.302 484.993 225.853 485.946 224.57C486.9 223.25 488.201 222.242 489.851 221.545C491.538 220.812 493.445 220.445 495.571 220.445C497.111 220.445 498.596 220.647 500.026 221.05C501.456 221.417 502.74 221.967 503.876 222.7C505.05 223.433 505.636 224.405 505.636 225.615C505.636 226.348 505.435 226.972 505.031 227.485C504.628 227.962 504.133 228.2 503.546 228.2C503.143 228.2 502.74 228.127 502.336 227.98C501.97 227.797 501.493 227.54 500.906 227.21C499.843 226.66 498.926 226.257 498.156 226C497.386 225.707 496.433 225.56 495.296 225.56C493.94 225.56 492.858 225.835 492.051 226.385C491.281 226.935 490.896 227.687 490.896 228.64C490.896 229.557 491.3 230.253 492.106 230.73C492.913 231.207 494.471 231.683 496.781 232.16C499.238 232.673 501.163 233.26 502.556 233.92C503.95 234.58 504.94 235.405 505.526 236.395C506.15 237.385 506.461 238.65 506.461 240.19C506.461 242.683 505.416 244.682 503.326 246.185C501.273 247.688 498.523 248.44 495.076 248.44Z" fill="white"/>
</svg>
