<svg width="1366" height="768" viewBox="0 0 1366 768" fill="none" xmlns="http://www.w3.org/2000/svg">
<rect width="1365.33" height="768" fill="#6850F6"/>
<path d="M159.55 208.95C160.577 208.95 161.383 209.28 161.97 209.94C162.593 210.563 162.905 211.407 162.905 212.47V244.755C162.905 245.818 162.593 246.68 161.97 247.34C161.347 248 160.54 248.33 159.55 248.33C158.377 248.33 157.478 247.908 156.855 247.065L136.78 220.94V244.755C136.78 245.818 136.487 246.68 135.9 247.34C135.313 248 134.507 248.33 133.48 248.33C132.453 248.33 131.647 248 131.06 247.34C130.473 246.68 130.18 245.818 130.18 244.755V212.47C130.18 211.407 130.492 210.563 131.115 209.94C131.738 209.28 132.563 208.95 133.59 208.95C134.727 208.95 135.607 209.372 136.23 210.215L156.25 236.23V212.47C156.25 211.407 156.543 210.563 157.13 209.94C157.753 209.28 158.56 208.95 159.55 208.95ZM193.049 240.63C193.672 240.63 194.167 240.868 194.534 241.345C194.937 241.822 195.139 242.463 195.139 243.27C195.139 244.407 194.461 245.36 193.104 246.13C191.857 246.827 190.446 247.395 188.869 247.835C187.292 248.238 185.789 248.44 184.359 248.44C180.032 248.44 176.604 247.193 174.074 244.7C171.544 242.207 170.279 238.797 170.279 234.47C170.279 231.72 170.829 229.282 171.929 227.155C173.029 225.028 174.569 223.378 176.549 222.205C178.566 221.032 180.839 220.445 183.369 220.445C185.789 220.445 187.897 220.977 189.694 222.04C191.491 223.103 192.884 224.607 193.874 226.55C194.864 228.493 195.359 230.785 195.359 233.425C195.359 235.002 194.662 235.79 193.269 235.79H177.044C177.264 238.32 177.979 240.19 179.189 241.4C180.399 242.573 182.159 243.16 184.469 243.16C185.642 243.16 186.669 243.013 187.549 242.72C188.466 242.427 189.492 242.023 190.629 241.51C191.729 240.923 192.536 240.63 193.049 240.63ZM183.534 225.285C181.664 225.285 180.161 225.872 179.024 227.045C177.924 228.218 177.264 229.905 177.044 232.105H189.474C189.401 229.868 188.851 228.182 187.824 227.045C186.797 225.872 185.367 225.285 183.534 225.285ZM224.866 242.94C225.526 243.6 225.856 244.352 225.856 245.195C225.856 246.002 225.544 246.735 224.921 247.395C224.297 248.018 223.564 248.33 222.721 248.33C221.804 248.33 221.016 247.945 220.356 247.175L212.601 238.595L204.846 247.175C204.149 247.908 203.361 248.275 202.481 248.275C201.674 248.275 200.959 247.963 200.336 247.34C199.712 246.717 199.401 246.002 199.401 245.195C199.401 244.352 199.731 243.6 200.391 242.94L208.421 234.195L200.831 225.945C200.171 225.285 199.841 224.533 199.841 223.69C199.841 222.847 200.152 222.132 200.776 221.545C201.399 220.922 202.114 220.61 202.921 220.61C203.801 220.61 204.589 220.977 205.286 221.71L212.601 229.74L219.916 221.71C220.612 220.977 221.401 220.61 222.281 220.61C223.124 220.61 223.839 220.922 224.426 221.545C225.049 222.132 225.361 222.847 225.361 223.69C225.361 224.533 225.031 225.285 224.371 225.945L216.781 234.195L224.866 242.94ZM245.888 243.215C247.721 243.325 248.638 244.15 248.638 245.69C248.638 246.57 248.271 247.248 247.538 247.725C246.841 248.165 245.833 248.348 244.513 248.275L243.028 248.165C236.868 247.725 233.788 244.425 233.788 238.265V226.275H231.038C230.048 226.275 229.278 226.055 228.728 225.615C228.215 225.175 227.958 224.533 227.958 223.69C227.958 222.847 228.215 222.205 228.728 221.765C229.278 221.325 230.048 221.105 231.038 221.105H233.788V216.045C233.788 215.055 234.1 214.267 234.723 213.68C235.346 213.093 236.19 212.8 237.253 212.8C238.28 212.8 239.105 213.093 239.728 213.68C240.351 214.267 240.663 215.055 240.663 216.045V221.105H245.338C246.328 221.105 247.08 221.325 247.593 221.765C248.143 222.205 248.418 222.847 248.418 223.69C248.418 224.533 248.143 225.175 247.593 225.615C247.08 226.055 246.328 226.275 245.338 226.275H240.663V238.76C240.663 241.473 241.91 242.922 244.403 243.105L245.888 243.215ZM279.087 248.44C275.091 248.44 271.864 247.652 269.407 246.075C268.234 245.378 267.647 244.388 267.647 243.105C267.647 242.372 267.849 241.785 268.252 241.345C268.656 240.868 269.151 240.63 269.737 240.63C270.361 240.63 271.222 240.923 272.322 241.51C273.496 242.06 274.559 242.482 275.512 242.775C276.502 243.068 277.749 243.215 279.252 243.215C280.792 243.215 281.984 242.958 282.827 242.445C283.707 241.932 284.147 241.217 284.147 240.3C284.147 239.677 283.964 239.182 283.597 238.815C283.267 238.448 282.644 238.118 281.727 237.825C280.847 237.495 279.491 237.128 277.657 236.725C274.394 236.065 272.047 235.13 270.617 233.92C269.224 232.71 268.527 231.042 268.527 228.915C268.527 227.302 269.004 225.853 269.957 224.57C270.911 223.25 272.212 222.242 273.862 221.545C275.549 220.812 277.456 220.445 279.582 220.445C281.122 220.445 282.607 220.647 284.037 221.05C285.467 221.417 286.751 221.967 287.887 222.7C289.061 223.433 289.647 224.405 289.647 225.615C289.647 226.348 289.446 226.972 289.042 227.485C288.639 227.962 288.144 228.2 287.557 228.2C287.154 228.2 286.751 228.127 286.347 227.98C285.981 227.797 285.504 227.54 284.917 227.21C283.854 226.66 282.937 226.257 282.167 226C281.397 225.707 280.444 225.56 279.307 225.56C277.951 225.56 276.869 225.835 276.062 226.385C275.292 226.935 274.907 227.687 274.907 228.64C274.907 229.557 275.311 230.253 276.117 230.73C276.924 231.207 278.482 231.683 280.792 232.16C283.249 232.673 285.174 233.26 286.567 233.92C287.961 234.58 288.951 235.405 289.537 236.395C290.161 237.385 290.472 238.65 290.472 240.19C290.472 242.683 289.427 244.682 287.337 246.185C285.284 247.688 282.534 248.44 279.087 248.44ZM310.848 243.215C312.681 243.325 313.598 244.15 313.598 245.69C313.598 246.57 313.231 247.248 312.498 247.725C311.801 248.165 310.793 248.348 309.473 248.275L307.988 248.165C301.828 247.725 298.748 244.425 298.748 238.265V226.275H295.998C295.008 226.275 294.238 226.055 293.688 225.615C293.175 225.175 292.918 224.533 292.918 223.69C292.918 222.847 293.175 222.205 293.688 221.765C294.238 221.325 295.008 221.105 295.998 221.105H298.748V216.045C298.748 215.055 299.06 214.267 299.683 213.68C300.306 213.093 301.15 212.8 302.213 212.8C303.24 212.8 304.065 213.093 304.688 213.68C305.311 214.267 305.623 215.055 305.623 216.045V221.105H310.298C311.288 221.105 312.04 221.325 312.553 221.765C313.103 222.205 313.378 222.847 313.378 223.69C313.378 224.533 313.103 225.175 312.553 225.615C312.04 226.055 311.288 226.275 310.298 226.275H305.623V238.76C305.623 241.473 306.87 242.922 309.363 243.105L310.848 243.215ZM339.566 240.63C340.189 240.63 340.684 240.868 341.051 241.345C341.454 241.822 341.656 242.463 341.656 243.27C341.656 244.407 340.978 245.36 339.621 246.13C338.374 246.827 336.963 247.395 335.386 247.835C333.809 248.238 332.306 248.44 330.876 248.44C326.549 248.44 323.121 247.193 320.591 244.7C318.061 242.207 316.796 238.797 316.796 234.47C316.796 231.72 317.346 229.282 318.446 227.155C319.546 225.028 321.086 223.378 323.066 222.205C325.083 221.032 327.356 220.445 329.886 220.445C332.306 220.445 334.414 220.977 336.211 222.04C338.008 223.103 339.401 224.607 340.391 226.55C341.381 228.493 341.876 230.785 341.876 233.425C341.876 235.002 341.179 235.79 339.786 235.79H323.561C323.781 238.32 324.496 240.19 325.706 241.4C326.916 242.573 328.676 243.16 330.986 243.16C332.159 243.16 333.186 243.013 334.066 242.72C334.983 242.427 336.009 242.023 337.146 241.51C338.246 240.923 339.053 240.63 339.566 240.63ZM330.051 225.285C328.181 225.285 326.678 225.872 325.541 227.045C324.441 228.218 323.781 229.905 323.561 232.105H335.991C335.918 229.868 335.368 228.182 334.341 227.045C333.314 225.872 331.884 225.285 330.051 225.285ZM364.055 220.445C366.365 220.445 368.418 221.032 370.215 222.205C372.048 223.378 373.46 225.047 374.45 227.21C375.476 229.337 375.99 231.793 375.99 234.58C375.99 237.367 375.476 239.805 374.45 241.895C373.46 243.985 372.066 245.598 370.27 246.735C368.473 247.872 366.401 248.44 364.055 248.44C362.148 248.44 360.443 248.037 358.94 247.23C357.436 246.423 356.281 245.305 355.475 243.875V255.095C355.475 256.048 355.163 256.8 354.54 257.35C353.916 257.9 353.091 258.175 352.065 258.175C351.038 258.175 350.195 257.882 349.535 257.295C348.911 256.708 348.6 255.938 348.6 254.985V223.8C348.6 222.81 348.893 222.022 349.48 221.435C350.103 220.848 350.928 220.555 351.955 220.555C352.981 220.555 353.806 220.848 354.43 221.435C355.053 222.022 355.365 222.81 355.365 223.8V225.175C356.171 223.672 357.326 222.517 358.83 221.71C360.37 220.867 362.111 220.445 364.055 220.445ZM362.24 243.105C364.403 243.105 366.09 242.372 367.3 240.905C368.51 239.402 369.115 237.293 369.115 234.58C369.115 231.793 368.51 229.63 367.3 228.09C366.09 226.55 364.403 225.78 362.24 225.78C360.04 225.78 358.335 226.532 357.125 228.035C355.951 229.538 355.365 231.683 355.365 234.47C355.365 237.22 355.951 239.347 357.125 240.85C358.335 242.353 360.04 243.105 362.24 243.105ZM392.467 248.44C388.47 248.44 385.243 247.652 382.787 246.075C381.613 245.378 381.027 244.388 381.027 243.105C381.027 242.372 381.228 241.785 381.632 241.345C382.035 240.868 382.53 240.63 383.117 240.63C383.74 240.63 384.602 240.923 385.702 241.51C386.875 242.06 387.938 242.482 388.892 242.775C389.882 243.068 391.128 243.215 392.632 243.215C394.172 243.215 395.363 242.958 396.207 242.445C397.087 241.932 397.527 241.217 397.527 240.3C397.527 239.677 397.343 239.182 396.977 238.815C396.647 238.448 396.023 238.118 395.107 237.825C394.227 237.495 392.87 237.128 391.037 236.725C387.773 236.065 385.427 235.13 383.997 233.92C382.603 232.71 381.907 231.042 381.907 228.915C381.907 227.302 382.383 225.853 383.337 224.57C384.29 223.25 385.592 222.242 387.242 221.545C388.928 220.812 390.835 220.445 392.962 220.445C394.502 220.445 395.987 220.647 397.417 221.05C398.847 221.417 400.13 221.967 401.267 222.7C402.44 223.433 403.027 224.405 403.027 225.615C403.027 226.348 402.825 226.972 402.422 227.485C402.018 227.962 401.523 228.2 400.937 228.2C400.533 228.2 400.13 228.127 399.727 227.98C399.36 227.797 398.883 227.54 398.297 227.21C397.233 226.66 396.317 226.257 395.547 226C394.777 225.707 393.823 225.56 392.687 225.56C391.33 225.56 390.248 225.835 389.442 226.385C388.672 226.935 388.287 227.687 388.287 228.64C388.287 229.557 388.69 230.253 389.497 230.73C390.303 231.207 391.862 231.683 394.172 232.16C396.628 232.673 398.553 233.26 399.947 233.92C401.34 234.58 402.33 235.405 402.917 236.395C403.54 237.385 403.852 238.65 403.852 240.19C403.852 242.683 402.807 244.682 400.717 246.185C398.663 247.688 395.913 248.44 392.467 248.44ZM459.283 243.655C459.906 244.242 460.218 244.902 460.218 245.635C460.218 246.368 459.924 247.028 459.338 247.615C458.751 248.165 458.073 248.44 457.303 248.44C456.533 248.44 455.854 248.165 455.268 247.615L450.703 243.215C448.979 244.902 447.054 246.203 444.928 247.12C442.801 248 440.601 248.44 438.328 248.44C435.761 248.44 433.469 248 431.453 247.12C429.473 246.24 427.914 244.993 426.778 243.38C425.678 241.767 425.128 239.915 425.128 237.825C425.128 235.478 425.788 233.388 427.108 231.555C428.464 229.722 430.554 227.998 433.378 226.385C431.984 224.955 430.939 223.562 430.243 222.205C429.583 220.848 429.253 219.437 429.253 217.97C429.253 215.183 430.224 212.965 432.168 211.315C434.148 209.665 436.714 208.84 439.868 208.84C442.801 208.84 445.129 209.61 446.853 211.15C448.613 212.653 449.493 214.688 449.493 217.255C449.493 219.235 448.906 221.013 447.733 222.59C446.596 224.13 444.799 225.652 442.343 227.155L450.043 234.69C451.069 232.49 451.729 229.923 452.023 226.99C452.133 226.073 452.481 225.377 453.068 224.9C453.654 224.387 454.314 224.13 455.048 224.13C455.854 224.13 456.533 224.423 457.083 225.01C457.633 225.56 457.853 226.312 457.743 227.265C457.376 231.518 456.203 235.332 454.223 238.705L459.283 243.655ZM439.923 213.57C438.603 213.57 437.521 213.973 436.678 214.78C435.871 215.55 435.468 216.595 435.468 217.915C435.468 218.832 435.706 219.712 436.183 220.555C436.696 221.362 437.539 222.37 438.713 223.58C440.583 222.517 441.903 221.527 442.673 220.61C443.479 219.693 443.883 218.667 443.883 217.53C443.883 216.357 443.516 215.403 442.783 214.67C442.086 213.937 441.133 213.57 439.923 213.57ZM438.658 243.105C440.161 243.105 441.609 242.793 443.003 242.17C444.396 241.547 445.679 240.648 446.853 239.475L437.118 230.015C435.248 231.115 433.891 232.27 433.048 233.48C432.241 234.653 431.838 235.992 431.838 237.495C431.838 239.218 432.443 240.593 433.653 241.62C434.899 242.61 436.568 243.105 438.658 243.105ZM495.096 243.215C496.929 243.325 497.846 244.15 497.846 245.69C497.846 246.57 497.479 247.248 496.746 247.725C496.049 248.165 495.041 248.348 493.721 248.275L492.236 248.165C486.076 247.725 482.996 244.425 482.996 238.265V226.275H480.246C479.256 226.275 478.486 226.055 477.936 225.615C477.423 225.175 477.166 224.533 477.166 223.69C477.166 222.847 477.423 222.205 477.936 221.765C478.486 221.325 479.256 221.105 480.246 221.105H482.996V216.045C482.996 215.055 483.308 214.267 483.931 213.68C484.554 213.093 485.398 212.8 486.461 212.8C487.488 212.8 488.313 213.093 488.936 213.68C489.559 214.267 489.871 215.055 489.871 216.045V221.105H494.546C495.536 221.105 496.288 221.325 496.801 221.765C497.351 222.205 497.626 222.847 497.626 223.69C497.626 224.533 497.351 225.175 496.801 225.615C496.288 226.055 495.536 226.275 494.546 226.275H489.871V238.76C489.871 241.473 491.118 242.922 493.611 243.105L495.096 243.215ZM514.189 220.445C517.929 220.445 520.697 221.38 522.494 223.25C524.327 225.083 525.244 227.888 525.244 231.665V245.085C525.244 246.075 524.95 246.863 524.364 247.45C523.777 248 522.97 248.275 521.944 248.275C520.99 248.275 520.202 247.982 519.579 247.395C518.992 246.808 518.699 246.038 518.699 245.085V243.875C518.075 245.305 517.085 246.423 515.729 247.23C514.409 248.037 512.869 248.44 511.109 248.44C509.312 248.44 507.68 248.073 506.214 247.34C504.747 246.607 503.592 245.598 502.749 244.315C501.905 243.032 501.484 241.602 501.484 240.025C501.484 238.045 501.979 236.487 502.969 235.35C503.995 234.213 505.645 233.388 507.919 232.875C510.192 232.362 513.327 232.105 517.324 232.105H518.699V230.84C518.699 229.043 518.314 227.742 517.544 226.935C516.774 226.092 515.527 225.67 513.804 225.67C512.74 225.67 511.659 225.835 510.559 226.165C509.459 226.458 508.157 226.898 506.654 227.485C505.7 227.962 505.004 228.2 504.564 228.2C503.904 228.2 503.354 227.962 502.914 227.485C502.51 227.008 502.309 226.385 502.309 225.615C502.309 224.992 502.455 224.46 502.749 224.02C503.079 223.543 503.61 223.103 504.344 222.7C505.627 222.003 507.149 221.453 508.909 221.05C510.705 220.647 512.465 220.445 514.189 220.445ZM512.484 243.49C514.317 243.49 515.802 242.885 516.939 241.675C518.112 240.428 518.699 238.833 518.699 236.89V235.735H517.709C515.252 235.735 513.345 235.845 511.989 236.065C510.632 236.285 509.66 236.67 509.074 237.22C508.487 237.77 508.194 238.522 508.194 239.475C508.194 240.648 508.597 241.62 509.404 242.39C510.247 243.123 511.274 243.49 512.484 243.49ZM557.256 242.665C557.989 243.362 558.356 244.15 558.356 245.03C558.356 245.873 558.044 246.625 557.421 247.285C556.834 247.945 556.138 248.275 555.331 248.275C554.524 248.275 553.773 247.945 553.076 247.285L540.206 235.625V245.03C540.206 246.093 539.876 246.9 539.216 247.45C538.556 248 537.731 248.275 536.741 248.275C535.751 248.275 534.926 248 534.266 247.45C533.643 246.9 533.331 246.093 533.331 245.03V212.195C533.331 211.132 533.643 210.325 534.266 209.775C534.926 209.225 535.751 208.95 536.741 208.95C537.731 208.95 538.556 209.225 539.216 209.775C539.876 210.325 540.206 211.132 540.206 212.195V232.875L551.976 221.6C552.636 220.94 553.388 220.61 554.231 220.61C555.074 220.61 555.808 220.922 556.431 221.545C557.054 222.168 557.366 222.902 557.366 223.745C557.366 224.588 557.018 225.358 556.321 226.055L547.686 234.085L557.256 242.665ZM584.827 240.63C585.451 240.63 585.946 240.868 586.312 241.345C586.716 241.822 586.917 242.463 586.917 243.27C586.917 244.407 586.239 245.36 584.882 246.13C583.636 246.827 582.224 247.395 580.647 247.835C579.071 248.238 577.567 248.44 576.137 248.44C571.811 248.44 568.382 247.193 565.852 244.7C563.322 242.207 562.057 238.797 562.057 234.47C562.057 231.72 562.607 229.282 563.707 227.155C564.807 225.028 566.347 223.378 568.327 222.205C570.344 221.032 572.617 220.445 575.147 220.445C577.567 220.445 579.676 220.977 581.472 222.04C583.269 223.103 584.662 224.607 585.652 226.55C586.642 228.493 587.137 230.785 587.137 233.425C587.137 235.002 586.441 235.79 585.047 235.79H568.822C569.042 238.32 569.757 240.19 570.967 241.4C572.177 242.573 573.937 243.16 576.247 243.16C577.421 243.16 578.447 243.013 579.327 242.72C580.244 242.427 581.271 242.023 582.407 241.51C583.507 240.923 584.314 240.63 584.827 240.63ZM575.312 225.285C573.442 225.285 571.939 225.872 570.802 227.045C569.702 228.218 569.042 229.905 568.822 232.105H581.252C581.179 229.868 580.629 228.182 579.602 227.045C578.576 225.872 577.146 225.285 575.312 225.285ZM605.521 220.445C609.261 220.445 612.029 221.38 613.826 223.25C615.659 225.083 616.576 227.888 616.576 231.665V245.085C616.576 246.075 616.283 246.863 615.696 247.45C615.109 248 614.303 248.275 613.276 248.275C612.323 248.275 611.534 247.982 610.911 247.395C610.324 246.808 610.031 246.038 610.031 245.085V243.875C609.408 245.305 608.418 246.423 607.061 247.23C605.741 248.037 604.201 248.44 602.441 248.44C600.644 248.44 599.013 248.073 597.546 247.34C596.079 246.607 594.924 245.598 594.081 244.315C593.238 243.032 592.816 241.602 592.816 240.025C592.816 238.045 593.311 236.487 594.301 235.35C595.328 234.213 596.978 233.388 599.251 232.875C601.524 232.362 604.659 232.105 608.656 232.105H610.031V230.84C610.031 229.043 609.646 227.742 608.876 226.935C608.106 226.092 606.859 225.67 605.136 225.67C604.073 225.67 602.991 225.835 601.891 226.165C600.791 226.458 599.489 226.898 597.986 227.485C597.033 227.962 596.336 228.2 595.896 228.2C595.236 228.2 594.686 227.962 594.246 227.485C593.843 227.008 593.641 226.385 593.641 225.615C593.641 224.992 593.788 224.46 594.081 224.02C594.411 223.543 594.943 223.103 595.676 222.7C596.959 222.003 598.481 221.453 600.241 221.05C602.038 220.647 603.798 220.445 605.521 220.445ZM603.816 243.49C605.649 243.49 607.134 242.885 608.271 241.675C609.444 240.428 610.031 238.833 610.031 236.89V235.735H609.041C606.584 235.735 604.678 235.845 603.321 236.065C601.964 236.285 600.993 236.67 600.406 237.22C599.819 237.77 599.526 238.522 599.526 239.475C599.526 240.648 599.929 241.62 600.736 242.39C601.579 243.123 602.606 243.49 603.816 243.49ZM661.018 222.59C661.275 221.93 661.641 221.435 662.118 221.105C662.631 220.775 663.181 220.61 663.768 220.61C664.611 220.61 665.363 220.903 666.023 221.49C666.72 222.04 667.068 222.737 667.068 223.58C667.068 224.057 666.976 224.478 666.793 224.845L657.718 246.13C657.425 246.827 656.966 247.358 656.343 247.725C655.756 248.092 655.096 248.275 654.363 248.275C653.666 248.275 653.006 248.092 652.383 247.725C651.796 247.358 651.356 246.827 651.063 246.13L644.518 230.4L638.193 246.13C637.9 246.827 637.441 247.358 636.818 247.725C636.231 248.092 635.571 248.275 634.838 248.275C634.141 248.275 633.481 248.092 632.858 247.725C632.235 247.358 631.776 246.827 631.483 246.13L622.463 224.845C622.28 224.368 622.188 223.965 622.188 223.635C622.188 222.792 622.555 222.077 623.288 221.49C624.021 220.867 624.828 220.555 625.708 220.555C626.331 220.555 626.9 220.72 627.413 221.05C627.926 221.38 628.311 221.875 628.568 222.535L635.058 239.31L641.713 222.7C642.006 222.003 642.428 221.49 642.978 221.16C643.528 220.793 644.133 220.61 644.793 220.61C645.453 220.61 646.058 220.793 646.608 221.16C647.158 221.49 647.58 222.003 647.873 222.7L654.583 239.365L661.018 222.59ZM684.152 220.445C687.892 220.445 690.66 221.38 692.457 223.25C694.29 225.083 695.207 227.888 695.207 231.665V245.085C695.207 246.075 694.913 246.863 694.327 247.45C693.74 248 692.933 248.275 691.907 248.275C690.953 248.275 690.165 247.982 689.542 247.395C688.955 246.808 688.662 246.038 688.662 245.085V243.875C688.038 245.305 687.048 246.423 685.692 247.23C684.372 248.037 682.832 248.44 681.072 248.44C679.275 248.44 677.643 248.073 676.177 247.34C674.71 246.607 673.555 245.598 672.712 244.315C671.868 243.032 671.447 241.602 671.447 240.025C671.447 238.045 671.942 236.487 672.932 235.35C673.958 234.213 675.608 233.388 677.882 232.875C680.155 232.362 683.29 232.105 687.287 232.105H688.662V230.84C688.662 229.043 688.277 227.742 687.507 226.935C686.737 226.092 685.49 225.67 683.767 225.67C682.703 225.67 681.622 225.835 680.522 226.165C679.422 226.458 678.12 226.898 676.617 227.485C675.663 227.962 674.967 228.2 674.527 228.2C673.867 228.2 673.317 227.962 672.877 227.485C672.473 227.008 672.272 226.385 672.272 225.615C672.272 224.992 672.418 224.46 672.712 224.02C673.042 223.543 673.573 223.103 674.307 222.7C675.59 222.003 677.112 221.453 678.872 221.05C680.668 220.647 682.428 220.445 684.152 220.445ZM682.447 243.49C684.28 243.49 685.765 242.885 686.902 241.675C688.075 240.428 688.662 238.833 688.662 236.89V235.735H687.672C685.215 235.735 683.308 235.845 681.952 236.065C680.595 236.285 679.623 236.67 679.037 237.22C678.45 237.77 678.157 238.522 678.157 239.475C678.157 240.648 678.56 241.62 679.367 242.39C680.21 243.123 681.237 243.49 682.447 243.49ZM722.049 222.535C722.342 221.875 722.727 221.398 723.204 221.105C723.717 220.775 724.267 220.61 724.854 220.61C725.697 220.61 726.449 220.903 727.109 221.49C727.805 222.04 728.154 222.737 728.154 223.58C728.154 223.983 728.044 224.405 727.824 224.845L712.809 256.305C712.185 257.552 711.214 258.175 709.894 258.175C709.05 258.175 708.299 257.9 707.639 257.35C707.015 256.837 706.704 256.177 706.704 255.37C706.704 254.967 706.814 254.508 707.034 253.995L710.774 246.13L700.544 224.845C700.36 224.478 700.269 224.057 700.269 223.58C700.269 222.737 700.617 222.022 701.314 221.435C702.047 220.848 702.872 220.555 703.789 220.555C704.412 220.555 704.98 220.72 705.494 221.05C706.007 221.343 706.41 221.82 706.704 222.48L714.404 239.475L722.049 222.535ZM742.703 248.44C738.706 248.44 735.48 247.652 733.023 246.075C731.85 245.378 731.263 244.388 731.263 243.105C731.263 242.372 731.465 241.785 731.868 241.345C732.271 240.868 732.766 240.63 733.353 240.63C733.976 240.63 734.838 240.923 735.938 241.51C737.111 242.06 738.175 242.482 739.128 242.775C740.118 243.068 741.365 243.215 742.868 243.215C744.408 243.215 745.6 242.958 746.443 242.445C747.323 241.932 747.763 241.217 747.763 240.3C747.763 239.677 747.58 239.182 747.213 238.815C746.883 238.448 746.26 238.118 745.343 237.825C744.463 237.495 743.106 237.128 741.273 236.725C738.01 236.065 735.663 235.13 734.233 233.92C732.84 232.71 732.143 231.042 732.143 228.915C732.143 227.302 732.62 225.853 733.573 224.57C734.526 223.25 735.828 222.242 737.478 221.545C739.165 220.812 741.071 220.445 743.198 220.445C744.738 220.445 746.223 220.647 747.653 221.05C749.083 221.417 750.366 221.967 751.503 222.7C752.676 223.433 753.263 224.405 753.263 225.615C753.263 226.348 753.061 226.972 752.658 227.485C752.255 227.962 751.76 228.2 751.173 228.2C750.77 228.2 750.366 228.127 749.963 227.98C749.596 227.797 749.12 227.54 748.533 227.21C747.47 226.66 746.553 226.257 745.783 226C745.013 225.707 744.06 225.56 742.923 225.56C741.566 225.56 740.485 225.835 739.678 226.385C738.908 226.935 738.523 227.687 738.523 228.64C738.523 229.557 738.926 230.253 739.733 230.73C740.54 231.207 742.098 231.683 744.408 232.16C746.865 232.673 748.79 233.26 750.183 233.92C751.576 234.58 752.566 235.405 753.153 236.395C753.776 237.385 754.088 238.65 754.088 240.19C754.088 242.683 753.043 244.682 750.953 246.185C748.9 247.688 746.15 248.44 742.703 248.44Z" fill="white"/>
</svg>
